<svg width="30" height="30" viewBox="0 0 30 30" fill="none" xmlns="http://www.w3.org/2000/svg">
<g clip-path="url(#clip0_7720_1221)">
<path d="M15 30C23.2843 30 30 23.2843 30 15C30 6.71573 23.2843 0 15 0C6.71573 0 0 6.71573 0 15C0 23.2843 6.71573 30 15 30Z" fill="#0D2BA5"/>
<path d="M15.58 14.9C16.1133 14.3533 16.54 13.8067 16.86 13.26C17.1933 12.7133 17.36 12.2333 17.36 11.82C17.36 11.2333 17.14 10.78 16.7 10.46C16.2733 10.1267 15.6733 9.96 14.9 9.96C14.2733 9.96 13.6067 10.1133 12.9 10.42C12.2067 10.7267 11.56 11.1467 10.96 11.68L10 9.98C10.7867 9.36667 11.62 8.88667 12.5 8.54C13.3933 8.18 14.3 8 15.22 8C16.14 8 16.94 8.14667 17.62 8.44C18.3133 8.72 18.8533 9.12667 19.24 9.66C19.6267 10.18 19.82 10.7933 19.82 11.5C19.82 12.1933 19.5733 12.9333 19.08 13.72C18.5867 14.4933 17.9533 15.28 17.18 16.08L12.62 20.82L12.3 20.1H20.5V22.1H10.24V20.44L15.58 14.9Z" fill="white"/>
</g>
<defs>
<clipPath id="clip0_7720_1221">
<rect width="30" height="30" fill="white"/>
</clipPath>
</defs>
</svg>
