<svg width="30" height="30" viewBox="0 0 30 30" fill="none" xmlns="http://www.w3.org/2000/svg">
<g clip-path="url(#clip0_7720_1245)">
<path d="M15 30C23.2843 30 30 23.2843 30 15C30 6.71573 23.2843 0 15 0C6.71573 0 0 6.71573 0 15C0 23.2843 6.71573 30 15 30Z" fill="#1B837F"/>
<path d="M16.2 13.9C17.5067 13.9933 18.56 14.3667 19.36 15.02C20.1733 15.6733 20.58 16.5533 20.58 17.66C20.58 18.5267 20.3533 19.3 19.9 19.98C19.46 20.6467 18.8267 21.1667 18 21.54C17.1867 21.9133 16.2133 22.1 15.08 22.1C14.1467 22.1 13.2267 21.9667 12.32 21.7C11.4133 21.42 10.64 21.0533 10 20.6L10.98 18.8C11.5267 19.2533 12.14 19.6067 12.82 19.86C13.5133 20.1 14.2133 20.22 14.92 20.22C15.6267 20.22 16.2267 20.12 16.72 19.92C17.2267 19.7067 17.6133 19.4133 17.88 19.04C18.1467 18.6533 18.28 18.2133 18.28 17.72C18.28 16.9333 17.98 16.34 17.38 15.94C16.78 15.54 15.9467 15.34 14.88 15.34H12.84V13.94L17.66 9.2L17.98 10H10.7L10.68 8H19.88V9.4L14.64 14.56L14.34 13.76L16.2 13.9Z" fill="white"/>
</g>
<defs>
<clipPath id="clip0_7720_1245">
<rect width="30" height="30" fill="white"/>
</clipPath>
</defs>
</svg>
