<svg width="30" height="30" viewBox="0 0 30 30" fill="none" xmlns="http://www.w3.org/2000/svg">
<g clip-path="url(#clip0_7720_1217)">
<path d="M15 30C23.2843 30 30 23.2843 30 15C30 6.71573 23.2843 0 15 0C6.71573 0 0 6.71573 0 15C0 23.2843 6.71573 30 15 30Z" fill="#9800FD"/>
<path d="M13.3 14.2L12.78 13.18C12.94 13.1667 13.1733 13.16 13.48 13.16C13.8 13.1467 14.1333 13.14 14.48 13.14C14.8267 13.14 15.12 13.14 15.36 13.14C16.4267 13.14 17.3467 13.3267 18.12 13.7C18.9067 14.0733 19.5133 14.58 19.94 15.22C20.3667 15.86 20.58 16.5867 20.58 17.4C20.58 18.3467 20.3533 19.1733 19.9 19.88C19.46 20.5867 18.8333 21.1333 18.02 21.52C17.22 21.9067 16.2733 22.1 15.18 22.1C14.3267 22.1 13.4267 21.9533 12.48 21.66C11.5467 21.3667 10.72 20.98 10 20.5L10.96 18.7C11.5467 19.1533 12.1867 19.5067 12.88 19.76C13.5733 20.0133 14.2667 20.14 14.96 20.14C15.9067 20.14 16.66 19.9067 17.22 19.44C17.78 18.9733 18.06 18.3467 18.06 17.56C18.06 16.8133 17.7867 16.2267 17.24 15.8C16.7067 15.36 15.8867 15.14 14.78 15.14C14.62 15.14 14.3867 15.1467 14.08 15.16C13.7733 15.16 13.4333 15.1733 13.06 15.2C12.7 15.2133 12.3467 15.2333 12 15.26C11.6533 15.2867 11.3533 15.3133 11.1 15.34V8H19.98V10H12.24L13.3 8.96V14.2Z" fill="white"/>
</g>
<defs>
<clipPath id="clip0_7720_1217">
<rect width="30" height="30" fill="white"/>
</clipPath>
</defs>
</svg>
