<svg width="30" height="30" viewBox="0 0 30 30" fill="none" xmlns="http://www.w3.org/2000/svg">
<g clip-path="url(#clip0_7720_1241)">
<path d="M15 30C23.2843 30 30 23.2843 30 15C30 6.71573 23.2843 0 15 0C6.71573 0 0 6.71573 0 15C0 23.2843 6.71573 30 15 30Z" fill="#8D4D2C"/>
<path d="M19.3 10.74C18.8733 10.46 18.38 10.2467 17.82 10.1C17.2733 9.94 16.7333 9.86 16.2 9.86C15.2933 9.86 14.5467 10.08 13.96 10.52C13.3733 10.96 12.94 11.5733 12.66 12.36C12.3933 13.1467 12.2733 14.0667 12.3 15.12C12.6733 14.44 13.18 13.9267 13.82 13.58C14.4733 13.2333 15.24 13.06 16.12 13.06C17.0533 13.06 17.8533 13.2467 18.52 13.62C19.2 13.98 19.72 14.4933 20.08 15.16C20.4533 15.8267 20.64 16.6133 20.64 17.52C20.64 18.48 20.4333 19.3133 20.02 20.02C19.62 20.7133 19.0467 21.2533 18.3 21.64C17.5667 22.0133 16.7 22.2 15.7 22.2C14.5267 22.2 13.5133 21.9333 12.66 21.4C11.8067 20.8533 11.1467 20.0733 10.68 19.06C10.2267 18.0467 10 16.8267 10 15.4C10 13.9067 10.2467 12.6067 10.74 11.5C11.2333 10.3933 11.9333 9.53333 12.84 8.92C13.7467 8.30667 14.8133 8 16.04 8C16.7333 8 17.46 8.1 18.22 8.3C18.98 8.48667 19.6467 8.74 20.22 9.06L19.3 10.74ZM15.68 14.82C15.0533 14.82 14.5133 14.9533 14.06 15.22C13.6067 15.4733 13.26 15.8133 13.02 16.24C12.7933 16.6533 12.68 17.1067 12.68 17.6C12.68 17.9067 12.7333 18.22 12.84 18.54C12.9467 18.86 13.12 19.1533 13.36 19.42C13.6 19.6733 13.9 19.88 14.26 20.04C14.6333 20.2 15.0733 20.28 15.58 20.28C16.1533 20.28 16.6533 20.1733 17.08 19.96C17.5067 19.7333 17.84 19.4133 18.08 19C18.32 18.5733 18.44 18.0733 18.44 17.5C18.44 16.6733 18.1933 16.02 17.7 15.54C17.2067 15.06 16.5333 14.82 15.68 14.82Z" fill="white"/>
</g>
<defs>
<clipPath id="clip0_7720_1241">
<rect width="30" height="30" fill="white"/>
</clipPath>
</defs>
</svg>
