<svg width="33" height="32" viewBox="0 0 33 32" fill="none" xmlns="http://www.w3.org/2000/svg">
<g clip-path="url(#clip0_7710_1149)">
<mask id="mask0_7710_1149" style="mask-type:luminance" maskUnits="userSpaceOnUse" x="0" y="0" width="33" height="32">
<path d="M32.6 16C32.6 7.16344 25.4365 0 16.6 0C7.76342 0 0.599976 7.16344 0.599976 16C0.599976 24.8366 7.76342 32 16.6 32C25.4365 32 32.6 24.8366 32.6 16Z" fill="white"/>
</mask>
<g mask="url(#mask0_7710_1149)">
<path d="M32.6 16C32.6 7.16344 25.4365 0 16.6 0C7.76342 0 0.599976 7.16344 0.599976 16C0.599976 24.8366 7.76342 32 16.6 32C25.4365 32 32.6 24.8366 32.6 16Z" fill="#FFD1D1"/>
<path d="M16.76 33.6001C21.2666 33.6001 24.92 31.0212 24.92 27.8401C24.92 24.6589 21.2666 22.0801 16.76 22.0801C12.2534 22.0801 8.60001 24.6589 8.60001 27.8401C8.60001 31.0212 12.2534 33.6001 16.76 33.6001Z" fill="white"/>
<path d="M16.4399 26.8798C17.0584 26.8798 17.5599 26.5216 17.5599 26.0798C17.5599 25.638 17.0584 25.2798 16.4399 25.2798C15.8213 25.2798 15.3199 25.638 15.3199 26.0798C15.3199 26.5216 15.8213 26.8798 16.4399 26.8798Z" fill="#D9D9D9"/>
<path fill-rule="evenodd" clip-rule="evenodd" d="M13.0937 5.96001C12.9066 5.6574 12.6053 5.32412 12.1201 4.96018C11.5923 4.56434 11.0001 3.68018 12.1201 3.68018C13.165 3.68018 15.881 3.68018 17.7997 5.49914C23.4212 6.05499 27.8 10.4727 27.8 15.8402C27.8 21.584 22.7856 26.2402 16.6 26.2402C10.4144 26.2402 5.40002 21.584 5.40002 15.8402C5.40002 11.2336 8.62547 7.3265 13.0937 5.96001Z" fill="white"/>
<path fill-rule="evenodd" clip-rule="evenodd" d="M20.1691 10.3C20.0397 10.2711 19.9093 10.2545 19.7998 10.2464C19.7117 10.2398 19.64 10.1683 19.64 10.0799C19.64 9.99156 19.7117 9.91978 19.7999 9.92563C19.9284 9.93416 20.0837 9.95308 20.2389 9.98778C20.4095 10.0259 20.5976 10.0868 20.7488 10.1865C20.8226 10.2351 20.8225 10.3374 20.76 10.3999C20.6975 10.4624 20.5949 10.4623 20.517 10.4206C20.423 10.3704 20.3028 10.3299 20.1691 10.3Z" fill="black"/>
<path fill-rule="evenodd" clip-rule="evenodd" d="M13.144 10.3C13.2734 10.2711 13.4039 10.2545 13.5133 10.2464C13.6014 10.2398 13.6731 10.1683 13.6731 10.0799C13.6731 9.99156 13.6014 9.91978 13.5133 9.92563C13.3847 9.93416 13.2294 9.95308 13.0742 9.98778C12.9036 10.0259 12.7155 10.0868 12.5643 10.1865C12.4905 10.2351 12.4906 10.3374 12.5531 10.3999C12.6156 10.4624 12.7182 10.4623 12.7961 10.4206C12.8901 10.3704 13.0103 10.3299 13.144 10.3Z" fill="black"/>
<path d="M14.36 19.8398H18.84V20.4798C18.84 21.7169 17.8371 22.7198 16.6 22.7198C15.3629 22.7198 14.36 21.7169 14.36 20.4798V19.8398Z" fill="#DD5874"/>
<path fill-rule="evenodd" clip-rule="evenodd" d="M18.6008 21.4879C18.2319 22.2186 17.4745 22.7198 16.5999 22.7198C15.8144 22.7198 15.1232 22.3154 14.7234 21.7035C15.1474 21.1608 15.901 20.7998 16.7599 20.7998C17.4993 20.7998 18.1606 21.0673 18.6008 21.4879Z" fill="#EE8DA3"/>
<path d="M11 18.5598C12.3255 18.5598 13.4 18.2732 13.4 17.9198C13.4 17.5663 12.3255 17.2798 11 17.2798C9.67452 17.2798 8.60001 17.5663 8.60001 17.9198C8.60001 18.2732 9.67452 18.5598 11 18.5598Z" fill="#F6C1C9"/>
<path d="M22.1999 18.5598C23.5254 18.5598 24.5999 18.2732 24.5999 17.9198C24.5999 17.5663 23.5254 17.2798 22.1999 17.2798C20.8744 17.2798 19.7999 17.5663 19.7999 17.9198C19.7999 18.2732 20.8744 18.5598 22.1999 18.5598Z" fill="#F6C1C9"/>
<path d="M24.6 11.2002C26.776 11.2002 26.8934 11.5202 26.68 11.6802C26.7334 11.8935 26.744 12.3522 26.36 12.4802C25.976 12.6082 25.88 13.2802 25.88 13.6002C25.88 14.3469 25.7812 15.4904 25.56 16.0002C25.3388 16.51 24.92 17.6002 22.36 17.7602C19.8 17.9202 18.52 16.9602 18.2 16.3202C17.88 15.6802 17.88 14.0802 17.08 13.6002L16.28 13.1202V12.4802C16.92 12.4802 18.04 11.9079 19.48 11.6802C20.92 11.4525 22.424 11.2002 24.6 11.2002Z" fill="#56536E"/>
<path d="M19.4921 16.6398C18.3721 15.9998 18.3721 14.3998 18.2121 13.4398C18.109 12.8212 18.6909 12.5071 19.1721 12.3804C19.2431 12.3617 19.312 12.3471 19.3761 12.3362C20.2782 12.1472 22.1153 11.8398 23.6521 11.8398C25.7321 11.8398 25.4121 13.4398 25.4121 14.5598C25.4121 15.6798 24.6121 16.4798 23.6521 16.9598C22.6921 17.4398 20.6121 17.2798 19.4921 16.6398Z" fill="#8CD8FE"/>
<path d="M8.19466 11.2002C6.01866 11.2002 5.90133 11.5202 6.11466 11.6802C6.06133 11.8935 6.05066 12.3522 6.43466 12.4802C6.81866 12.6082 6.91466 13.2802 6.91466 13.6002C6.91466 14.3469 7.01346 15.4904 7.23466 16.0002C7.45586 16.51 7.87466 17.6002 10.4346 17.7602C12.9946 17.9202 14.2746 16.9602 14.5946 16.3202C14.9146 15.6802 14.9146 14.0802 15.7146 13.6002L16.5146 13.1202V12.4802C15.8746 12.4802 14.7546 11.9079 13.3146 11.6802C11.8746 11.4525 10.3706 11.2002 8.19466 11.2002Z" fill="#56536E"/>
<path d="M13.3026 16.6398C14.4226 15.9998 14.4226 14.3998 14.5826 13.4398C14.6857 12.8212 14.1038 12.5071 13.6226 12.3804C13.5516 12.3617 13.4827 12.3471 13.4186 12.3362C12.5165 12.1472 10.6794 11.8398 9.14261 11.8398C7.06261 11.8398 7.38261 13.4398 7.38261 14.5598C7.38261 15.6798 8.18261 16.4798 9.14261 16.9598C10.1026 17.4398 12.1826 17.2798 13.3026 16.6398Z" fill="#8CD8FE"/>
<path d="M13.5898 14.3998C13.7665 14.3998 13.9098 14.2565 13.9098 14.0798C13.9098 13.903 13.7665 13.7598 13.5898 13.7598C13.4131 13.7598 13.2698 13.903 13.2698 14.0798C13.2698 14.2565 13.4131 14.3998 13.5898 14.3998Z" fill="white"/>
<path fill-rule="evenodd" clip-rule="evenodd" d="M12.8644 15.3819C13.0415 15.2056 13.1741 15.0147 13.2632 14.8528C13.3271 14.7367 13.4656 14.6735 13.5897 14.72C13.7138 14.7665 13.777 14.9052 13.7163 15.0231C13.6056 15.2378 13.4351 15.4911 13.203 15.7221C12.9283 15.9956 12.5599 16.2449 12.0956 16.3555C11.9666 16.3862 11.8461 16.2915 11.8297 16.16C11.8133 16.0285 11.9073 15.9102 12.0352 15.8755C12.3728 15.7839 12.6484 15.5969 12.8644 15.3819Z" fill="white"/>
<path d="M24.4698 14.7201C24.6465 14.7201 24.7898 14.5768 24.7898 14.4001C24.7898 14.2233 24.6465 14.0801 24.4698 14.0801C24.2931 14.0801 24.1498 14.2233 24.1498 14.4001C24.1498 14.5768 24.2931 14.7201 24.4698 14.7201Z" fill="white"/>
<path fill-rule="evenodd" clip-rule="evenodd" d="M23.7444 15.7017C23.9215 15.5254 24.0541 15.3345 24.1432 15.1726C24.2071 15.0565 24.3456 14.9933 24.4697 15.0398C24.5938 15.0863 24.657 15.2251 24.5963 15.3429C24.4856 15.5577 24.3151 15.8109 24.083 16.0419C23.8083 16.3154 23.4399 16.5647 22.9756 16.6753C22.8466 16.706 22.7261 16.6113 22.7097 16.4798C22.6933 16.3483 22.7873 16.23 22.9152 16.1953C23.2528 16.1037 23.5284 15.9167 23.7444 15.7017Z" fill="white"/>
<path d="M10.9082 33.2542C10.3118 32.1964 10.1615 28.5639 10.1608 26.8799C10.17 29.6162 10.977 32.2086 11.3794 33.1628C11.4708 33.634 11.5045 34.312 10.9082 33.2542Z" stroke="#D9D9D9" stroke-width="0.32"/>
<path d="M22.6322 33.2542C23.2286 32.1964 23.3789 28.5639 23.3796 26.8799C23.3704 29.6162 22.5634 32.2086 22.161 33.1628C22.0696 33.634 22.0359 34.312 22.6322 33.2542Z" stroke="#D9D9D9" stroke-width="0.32"/>
</g>
</g>
<defs>
<clipPath id="clip0_7710_1149">
<rect width="33" height="32" fill="white"/>
</clipPath>
</defs>
</svg>
