<svg width="32" height="32" viewBox="0 0 32 32" fill="none" xmlns="http://www.w3.org/2000/svg">
<g clip-path="url(#clip0_7710_1038)">
<mask id="mask0_7710_1038" style="mask-type:luminance" maskUnits="userSpaceOnUse" x="0" y="0" width="32" height="32">
<path d="M32 16C32 7.16344 24.8366 0 16 0C7.16344 0 0 7.16344 0 16C0 24.8366 7.16344 32 16 32C24.8366 32 32 24.8366 32 16Z" fill="white"/>
</mask>
<g mask="url(#mask0_7710_1038)">
<path d="M32 16C32 7.16344 24.8366 0 16 0C7.16344 0 0 7.16344 0 16C0 24.8366 7.16344 32 16 32C24.8366 32 32 24.8366 32 16Z" fill="#FFD1D1"/>
<path d="M16.16 43.8402C21.5503 43.8402 25.92 39.3272 25.92 33.7602C25.92 28.1931 21.5503 23.6802 16.16 23.6802C10.7697 23.6802 6.39999 28.1931 6.39999 33.7602C6.39999 39.3272 10.7697 43.8402 16.16 43.8402Z" fill="#EC6A00"/>
<path d="M23.36 26.3998C23.36 27.5486 18.4 31.6798 16.16 31.6798C13.92 31.6798 8.95996 27.5486 8.95996 26.3998C8.95996 25.251 12.1835 24.3198 16.16 24.3198C20.1364 24.3198 23.36 25.251 23.36 26.3998Z" fill="#198FCF"/>
<path d="M16 27.8399C22.3623 27.8399 27.52 23.2553 27.52 17.5999C27.52 11.9445 22.3623 7.35986 16 7.35986C9.63768 7.35986 4.48 11.9445 4.48 17.5999C4.48 23.2553 9.63768 27.8399 16 27.8399Z" fill="#EC6A00"/>
<path d="M10.0799 5.44004C13.2799 2.62404 14.1866 5.97337 14.2399 8.00004L7.03995 13.44C6.71995 11.9467 6.87995 8.25604 10.0799 5.44004Z" fill="#EC6A00"/>
<path d="M11.84 8.47976C11.5733 7.5731 10.784 6.39976 9.75997 8.95976C8.73597 11.5198 10.72 9.70643 11.84 8.47976Z" fill="#C33A1D"/>
<path d="M21.9656 5.44004C18.7656 2.62404 17.8589 5.97337 17.8056 8.00004L25.0056 13.44C25.3256 11.9467 25.1656 8.25604 21.9656 5.44004Z" fill="#EC6A00"/>
<path d="M20.2056 8.47976C20.4722 7.5731 21.2616 6.39976 22.2856 8.95976C23.3096 11.5198 21.3256 9.70643 20.2056 8.47976Z" fill="#C33A1D"/>
<path d="M12.2517 14.6667C13.3579 14.9764 14.4285 14.6067 14.643 13.8408C14.8574 13.075 14.1345 12.2031 13.0283 11.8933C11.9221 11.5836 10.8515 11.9534 10.637 12.7192C10.4226 13.485 11.1455 14.3569 12.2517 14.6667Z" fill="white"/>
<path d="M20.0595 14.5344C18.9533 14.8441 17.8827 14.4744 17.6682 13.7085C17.4538 12.9427 18.1767 12.0708 19.2829 11.761C20.3891 11.4513 21.4597 11.821 21.6742 12.5869C21.8886 13.3527 21.1657 14.2246 20.0595 14.5344Z" fill="white"/>
<path d="M12.0395 17.5491C12.724 17.7256 13.3683 17.5218 13.4787 17.094C13.589 16.6662 13.1235 16.1763 12.4389 15.9998C11.7544 15.8233 11.1101 16.027 10.9997 16.4548C10.8894 16.8827 11.3549 17.3726 12.0395 17.5491Z" fill="black"/>
<path d="M20.5189 17.2288C19.8344 17.4053 19.19 17.2015 19.0797 16.7737C18.9694 16.3459 19.4349 15.856 20.1194 15.6795C20.804 15.5029 21.4483 15.7067 21.5586 16.1345C21.669 16.5624 21.2035 17.0523 20.5189 17.2288Z" fill="black"/>
<path d="M16.16 20.1602C16.9553 20.1602 17.6 19.7304 17.6 19.2002C17.6 18.67 16.9553 18.2402 16.16 18.2402C15.3647 18.2402 14.72 18.67 14.72 19.2002C14.72 19.7304 15.3647 20.1602 16.16 20.1602Z" fill="#D9D9D9"/>
<path d="M24.32 21.6001C24.32 24.3394 20.595 26.5601 16 26.5601C11.405 26.5601 7.67999 24.3394 7.67999 21.6001C7.67999 20.2587 8.69537 18.9052 10.24 18.4001C11.1958 18.0875 12.0341 18.6569 13.28 18.4001C14.1323 18.2244 15.3675 16.6401 16.32 16.6401C17.4539 16.6401 17.8949 18.1552 18.88 18.4001C19.8369 18.638 21.1834 18.1693 21.92 18.4001C23.4978 18.8946 24.32 20.1935 24.32 21.6001Z" fill="white"/>
<path d="M16.1552 19.5201C16.9505 19.5201 17.5952 19.0903 17.5952 18.5601C17.5952 18.0299 16.9505 17.6001 16.1552 17.6001C15.3599 17.6001 14.7152 18.0299 14.7152 18.5601C14.7152 19.0903 15.3599 19.5201 16.1552 19.5201Z" fill="black"/>
<path fill-rule="evenodd" clip-rule="evenodd" d="M16.2505 19.7493C16.2626 19.7179 16.2738 19.6857 16.2841 19.6526C16.3002 19.6012 16.2681 19.5482 16.2159 19.5352L16.176 19.5252C16.1669 19.5229 16.1596 19.516 16.1571 19.5068C16.1533 19.4928 16.139 19.4841 16.1248 19.4876L16.0903 19.4962C16.0804 19.4987 16.0701 19.4987 16.0602 19.4962L16.0256 19.4876C16.0115 19.4841 15.9972 19.4928 15.9933 19.5068C15.9909 19.516 15.9836 19.5229 15.9744 19.5252L15.9345 19.5352C15.8823 19.5482 15.8503 19.6012 15.8663 19.6526C15.8767 19.6857 15.8879 19.7179 15.8999 19.7493C15.4625 20.5995 14.1578 20.5611 13.7988 19.6341C13.7669 19.5517 13.681 19.4986 13.5952 19.52C13.5095 19.5414 13.4567 19.6291 13.4863 19.7124C13.8962 20.8655 15.4282 20.9874 16.0752 20.0779C16.7223 20.9874 18.2543 20.8655 18.6642 19.7124C18.6938 19.6291 18.641 19.5414 18.5552 19.52C18.4695 19.4986 18.3836 19.5517 18.3517 19.6341C17.9927 20.5611 16.6879 20.5995 16.2505 19.7493Z" fill="black"/>
</g>
</g>
<defs>
<clipPath id="clip0_7710_1038">
<rect width="32" height="32" fill="white"/>
</clipPath>
</defs>
</svg>
