<svg width="32" height="32" viewBox="0 0 32 32" fill="none" xmlns="http://www.w3.org/2000/svg">
<g clip-path="url(#clip0_7710_1074)">
<mask id="mask0_7710_1074" style="mask-type:luminance" maskUnits="userSpaceOnUse" x="0" y="0" width="32" height="32">
<path d="M32 16C32 7.16344 24.8366 0 16 0C7.16344 0 0 7.16344 0 16C0 24.8366 7.16344 32 16 32C24.8366 32 32 24.8366 32 16Z" fill="white"/>
</mask>
<g mask="url(#mask0_7710_1074)">
<path d="M32 16C32 7.16344 24.8366 0 16 0C7.16344 0 0 7.16344 0 16C0 24.8366 7.16344 32 16 32C24.8366 32 32 24.8366 32 16Z" fill="#FFD1D1"/>
<path fill-rule="evenodd" clip-rule="evenodd" d="M16.0065 6.08008C13.6065 6.08008 9.45855 11.8401 8.00655 17.1201C6.61801 22.1693 6.42198 24.4385 6.12765 27.8454C6.11419 28.0012 6.10053 28.1593 6.08655 28.3201L8.32655 32.1601H16.0065V6.08008ZM24.0066 17.1201C22.5546 11.8401 18.4065 6.08008 16.0065 6.08008V32.1601H23.6866L25.9266 28.3201C25.9126 28.1593 25.8989 28.0012 25.8855 27.8454C25.8077 26.9453 25.7368 26.1247 25.649 25.3111C26.4091 26.0975 26.7883 27.2994 26.8866 27.8401C27.7933 27.4134 29.5746 26.2721 29.4466 25.1201C29.3221 23.9997 26.1605 20.5686 24.4662 18.8603C24.3294 18.3173 24.177 17.7396 24.0066 17.1201Z" fill="#FF6021"/>
<path fill-rule="evenodd" clip-rule="evenodd" d="M22.7885 13.7429C23.2847 14.8719 23.7041 16.0203 24.0066 17.1201C25.2867 21.7749 25.5533 24.067 25.8177 27.066C25.7501 26.7886 25.6776 26.4612 25.6 26.0801C24.192 19.1681 22.9867 14.8801 22.56 13.6001L22.7885 13.7429Z" fill="#E25A26"/>
<path d="M2.56654 25.44C2.69454 24.288 6.03321 20.6933 7.68654 19.04C7.68654 20.8533 7.46254 24.672 6.56654 25.44C5.67054 26.208 5.23321 27.5733 5.12654 28.16C4.21988 27.7333 2.43854 26.592 2.56654 25.44Z" fill="#FF5F20"/>
<path fill-rule="evenodd" clip-rule="evenodd" d="M7.20146 24.0703C7.0418 24.7093 6.83414 25.2108 6.56652 25.4402C5.67052 26.2082 5.23319 27.5735 5.12652 28.1602C5.07457 28.1357 5.01975 28.109 4.96259 28.08C5.02843 27.0398 6.3255 25.1732 7.20146 24.0703Z" fill="#F05016"/>
<path fill-rule="evenodd" clip-rule="evenodd" d="M14.8752 5.79862C15.2225 4.40938 16.0454 3.17558 16.4962 2.62737C16.5523 2.55912 16.546 2.45852 16.48 2.39981C16.4139 2.3411 16.3131 2.34655 16.2568 2.41469C15.7849 2.98621 14.9283 4.26682 14.5648 5.72101C14.2197 7.10123 14.1878 8.16544 14.2251 8.66384C14.2316 8.75196 14.3125 8.81231 14.4 8.79981C14.4875 8.78731 14.5486 8.70641 14.5426 8.61824C14.5111 8.15485 14.5409 7.1358 14.8752 5.79862ZM18.688 5.53581C19.3591 4.64096 20.1635 4.01257 20.5833 3.74195C20.6576 3.69407 20.6838 3.59653 20.64 3.51981C20.5961 3.44309 20.4987 3.41624 20.4242 3.46383C19.9772 3.74961 19.1347 4.40689 18.432 5.34381C18.0291 5.88103 17.7825 6.57205 17.6361 7.20791C17.5094 7.75818 17.4553 8.27764 17.4429 8.63999C17.4399 8.7283 17.5116 8.79981 17.6 8.79981C17.6884 8.79981 17.7599 8.7283 17.7631 8.63999C17.7755 8.29839 17.8271 7.80416 17.9479 7.27972C18.0895 6.66491 18.3229 6.02259 18.688 5.53581Z" fill="black"/>
<mask id="mask1_7710_1074" style="mask-type:luminance" maskUnits="userSpaceOnUse" x="11" y="12" width="5" height="5">
<path d="M15.68 14.72C15.68 13.4829 14.6771 12.48 13.44 12.48C12.2029 12.48 11.2 13.4829 11.2 14.72C11.2 15.9571 12.2029 16.96 13.44 16.96C14.6771 16.96 15.68 15.9571 15.68 14.72Z" fill="white"/>
</mask>
<g mask="url(#mask1_7710_1074)">
<path d="M15.68 14.72C15.68 13.4829 14.6771 12.48 13.44 12.48C12.2029 12.48 11.2 13.4829 11.2 14.72C11.2 15.9571 12.2029 16.96 13.44 16.96C14.6771 16.96 15.68 15.9571 15.68 14.72Z" fill="white"/>
<path d="M16.64 14.72C16.64 13.4829 15.6371 12.48 14.4 12.48C13.1629 12.48 12.16 13.4829 12.16 14.72C12.16 15.9571 13.1629 16.96 14.4 16.96C15.6371 16.96 16.64 15.9571 16.64 14.72Z" fill="#161414"/>
</g>
<mask id="mask2_7710_1074" style="mask-type:luminance" maskUnits="userSpaceOnUse" x="16" y="12" width="5" height="5">
<path d="M20.8 14.72C20.8 13.4829 19.7971 12.48 18.56 12.48C17.3229 12.48 16.32 13.4829 16.32 14.72C16.32 15.9571 17.3229 16.96 18.56 16.96C19.7971 16.96 20.8 15.9571 20.8 14.72Z" fill="white"/>
</mask>
<g mask="url(#mask2_7710_1074)">
<path d="M20.8 14.72C20.8 13.4829 19.7971 12.48 18.56 12.48C17.3229 12.48 16.32 13.4829 16.32 14.72C16.32 15.9571 17.3229 16.96 18.56 16.96C19.7971 16.96 20.8 15.9571 20.8 14.72Z" fill="white"/>
<path d="M21.76 14.72C21.76 13.4829 20.7571 12.48 19.52 12.48C18.2829 12.48 17.28 13.4829 17.28 14.72C17.28 15.9571 18.2829 16.96 19.52 16.96C20.7571 16.96 21.76 15.9571 21.76 14.72Z" fill="#161414"/>
</g>
<path fill-rule="evenodd" clip-rule="evenodd" d="M15.2 17.2802C15.1162 17.3081 15.0706 17.3994 15.1143 17.4762C15.1557 17.549 15.2125 17.6266 15.2858 17.6962C15.4148 17.8187 15.5993 17.9202 15.84 17.9202C16.0807 17.9202 16.2652 17.8187 16.3942 17.6962C16.4675 17.6266 16.5243 17.549 16.5658 17.4762C16.6095 17.3994 16.5638 17.3081 16.48 17.2802C16.3962 17.2523 16.305 17.2986 16.2541 17.3708C16.2319 17.4023 16.2052 17.4344 16.1738 17.4642C16.0922 17.5417 15.9833 17.6002 15.84 17.6002C15.6967 17.6002 15.5878 17.5417 15.5062 17.4642C15.4748 17.4344 15.4481 17.4023 15.4259 17.3708C15.375 17.2986 15.2838 17.2523 15.2 17.2802Z" fill="black"/>
</g>
</g>
<defs>
<clipPath id="clip0_7710_1074">
<rect width="32" height="32" fill="white"/>
</clipPath>
</defs>
</svg>
