<svg width="33" height="32" viewBox="0 0 33 32" fill="none" xmlns="http://www.w3.org/2000/svg">
<g clip-path="url(#clip0_7710_1098)">
<mask id="mask0_7710_1098" style="mask-type:luminance" maskUnits="userSpaceOnUse" x="0" y="0" width="33" height="32">
<path d="M32.7999 16C32.7999 7.16344 25.6365 0 16.7999 0C7.96337 0 0.799927 7.16344 0.799927 16C0.799927 24.8366 7.96337 32 16.7999 32C25.6365 32 32.7999 24.8366 32.7999 16Z" fill="white"/>
</mask>
<g mask="url(#mask0_7710_1098)">
<path d="M32.7999 16C32.7999 7.16344 25.6365 0 16.7999 0C7.96337 0 0.799927 7.16344 0.799927 16C0.799927 24.8366 7.96337 32 16.7999 32C25.6365 32 32.7999 24.8366 32.7999 16Z" fill="#FFD1D1"/>
<path d="M16.9599 37.44C23.4106 37.44 28.6399 33.6434 28.6399 28.96C28.6399 24.2766 23.4106 20.48 16.9599 20.48C10.5092 20.48 5.27991 24.2766 5.27991 28.96C5.27991 33.6434 10.5092 37.44 16.9599 37.44Z" fill="#00ACEA"/>
<path d="M16.9599 41.6001C22.5269 41.6001 27.0399 38.0184 27.0399 33.6001C27.0399 29.1818 22.5269 25.6001 16.9599 25.6001C11.3929 25.6001 6.87991 29.1818 6.87991 33.6001C6.87991 38.0184 11.3929 41.6001 16.9599 41.6001Z" fill="#9DCAE2"/>
<path d="M21.7599 3.99985L20.4799 6.23985L21.7599 7.03985C21.9732 6.87985 22.4959 6.49585 22.8799 6.23985C23.3599 5.91985 23.3599 3.99985 22.8799 3.67985C22.4959 3.42385 21.9732 3.78652 21.7599 3.99985Z" fill="#28B1E6"/>
<path fill-rule="evenodd" clip-rule="evenodd" d="M22.8427 3.65723C22.7037 3.75533 22.5942 3.91581 22.5942 4.16871C22.5942 4.41571 22.514 4.85077 22.4299 5.30684C22.3353 5.81955 22.2359 6.35881 22.24 6.68732C22.4495 6.53616 22.6829 6.37118 22.8799 6.23987C23.3599 5.91988 23.3599 3.99987 22.8799 3.67987C22.8676 3.67171 22.8552 3.66417 22.8427 3.65723Z" fill="#387AAD"/>
<path d="M12.3599 3.99985L13.6399 6.23985L12.3599 7.03985C12.1466 6.87985 11.6239 6.49585 11.2399 6.23985C10.7599 5.91985 10.7599 3.99985 11.2399 3.67985C11.6239 3.42385 12.1466 3.78652 12.3599 3.99985Z" fill="#28B1E6"/>
<path fill-rule="evenodd" clip-rule="evenodd" d="M11.277 3.65723C11.416 3.75533 11.5256 3.91581 11.5256 4.16871C11.5256 4.41571 11.6058 4.85077 11.6899 5.30684C11.7844 5.81955 11.8839 6.35881 11.8798 6.68732C11.6703 6.53616 11.4368 6.37118 11.2399 6.23987C10.7599 5.91988 10.7599 3.99987 11.2399 3.67987C11.2521 3.67171 11.2645 3.66417 11.277 3.65723Z" fill="#387AAD"/>
<path d="M16.8 24.3201C22.1019 24.3201 26.4 20.0221 26.4 14.7201C26.4 9.41818 22.1019 5.12012 16.8 5.12012C11.4981 5.12012 7.20001 9.41818 7.20001 14.7201C7.20001 20.0221 11.4981 24.3201 16.8 24.3201Z" fill="#00ACEA"/>
<path fill-rule="evenodd" clip-rule="evenodd" d="M15.9027 23.375C15.636 23.0017 15.0067 22.287 14.6227 22.415C14.2323 22.5452 14.1594 22.8869 14.0597 23.3543C14.0369 23.4616 14.0126 23.5756 13.9827 23.6951C13.8227 24.335 13.9827 25.2951 14.3027 25.6151C14.5587 25.8711 15.476 25.295 15.9027 24.975H17.4399C17.8666 25.295 18.7839 25.8711 19.0399 25.6151C19.3599 25.2951 19.5199 24.335 19.3599 23.6951C19.33 23.5756 19.3057 23.4616 19.2829 23.3543C19.1832 22.8869 19.1103 22.5452 18.7199 22.415C18.3359 22.287 17.7066 23.0017 17.4399 23.375H15.9027Z" fill="#C33F3C"/>
<path fill-rule="evenodd" clip-rule="evenodd" d="M16.7999 14.702C16.3732 14.7553 15.3279 14.734 14.5599 14.222C13.5999 13.582 10.3999 11.662 7.35989 13.742C4.92789 15.406 4.63991 17.262 4.63989 18.862C4.63988 20.622 5.40355 23.0038 7.35989 23.982C8.95988 24.782 11.8399 24.622 12.7999 24.302C13.8099 23.9653 14.2894 23.7236 14.6823 23.5255C15.0661 23.332 15.3674 23.0201 15.9999 22.862C16.4799 22.742 16.7999 22.862 16.7999 22.862C16.7999 22.862 17.1199 22.742 17.5999 22.862C18.2324 23.0201 18.5336 23.332 18.9174 23.5255C19.3104 23.7236 19.7899 23.9653 20.7999 24.302C21.7599 24.622 24.6399 24.782 26.2399 23.982C28.1962 23.0038 28.9599 20.622 28.9599 18.862C28.9599 17.262 28.6719 15.406 26.2399 13.742C23.1999 11.662 19.9999 13.582 19.0399 14.222C18.2719 14.734 17.2266 14.7553 16.7999 14.702Z" fill="#83CCEE"/>
<path fill-rule="evenodd" clip-rule="evenodd" d="M28.8537 17.4808C28.635 16.2469 27.9971 14.9444 26.2398 13.742C23.1998 11.662 19.9998 13.582 19.0398 14.222C18.2718 14.734 17.2265 14.7553 16.7998 14.702C16.3732 14.7553 15.3278 14.734 14.5598 14.222C13.5998 13.582 10.3998 11.662 7.35983 13.742C5.60255 14.9444 4.96466 16.247 4.74597 17.4808C5.01542 19.0051 5.8165 20.6503 7.35983 21.422C8.95982 22.222 11.8398 22.062 12.7998 21.742C13.8098 21.4053 14.2893 21.1636 14.6823 20.9655C14.8044 20.9039 14.9182 20.8303 15.037 20.7536C15.2914 20.5891 15.5687 20.4098 15.9998 20.302C16.4798 20.182 16.7998 20.302 16.7998 20.302C16.7998 20.302 17.1198 20.182 17.5998 20.302C18.031 20.4098 18.3082 20.5891 18.5627 20.7536C18.6814 20.8303 18.7952 20.9039 18.9174 20.9655C19.3103 21.1636 19.7898 21.4053 20.7998 21.742C21.7598 22.062 24.6398 22.222 26.2398 21.422C27.7832 20.6503 28.5842 19.0051 28.8537 17.4808Z" fill="#A8D9F1"/>
<path d="M14.3999 9.28014C14.8417 9.28014 15.1999 9.13687 15.1999 8.96014C15.1999 8.78341 14.8417 8.64014 14.3999 8.64014C13.9581 8.64014 13.5999 8.78341 13.5999 8.96014C13.5999 9.13687 13.9581 9.28014 14.3999 9.28014Z" fill="black"/>
<path d="M19.1999 9.28014C19.6417 9.28014 19.9999 9.13687 19.9999 8.96014C19.9999 8.78341 19.6417 8.64014 19.1999 8.64014C18.7581 8.64014 18.3999 8.78341 18.3999 8.96014C18.3999 9.13687 18.7581 9.28014 19.1999 9.28014Z" fill="black"/>
<path d="M9.91984 15.4664C10.126 15.4664 10.2932 15.2992 10.2932 15.0931C10.2932 14.8869 10.126 14.7197 9.91984 14.7197C9.71365 14.7197 9.54651 14.8869 9.54651 15.0931C9.54651 15.2992 9.71365 15.4664 9.91984 15.4664Z" fill="#00ACEA"/>
<path d="M8.85319 16.7823C9.05937 16.7823 9.22652 16.6152 9.22652 16.409C9.22652 16.2028 9.05937 16.0356 8.85319 16.0356C8.647 16.0356 8.47986 16.2028 8.47986 16.409C8.47986 16.6152 8.647 16.7823 8.85319 16.7823Z" fill="#00ACEA"/>
<path d="M10.6665 16.7823C10.8727 16.7823 11.0398 16.6152 11.0398 16.409C11.0398 16.2028 10.8727 16.0356 10.6665 16.0356C10.4603 16.0356 10.2932 16.2028 10.2932 16.409C10.2932 16.6152 10.4603 16.7823 10.6665 16.7823Z" fill="#00ACEA"/>
<path d="M23.3599 15.4664C23.5661 15.4664 23.7332 15.2992 23.7332 15.0931C23.7332 14.8869 23.5661 14.7197 23.3599 14.7197C23.1537 14.7197 22.9866 14.8869 22.9866 15.0931C22.9866 15.2992 23.1537 15.4664 23.3599 15.4664Z" fill="#00ACEA"/>
<path d="M22.2933 16.7823C22.4995 16.7823 22.6666 16.6152 22.6666 16.409C22.6666 16.2028 22.4995 16.0356 22.2933 16.0356C22.0871 16.0356 21.92 16.2028 21.92 16.409C21.92 16.6152 22.0871 16.7823 22.2933 16.7823Z" fill="#00ACEA"/>
<path d="M24.1065 16.7823C24.3127 16.7823 24.4798 16.6152 24.4798 16.409C24.4798 16.2028 24.3127 16.0356 24.1065 16.0356C23.9003 16.0356 23.7332 16.2028 23.7332 16.409C23.7332 16.6152 23.9003 16.7823 24.1065 16.7823Z" fill="#00ACEA"/>
<path d="M14.5599 12.8002C15.0901 12.8002 15.5199 12.2272 15.5199 11.5202C15.5199 10.8133 15.0901 10.2402 14.5599 10.2402C14.0297 10.2402 13.5999 10.8133 13.5999 11.5202C13.5999 12.2272 14.0297 12.8002 14.5599 12.8002Z" fill="black"/>
<path d="M14.5599 11.5199C14.7366 11.5199 14.8799 11.3766 14.8799 11.1999C14.8799 11.0232 14.7366 10.8799 14.5599 10.8799C14.3832 10.8799 14.2399 11.0232 14.2399 11.1999C14.2399 11.3766 14.3832 11.5199 14.5599 11.5199Z" fill="white"/>
<path d="M19.0398 12.8002C19.57 12.8002 19.9998 12.2272 19.9998 11.5202C19.9998 10.8133 19.57 10.2402 19.0398 10.2402C18.5096 10.2402 18.0798 10.8133 18.0798 11.5202C18.0798 12.2272 18.5096 12.8002 19.0398 12.8002Z" fill="black"/>
<path d="M19.0398 11.5199C19.2165 11.5199 19.3598 11.3766 19.3598 11.1999C19.3598 11.0232 19.2165 10.8799 19.0398 10.8799C18.8631 10.8799 18.7198 11.0232 18.7198 11.1999C18.7198 11.3766 18.8631 11.5199 19.0398 11.5199Z" fill="white"/>
</g>
</g>
<defs>
<clipPath id="clip0_7710_1098">
<rect width="33" height="32" fill="white"/>
</clipPath>
</defs>
</svg>
