<svg width="33" height="32" viewBox="0 0 33 32" fill="none" xmlns="http://www.w3.org/2000/svg">
<g clip-path="url(#clip0_7710_1059)">
<mask id="mask0_7710_1059" style="mask-type:luminance" maskUnits="userSpaceOnUse" x="0" y="0" width="33" height="32">
<path d="M32.6 16C32.6 7.16344 25.4365 0 16.6 0C7.76342 0 0.599976 7.16344 0.599976 16C0.599976 24.8366 7.76342 32 16.6 32C25.4365 32 32.6 24.8366 32.6 16Z" fill="white"/>
</mask>
<g mask="url(#mask0_7710_1059)">
<path d="M32.6 16C32.6 7.16344 25.4365 0 16.6 0C7.76342 0 0.599976 7.16344 0.599976 16C0.599976 24.8366 7.76342 32 16.6 32C25.4365 32 32.6 24.8366 32.6 16Z" fill="#FFD1D1"/>
<path fill-rule="evenodd" clip-rule="evenodd" d="M16.6 3.83984C14.36 3.83984 11.064 5.66384 10.04 9.11984C9.69237 10.2929 9.39199 11.4188 9.10676 12.4878C8.34159 15.3558 7.68548 17.815 6.51995 19.6798C5.23995 21.7278 3.10662 23.9465 2.19995 24.7998L9.23995 33.9198H16.6H23.96L31 24.7998C30.0933 23.9465 27.96 21.7278 26.68 19.6798C25.5144 17.815 24.8583 15.3558 24.0931 12.4878C23.8079 11.4188 23.5075 10.2929 23.16 9.11984C22.136 5.66384 19.4799 3.83984 16.6 3.83984Z" fill="#E54730"/>
<path d="M16.76 16.3202C19.3226 16.3202 21.4 14.9592 21.4 13.2802C21.4 11.6013 19.3226 10.2402 16.76 10.2402C14.1974 10.2402 12.12 11.6013 12.12 13.2802C12.12 14.9592 14.1974 16.3202 16.76 16.3202Z" fill="#F4AB9B"/>
<path opacity="0.2" d="M16.6 24.3202C19.9579 24.3202 22.68 22.1712 22.68 19.5202C22.68 16.8692 19.9579 14.7202 16.6 14.7202C13.2421 14.7202 10.52 16.8692 10.52 19.5202C10.52 22.1712 13.2421 24.3202 16.6 24.3202Z" fill="black"/>
<path d="M16.6 24.64C19.9579 24.64 22.68 22.491 22.68 19.84C22.68 17.1891 19.9579 15.04 16.6 15.04C13.2421 15.04 10.52 17.1891 10.52 19.84C10.52 22.491 13.2421 24.64 16.6 24.64Z" fill="#F4AB9B"/>
<path d="M15.48 13.4398C15.7451 13.4398 15.96 13.0817 15.96 12.6398C15.96 12.198 15.7451 11.8398 15.48 11.8398C15.2149 11.8398 15 12.198 15 12.6398C15 13.0817 15.2149 13.4398 15.48 13.4398Z" fill="black"/>
<path d="M18.0401 13.4398C18.3052 13.4398 18.5201 13.0817 18.5201 12.6398C18.5201 12.198 18.3052 11.8398 18.0401 11.8398C17.775 11.8398 17.5601 12.198 17.5601 12.6398C17.5601 13.0817 17.775 13.4398 18.0401 13.4398Z" fill="black"/>
<path d="M12.76 18.7202L12.8854 18.7854C15.3084 20.0454 18.1987 20.0209 20.6 18.7202" stroke="black" stroke-width="0.8"/>
<path d="M17.566 35.4976C18.6297 36.1293 20.443 35.04 21.6162 33.0646C22.7893 31.0892 22.8781 28.9757 21.8144 28.344C20.7507 27.7123 18.9374 28.8016 17.7642 30.777C16.5911 32.7524 16.5023 34.8659 17.566 35.4976Z" fill="#F4AB9B"/>
<path d="M15.7344 35.4976C14.6707 36.1293 12.8574 35.04 11.6842 33.0646C10.511 31.0892 10.4223 28.9757 11.4859 28.344C12.5496 27.7123 14.3629 28.8016 15.5361 30.777C16.7093 32.7524 16.798 34.8658 15.7344 35.4976Z" fill="#F4AB9B"/>
</g>
</g>
<defs>
<clipPath id="clip0_7710_1059">
<rect width="33" height="32" fill="white"/>
</clipPath>
</defs>
</svg>
