<svg width="33" height="32" viewBox="0 0 33 32" fill="none" xmlns="http://www.w3.org/2000/svg">
<g clip-path="url(#clip0_7710_1126)">
<mask id="mask0_7710_1126" style="mask-type:luminance" maskUnits="userSpaceOnUse" x="0" y="0" width="33" height="32">
<path d="M32.8 16C32.8 7.16344 25.6366 0 16.8 0C7.96349 0 0.800049 7.16344 0.800049 16C0.800049 24.8366 7.96349 32 16.8 32C25.6366 32 32.8 24.8366 32.8 16Z" fill="white"/>
</mask>
<g mask="url(#mask0_7710_1126)">
<path d="M32.8 16C32.8 7.16344 25.6366 0 16.8 0C7.96349 0 0.800049 7.16344 0.800049 16C0.800049 24.8366 7.96349 32 16.8 32C25.6366 32 32.8 24.8366 32.8 16Z" fill="#FFD1D1"/>
<path fill-rule="evenodd" clip-rule="evenodd" d="M13.7599 4.03725C13.8413 3.85989 13.8599 3.68772 13.8027 3.53439C13.602 2.99631 12.544 2.89408 11.4396 3.30605C10.3352 3.71802 9.60265 4.48819 9.80337 5.02626C10.0041 5.56434 11.0621 5.66657 12.1665 5.2546C12.5317 5.11835 12.8563 4.94291 13.1199 4.74965V7.84011C13.1199 8.01684 13.2632 8.16011 13.4399 8.16011C13.6167 8.16011 13.7599 8.01684 13.7599 7.84011V4.03725Z" fill="black"/>
<path fill-rule="evenodd" clip-rule="evenodd" d="M19.7662 4.03725C19.6848 3.85989 19.6662 3.68772 19.7234 3.53439C19.9241 2.99631 20.9821 2.89408 22.0865 3.30605C23.1909 3.71802 23.9235 4.48819 23.7227 5.02626C23.522 5.56434 22.464 5.66657 21.3596 5.2546C20.9944 5.11835 20.6698 4.94291 20.4062 4.74965V7.84011C20.4062 8.01684 20.2629 8.16011 20.0862 8.16011C19.9095 8.16011 19.7662 8.01684 19.7662 7.84011V4.03725Z" fill="black"/>
<path d="M16.8 39.3602C20.1579 39.3602 22.88 36.6381 22.88 33.2802C22.88 29.9223 20.1579 27.2002 16.8 27.2002C13.4421 27.2002 10.72 29.9223 10.72 33.2802C10.72 36.6381 13.4421 39.3602 16.8 39.3602Z" stroke="black" stroke-width="1.92"/>
<path d="M16.6399 35.5198C19.0258 35.5198 20.9599 34.0155 20.9599 32.1598C20.9599 30.3041 19.0258 28.7998 16.6399 28.7998C14.254 28.7998 12.3199 30.3041 12.3199 32.1598C12.3199 34.0155 14.254 35.5198 16.6399 35.5198Z" fill="#78A5CE"/>
<path d="M16.6399 31.6801C19.0258 31.6801 20.9599 30.1042 20.9599 28.1601C20.9599 26.2161 19.0258 24.6401 16.6399 24.6401C14.254 24.6401 12.3199 26.2161 12.3199 28.1601C12.3199 30.1042 14.254 31.6801 16.6399 31.6801Z" fill="#8BBFEF"/>
<path d="M16.96 26.5602C18.4622 26.5602 19.68 25.9155 19.68 25.1202C19.68 24.3249 18.4622 23.6802 16.96 23.6802C15.4578 23.6802 14.24 24.3249 14.24 25.1202C14.24 25.9155 15.4578 26.5602 16.96 26.5602Z" fill="#78A5CE"/>
<path d="M5.92004 14.9335C5.92004 11.3232 8.39711 8.18446 11.9086 7.34532C13.4278 6.98226 14.8031 6.17152 15.8565 5.01804L16.203 4.63853C16.4401 4.37886 16.8469 4.37231 17.0923 4.62421L17.6528 5.19969C18.6664 6.24026 19.9364 6.99518 21.3348 7.38833C24.898 8.39011 27.36 11.6397 27.36 15.3411V16.1618C27.36 21.1158 23.4939 25.2088 18.5481 25.491L16.64 25.5999L15.107 25.5124C9.95064 25.2182 5.92004 20.951 5.92004 15.7863V14.9335Z" fill="#8BBFEF"/>
<path d="M22.56 15.6799C22.56 12.4988 19.9812 9.91992 16.8 9.91992C13.6188 9.91992 11.04 12.4988 11.04 15.6799C11.04 18.8611 13.6188 21.4399 16.8 21.4399C19.9812 21.4399 22.56 18.8611 22.56 15.6799Z" fill="#FEFEFC"/>
<path d="M20.6401 15.6798C20.6401 13.5591 18.9209 11.8398 16.8001 11.8398C14.6793 11.8398 12.9601 13.5591 12.9601 15.6798C12.9601 17.8006 14.6793 19.5198 16.8001 19.5198C18.9209 19.5198 20.6401 17.8006 20.6401 15.6798Z" fill="#152540"/>
<path d="M16.4801 14.0799C16.4801 13.7265 16.1936 13.4399 15.8401 13.4399C15.4866 13.4399 15.2001 13.7265 15.2001 14.0799C15.2001 14.4334 15.4866 14.7199 15.8401 14.7199C16.1936 14.7199 16.4801 14.4334 16.4801 14.0799Z" fill="white"/>
<mask id="mask1_7710_1126" style="mask-type:luminance" maskUnits="userSpaceOnUse" x="14" y="22" width="6" height="3">
<path d="M14.5601 22.0801H19.0401C19.0401 23.3172 18.0372 24.3201 16.8001 24.3201C15.5629 24.3201 14.5601 23.3172 14.5601 22.0801Z" fill="white"/>
</mask>
<g mask="url(#mask1_7710_1126)">
<path d="M14.5601 22.0801H19.0401V22.4001C19.0401 23.4605 18.1804 24.3201 17.1201 24.3201H16.4801C15.4197 24.3201 14.5601 23.4605 14.5601 22.4001V22.0801Z" fill="#A64252"/>
<path d="M15.2001 22.0801H18.4001C18.4001 22.4336 18.1135 22.7201 17.7601 22.7201H15.8401C15.4866 22.7201 15.2001 22.4336 15.2001 22.0801Z" fill="white"/>
<path d="M17.44 23.3599H16.16C15.4531 23.3599 14.88 23.9329 14.88 24.6399C14.88 25.3468 15.4531 25.9199 16.16 25.9199H17.44C18.1469 25.9199 18.72 25.3468 18.72 24.6399C18.72 23.9329 18.1469 23.3599 17.44 23.3599Z" fill="#C95F62"/>
</g>
</g>
</g>
<defs>
<clipPath id="clip0_7710_1126">
<rect width="33" height="32" fill="white"/>
</clipPath>
</defs>
</svg>
