<svg width="40" height="32" viewBox="0 0 40 32" fill="none" xmlns="http://www.w3.org/2000/svg">
<g clip-path="url(#clip0_7730_4101)">
<path d="M4 1H36C37.6569 1 39 2.34315 39 4V28C39 29.6569 37.6569 31 36 31H4C2.34315 31 1 29.6569 1 28V4C1 2.34315 2.34315 1 4 1Z" stroke="#E1191A" stroke-width="2"/>
<g filter="url(#filter0_d_7730_4101)">
<path d="M28.6799 42.4803C34.0702 42.4803 38.4399 37.9673 38.4399 32.4003C38.4399 26.8333 34.0702 22.3203 28.6799 22.3203C23.2896 22.3203 18.9199 26.8333 18.9199 32.4003C18.9199 37.9673 23.2896 42.4803 28.6799 42.4803Z" fill="#EC6A00"/>
<path d="M35.88 25.04C35.88 26.1888 30.92 30.32 28.68 30.32C26.44 30.32 21.48 26.1888 21.48 25.04C21.48 23.8912 24.7035 22.96 28.68 22.96C32.6564 22.96 35.88 23.8912 35.88 25.04Z" fill="#198FCF"/>
<path d="M28.52 26.48C34.8823 26.48 40.04 21.8954 40.04 16.24C40.04 10.5846 34.8823 6 28.52 6C22.1577 6 17 10.5846 17 16.24C17 21.8954 22.1577 26.48 28.52 26.48Z" fill="#EC6A00"/>
<path d="M22.5999 4.08018C25.7999 1.26418 26.7066 4.61351 26.7599 6.64018L19.56 12.0802C19.24 10.5869 19.4 6.89618 22.5999 4.08018Z" fill="#EC6A00"/>
<path d="M24.36 7.1199C24.0933 6.21324 23.304 5.0399 22.28 7.5999C21.256 10.1599 23.24 8.34657 24.36 7.1199Z" fill="#C33A1D"/>
<path d="M34.4857 4.08018C31.2857 1.26418 30.379 4.61351 30.3257 6.64018L37.5257 12.0802C37.8457 10.5869 37.6857 6.89618 34.4857 4.08018Z" fill="#EC6A00"/>
<path d="M32.7256 7.1199C32.9922 6.21324 33.7816 5.0399 34.8056 7.5999C35.8296 10.1599 33.8456 8.34657 32.7256 7.1199Z" fill="#C33A1D"/>
<path d="M24.7718 13.3068C25.8781 13.6166 26.9486 13.2468 27.1631 12.481C27.3775 11.7151 26.6546 10.8432 25.5484 10.5335C24.4422 10.2237 23.3716 10.5935 23.1571 11.3593C22.9427 12.1252 23.6656 12.9971 24.7718 13.3068Z" fill="white"/>
<path d="M32.5795 13.1745C31.4733 13.4842 30.4027 13.1145 30.1882 12.3487C29.9738 11.5828 30.6967 10.7109 31.8029 10.4012C32.9092 10.0914 33.9797 10.4612 34.1942 11.227C34.4086 11.9928 33.6857 12.8648 32.5795 13.1745Z" fill="white"/>
<path d="M24.5595 16.1892C25.244 16.3657 25.8883 16.162 25.9987 15.7341C26.109 15.3063 25.6435 14.8164 24.9589 14.6399C24.2744 14.4634 23.6301 14.6671 23.5197 15.095C23.4094 15.5228 23.8749 16.0127 24.5595 16.1892Z" fill="black"/>
<path d="M33.0389 15.8689C32.3544 16.0454 31.71 15.8417 31.5997 15.4138C31.4894 14.986 31.9549 14.4961 32.6394 14.3196C33.324 14.1431 33.9683 14.3468 34.0786 14.7747C34.189 15.2025 33.7235 15.6924 33.0389 15.8689Z" fill="black"/>
<path d="M28.68 18.8004C29.4753 18.8004 30.12 18.3706 30.12 17.8404C30.12 17.3102 29.4753 16.8804 28.68 16.8804C27.8847 16.8804 27.24 17.3102 27.24 17.8404C27.24 18.3706 27.8847 18.8004 28.68 18.8004Z" fill="#D9D9D9"/>
<path d="M36.84 20.2403C36.84 22.9796 33.115 25.2003 28.52 25.2003C23.925 25.2003 20.2 22.9796 20.2 20.2403C20.2 18.8989 21.2153 17.5454 22.76 17.0403C23.7158 16.7277 24.5541 17.2971 25.8 17.0403C26.6523 16.8646 27.8875 15.2803 28.84 15.2803C29.9739 15.2803 30.4149 16.7954 31.4 17.0403C32.3569 17.2782 33.7034 16.8095 34.44 17.0403C36.0178 17.5348 36.84 18.8337 36.84 20.2403Z" fill="white"/>
<path d="M28.6751 18.1602C29.4704 18.1602 30.1151 17.7304 30.1151 17.2002C30.1151 16.67 29.4704 16.2402 28.6751 16.2402C27.8798 16.2402 27.2351 16.67 27.2351 17.2002C27.2351 17.7304 27.8798 18.1602 28.6751 18.1602Z" fill="black"/>
<path fill-rule="evenodd" clip-rule="evenodd" d="M28.7705 18.3894C28.7826 18.358 28.7938 18.3258 28.8041 18.2927C28.8202 18.2413 28.7881 18.1883 28.7359 18.1753L28.696 18.1653C28.6869 18.163 28.6796 18.1561 28.6771 18.1469C28.6733 18.1329 28.659 18.1242 28.6448 18.1277L28.6103 18.1363C28.6004 18.1388 28.5901 18.1388 28.5802 18.1363L28.5456 18.1277C28.5315 18.1242 28.5172 18.1329 28.5133 18.1469C28.5109 18.1561 28.5036 18.163 28.4944 18.1653L28.4545 18.1753C28.4023 18.1883 28.3703 18.2413 28.3863 18.2927C28.3967 18.3258 28.4079 18.358 28.4199 18.3894C27.9825 19.2396 26.6778 19.2012 26.3188 18.2742C26.2869 18.1918 26.201 18.1387 26.1152 18.1601C26.0295 18.1815 25.9767 18.2692 26.0063 18.3525C26.4162 19.5056 27.9482 19.6275 28.5952 18.718C29.2423 19.6275 30.7743 19.5056 31.1842 18.3525C31.2138 18.2692 31.161 18.1815 31.0752 18.1601C30.9895 18.1387 30.9036 18.1918 30.8717 18.2742C30.5127 19.2012 29.2079 19.2396 28.7705 18.3894Z" fill="black"/>
</g>
<path d="M10.6696 7.864H12.6376V25H10.0216V11.008C8.98956 11.992 7.66956 12.712 6.08556 13.168V10.576C6.85356 10.384 7.64556 10.048 8.50956 9.568C9.37356 9.04 10.0936 8.488 10.6696 7.864Z" fill="black"/>
</g>
<defs>
<filter id="filter0_d_7730_4101" x="15" y="1" width="27.04" height="43.4805" filterUnits="userSpaceOnUse" color-interpolation-filters="sRGB">
<feFlood flood-opacity="0" result="BackgroundImageFix"/>
<feColorMatrix in="SourceAlpha" type="matrix" values="0 0 0 0 0 0 0 0 0 0 0 0 0 0 0 0 0 0 127 0" result="hardAlpha"/>
<feOffset/>
<feGaussianBlur stdDeviation="1"/>
<feComposite in2="hardAlpha" operator="out"/>
<feColorMatrix type="matrix" values="0 0 0 0 0 0 0 0 0 0 0 0 0 0 0 0 0 0 0.4 0"/>
<feBlend mode="normal" in2="BackgroundImageFix" result="effect1_dropShadow_7730_4101"/>
<feBlend mode="normal" in="SourceGraphic" in2="effect1_dropShadow_7730_4101" result="shape"/>
</filter>
<clipPath id="clip0_7730_4101">
<rect width="40" height="32" rx="4" fill="white"/>
</clipPath>
</defs>
</svg>
