<svg width="40" height="32" viewBox="0 0 40 32" fill="none" xmlns="http://www.w3.org/2000/svg">
<g clip-path="url(#clip0_7749_25188)">
<rect x="0.929932" y="1" width="38" height="30" rx="3" fill="#0D2BA5" fill-opacity="0.2" stroke="#0D2BA5" stroke-width="2"/>
<path d="M28.2501 36.8482C34.7008 36.8482 39.9301 33.0516 39.9301 28.3682C39.9301 23.6848 34.7008 19.8882 28.2501 19.8882C21.7994 19.8882 16.5701 23.6848 16.5701 28.3682C16.5701 33.0516 21.7994 36.8482 28.2501 36.8482Z" fill="#00ACEA"/>
<path d="M28.25 41.0083C33.8171 41.0083 38.33 37.4266 38.33 33.0083C38.33 28.59 33.8171 25.0083 28.25 25.0083C22.683 25.0083 18.17 28.59 18.17 33.0083C18.17 37.4266 22.683 41.0083 28.25 41.0083Z" fill="#9DCAE2"/>
<path d="M33.05 3.40805L31.77 5.64805L33.05 6.44805C33.2633 6.28805 33.786 5.90405 34.17 5.64805C34.65 5.32805 34.65 3.40805 34.17 3.08805C33.786 2.83205 33.2633 3.19472 33.05 3.40805Z" fill="#28B1E6"/>
<path fill-rule="evenodd" clip-rule="evenodd" d="M34.1329 3.06543C33.9939 3.16353 33.8844 3.32401 33.8844 3.57691C33.8844 3.82391 33.8042 4.25897 33.7201 4.71504C33.6255 5.22775 33.5261 5.76701 33.5302 6.09552C33.7397 5.94436 33.9731 5.77938 34.1701 5.64807C34.6501 5.32808 34.6501 3.40807 34.1701 3.08807C34.1578 3.07991 34.1454 3.07237 34.1329 3.06543Z" fill="#387AAD"/>
<path d="M23.65 3.40805L24.93 5.64805L23.65 6.44805C23.4367 6.28805 22.914 5.90405 22.53 5.64805C22.05 5.32805 22.05 3.40805 22.53 3.08805C22.914 2.83205 23.4367 3.19472 23.65 3.40805Z" fill="#28B1E6"/>
<path fill-rule="evenodd" clip-rule="evenodd" d="M22.5671 3.06543C22.7061 3.16353 22.8157 3.32401 22.8157 3.57691C22.8157 3.82391 22.8959 4.25897 22.98 4.71504C23.0745 5.22775 23.174 5.76701 23.1699 6.09552C22.9604 5.94436 22.7269 5.77938 22.53 5.64807C22.05 5.32808 22.05 3.40807 22.53 3.08807C22.5422 3.07991 22.5546 3.07237 22.5671 3.06543Z" fill="#387AAD"/>
<path d="M28.0901 23.7283C33.392 23.7283 37.6901 19.4303 37.6901 14.1283C37.6901 8.82639 33.392 4.52832 28.0901 4.52832C22.7882 4.52832 18.4901 8.82639 18.4901 14.1283C18.4901 19.4303 22.7882 23.7283 28.0901 23.7283Z" fill="#00ACEA"/>
<path fill-rule="evenodd" clip-rule="evenodd" d="M27.1929 22.7833C26.9262 22.41 26.2969 21.6953 25.9129 21.8233C25.5225 21.9535 25.4496 22.2952 25.3499 22.7626C25.3271 22.8699 25.3028 22.9838 25.2729 23.1033C25.1129 23.7433 25.2729 24.7033 25.5929 25.0233C25.8489 25.2793 26.7662 24.7033 27.1929 24.3833H28.7301C29.1568 24.7033 30.0741 25.2793 30.3301 25.0233C30.6501 24.7033 30.8101 23.7433 30.6501 23.1033C30.6202 22.9838 30.5959 22.8699 30.5731 22.7626C30.4734 22.2952 30.4005 21.9535 30.0101 21.8233C29.6261 21.6953 28.9968 22.41 28.7301 22.7833H27.1929Z" fill="#C33F3C"/>
<path fill-rule="evenodd" clip-rule="evenodd" d="M28.0901 14.1102C27.6634 14.1635 26.6181 14.1422 25.8501 13.6302C24.8901 12.9902 21.6901 11.0702 18.6501 13.1502C16.2181 14.8142 15.9301 16.6702 15.9301 18.2702C15.93 20.0302 16.6937 22.412 18.6501 23.3902C20.25 24.1902 23.1301 24.0302 24.0901 23.7102C25.1001 23.3735 25.5796 23.1318 25.9725 22.9337C26.3563 22.7402 26.6576 22.4283 27.2901 22.2702C27.7701 22.1502 28.0901 22.2702 28.0901 22.2702C28.0901 22.2702 28.4101 22.1502 28.8901 22.2702C29.5226 22.4283 29.8238 22.7402 30.2076 22.9337C30.6006 23.1318 31.0801 23.3735 32.0901 23.7102C33.0501 24.0302 35.9301 24.1902 37.5301 23.3902C39.4864 22.412 40.2501 20.0302 40.2501 18.2702C40.2501 16.6702 39.9621 14.8142 37.5301 13.1502C34.4901 11.0702 31.2901 12.9902 30.3301 13.6302C29.5621 14.1422 28.5168 14.1635 28.0901 14.1102Z" fill="#83CCEE"/>
<path fill-rule="evenodd" clip-rule="evenodd" d="M40.1439 16.889C39.9252 15.6551 39.2873 14.3526 37.53 13.1502C34.49 11.0702 31.29 12.9902 30.33 13.6302C29.562 14.1422 28.5167 14.1635 28.09 14.1102C27.6634 14.1635 26.618 14.1422 25.85 13.6302C24.89 12.9902 21.69 11.0702 18.65 13.1502C16.8927 14.3526 16.2548 15.6552 16.0361 16.889C16.3056 18.4133 17.1067 20.0585 18.65 20.8302C20.25 21.6302 23.13 21.4702 24.09 21.1502C25.1 20.8135 25.5795 20.5718 25.9725 20.3737C26.0946 20.3121 26.2084 20.2385 26.3272 20.1618C26.5816 19.9973 26.8589 19.818 27.29 19.7102C27.77 19.5902 28.09 19.7102 28.09 19.7102C28.09 19.7102 28.41 19.5902 28.89 19.7102C29.3212 19.818 29.5984 19.9973 29.8529 20.1618C29.9716 20.2385 30.0854 20.3121 30.2076 20.3737C30.6005 20.5718 31.08 20.8135 32.09 21.1502C33.05 21.4702 35.93 21.6302 37.53 20.8302C39.0734 20.0585 39.8744 18.4133 40.1439 16.889Z" fill="#A8D9F1"/>
<path d="M25.69 8.68834C26.1318 8.68834 26.49 8.54507 26.49 8.36834C26.49 8.19161 26.1318 8.04834 25.69 8.04834C25.2482 8.04834 24.89 8.19161 24.89 8.36834C24.89 8.54507 25.2482 8.68834 25.69 8.68834Z" fill="black"/>
<path d="M30.4901 8.68834C30.9319 8.68834 31.2901 8.54507 31.2901 8.36834C31.2901 8.19161 30.9319 8.04834 30.4901 8.04834C30.0482 8.04834 29.6901 8.19161 29.6901 8.36834C29.6901 8.54507 30.0482 8.68834 30.4901 8.68834Z" fill="black"/>
<path d="M21.21 14.8746C21.4162 14.8746 21.5833 14.7074 21.5833 14.5013C21.5833 14.2951 21.4162 14.1279 21.21 14.1279C21.0038 14.1279 20.8367 14.2951 20.8367 14.5013C20.8367 14.7074 21.0038 14.8746 21.21 14.8746Z" fill="#00ACEA"/>
<path d="M20.1434 16.1905C20.3495 16.1905 20.5167 16.0234 20.5167 15.8172C20.5167 15.611 20.3495 15.4438 20.1434 15.4438C19.9372 15.4438 19.77 15.611 19.77 15.8172C19.77 16.0234 19.9372 16.1905 20.1434 16.1905Z" fill="#00ACEA"/>
<path d="M21.9567 16.1905C22.1629 16.1905 22.33 16.0234 22.33 15.8172C22.33 15.611 22.1629 15.4438 21.9567 15.4438C21.7505 15.4438 21.5834 15.611 21.5834 15.8172C21.5834 16.0234 21.7505 16.1905 21.9567 16.1905Z" fill="#00ACEA"/>
<path d="M34.6501 14.8746C34.8562 14.8746 35.0234 14.7074 35.0234 14.5013C35.0234 14.2951 34.8562 14.1279 34.6501 14.1279C34.4439 14.1279 34.2767 14.2951 34.2767 14.5013C34.2767 14.7074 34.4439 14.8746 34.6501 14.8746Z" fill="#00ACEA"/>
<path d="M33.5834 16.1905C33.7896 16.1905 33.9567 16.0234 33.9567 15.8172C33.9567 15.611 33.7896 15.4438 33.5834 15.4438C33.3772 15.4438 33.2101 15.611 33.2101 15.8172C33.2101 16.0234 33.3772 16.1905 33.5834 16.1905Z" fill="#00ACEA"/>
<path d="M35.3966 16.1905C35.6028 16.1905 35.77 16.0234 35.77 15.8172C35.77 15.611 35.6028 15.4438 35.3966 15.4438C35.1905 15.4438 35.0233 15.611 35.0233 15.8172C35.0233 16.0234 35.1905 16.1905 35.3966 16.1905Z" fill="#00ACEA"/>
<path d="M25.85 12.2084C26.3802 12.2084 26.81 11.6354 26.81 10.9284C26.81 10.2215 26.3802 9.64844 25.85 9.64844C25.3198 9.64844 24.89 10.2215 24.89 10.9284C24.89 11.6354 25.3198 12.2084 25.85 12.2084Z" fill="black"/>
<path d="M25.85 10.9281C26.0268 10.9281 26.17 10.7848 26.17 10.6081C26.17 10.4314 26.0268 10.2881 25.85 10.2881C25.6733 10.2881 25.53 10.4314 25.53 10.6081C25.53 10.7848 25.6733 10.9281 25.85 10.9281Z" fill="white"/>
<path d="M30.33 12.2084C30.8602 12.2084 31.29 11.6354 31.29 10.9284C31.29 10.2215 30.8602 9.64844 30.33 9.64844C29.7998 9.64844 29.37 10.2215 29.37 10.9284C29.37 11.6354 29.7998 12.2084 30.33 12.2084Z" fill="black"/>
<path d="M30.33 10.9281C30.5067 10.9281 30.65 10.7848 30.65 10.6081C30.65 10.4314 30.5067 10.2881 30.33 10.2881C30.1533 10.2881 30.01 10.4314 30.01 10.6081C30.01 10.7848 30.1533 10.9281 30.33 10.9281Z" fill="white"/>
<path d="M4.34534 23.344L10.0813 17.32C10.7373 16.632 11.2733 16.032 11.6893 15.52C12.1213 15.008 12.4413 14.528 12.6493 14.08C12.8733 13.616 12.9853 13.128 12.9853 12.616C12.9853 11.656 12.7053 10.944 12.1453 10.48C11.6013 10.016 10.8573 9.784 9.91334 9.784C8.92134 9.784 8.15334 10.048 7.60934 10.576C7.06534 11.104 6.78534 11.888 6.76934 12.928H4.41734C4.41734 11.888 4.64934 10.984 5.11334 10.216C5.57734 9.448 6.22534 8.856 7.05734 8.44C7.90534 8.008 8.88134 7.792 9.98534 7.792C11.0733 7.792 12.0173 7.992 12.8173 8.392C13.6173 8.776 14.2333 9.328 14.6653 10.048C15.1133 10.768 15.3373 11.624 15.3373 12.616C15.3373 13.256 15.2013 13.864 14.9293 14.44C14.6733 15.016 14.2573 15.648 13.6813 16.336C13.1053 17.024 12.3293 17.88 11.3533 18.904L6.62534 23.872L6.26534 23.008H15.5053V25H4.34534V23.344Z" fill="#0D2BA5"/>
</g>
<defs>
<clipPath id="clip0_7749_25188">
<rect width="40" height="32" rx="4" fill="white"/>
</clipPath>
</defs>
</svg>
