<svg width="40" height="32" viewBox="0 0 40 32" fill="none" xmlns="http://www.w3.org/2000/svg">
<g clip-path="url(#clip0_7746_1422)">
<rect x="0.929932" y="1" width="38" height="30" rx="3" stroke="#0D2BA5" stroke-width="2"/>
<g filter="url(#filter0_d_7746_1422)">
<path d="M28.2501 36.8482C34.7008 36.8482 39.9301 33.0516 39.9301 28.3682C39.9301 23.6848 34.7008 19.8882 28.2501 19.8882C21.7994 19.8882 16.5701 23.6848 16.5701 28.3682C16.5701 33.0516 21.7994 36.8482 28.2501 36.8482Z" fill="#00ACEA"/>
<path d="M28.2502 41.0083C33.8172 41.0083 38.3302 37.4266 38.3302 33.0083C38.3302 28.59 33.8172 25.0083 28.2502 25.0083C22.6831 25.0083 18.1702 28.59 18.1702 33.0083C18.1702 37.4266 22.6831 41.0083 28.2502 41.0083Z" fill="#9DCAE2"/>
<path d="M33.05 3.40805L31.77 5.64805L33.05 6.44805C33.2633 6.28805 33.786 5.90405 34.17 5.64805C34.65 5.32805 34.65 3.40805 34.17 3.08805C33.786 2.83205 33.2633 3.19472 33.05 3.40805Z" fill="#28B1E6"/>
<path fill-rule="evenodd" clip-rule="evenodd" d="M34.1329 3.06543C33.9939 3.16353 33.8844 3.32401 33.8844 3.57691C33.8844 3.82391 33.8042 4.25897 33.7201 4.71504C33.6255 5.22775 33.5261 5.76701 33.5302 6.09552C33.7397 5.94436 33.9731 5.77938 34.1701 5.64807C34.6501 5.32808 34.6501 3.40807 34.1701 3.08807C34.1578 3.07991 34.1454 3.07237 34.1329 3.06543Z" fill="#387AAD"/>
<path d="M23.6502 3.40805L24.9302 5.64805L23.6502 6.44805C23.4369 6.28805 22.9142 5.90405 22.5302 5.64805C22.0502 5.32805 22.0502 3.40805 22.5302 3.08805C22.9142 2.83205 23.4369 3.19472 23.6502 3.40805Z" fill="#28B1E6"/>
<path fill-rule="evenodd" clip-rule="evenodd" d="M22.5673 3.06543C22.7063 3.16353 22.8159 3.32401 22.8159 3.57691C22.8159 3.82391 22.8961 4.25897 22.9802 4.71504C23.0747 5.22775 23.1742 5.76701 23.1701 6.09552C22.9606 5.94436 22.7271 5.77938 22.5302 5.64807C22.0502 5.32808 22.0502 3.40807 22.5302 3.08807C22.5424 3.07991 22.5548 3.07237 22.5673 3.06543Z" fill="#387AAD"/>
<path d="M28.0902 23.7283C33.3922 23.7283 37.6902 19.4303 37.6902 14.1283C37.6902 8.82639 33.3922 4.52832 28.0902 4.52832C22.7883 4.52832 18.4902 8.82639 18.4902 14.1283C18.4902 19.4303 22.7883 23.7283 28.0902 23.7283Z" fill="#00ACEA"/>
<path fill-rule="evenodd" clip-rule="evenodd" d="M27.193 22.7833C26.9263 22.41 26.297 21.6953 25.913 21.8233C25.5226 21.9535 25.4497 22.2952 25.35 22.7626C25.3272 22.8699 25.3029 22.9838 25.273 23.1033C25.113 23.7433 25.273 24.7033 25.593 25.0233C25.849 25.2793 26.7663 24.7033 27.193 24.3833H28.7302C29.1569 24.7033 30.0742 25.2793 30.3302 25.0233C30.6502 24.7033 30.8102 23.7433 30.6502 23.1033C30.6203 22.9838 30.596 22.8699 30.5732 22.7626C30.4735 22.2952 30.4006 21.9535 30.0102 21.8233C29.6262 21.6953 28.9969 22.41 28.7302 22.7833H27.193Z" fill="#C33F3C"/>
<path fill-rule="evenodd" clip-rule="evenodd" d="M28.0899 14.1102C27.6632 14.1635 26.6179 14.1422 25.8499 13.6302C24.8899 12.9902 21.6899 11.0702 18.6499 13.1502C16.2179 14.8142 15.93 16.6702 15.9299 18.2702C15.9299 20.0302 16.6936 22.412 18.6499 23.3902C20.2499 24.1902 23.1299 24.0302 24.0899 23.7102C25.0999 23.3735 25.5794 23.1318 25.9723 22.9337C26.3561 22.7402 26.6574 22.4283 27.2899 22.2702C27.7699 22.1502 28.0899 22.2702 28.0899 22.2702C28.0899 22.2702 28.4099 22.1502 28.8899 22.2702C29.5224 22.4283 29.8236 22.7402 30.2074 22.9337C30.6004 23.1318 31.0799 23.3735 32.0899 23.7102C33.0499 24.0302 35.9299 24.1902 37.5299 23.3902C39.4862 22.412 40.2499 20.0302 40.2499 18.2702C40.2499 16.6702 39.9619 14.8142 37.5299 13.1502C34.4899 11.0702 31.2899 12.9902 30.3299 13.6302C29.5619 14.1422 28.5166 14.1635 28.0899 14.1102Z" fill="#83CCEE"/>
<path fill-rule="evenodd" clip-rule="evenodd" d="M40.1439 16.889C39.9252 15.6551 39.2873 14.3526 37.53 13.1502C34.49 11.0702 31.29 12.9902 30.33 13.6302C29.562 14.1422 28.5167 14.1635 28.09 14.1102C27.6634 14.1635 26.618 14.1422 25.85 13.6302C24.89 12.9902 21.69 11.0702 18.65 13.1502C16.8927 14.3526 16.2548 15.6552 16.0361 16.889C16.3056 18.4133 17.1067 20.0585 18.65 20.8302C20.25 21.6302 23.13 21.4702 24.09 21.1502C25.1 20.8135 25.5795 20.5718 25.9725 20.3737C26.0946 20.3121 26.2084 20.2385 26.3272 20.1618C26.5816 19.9973 26.8589 19.818 27.29 19.7102C27.77 19.5902 28.09 19.7102 28.09 19.7102C28.09 19.7102 28.41 19.5902 28.89 19.7102C29.3212 19.818 29.5984 19.9973 29.8529 20.1618C29.9716 20.2385 30.0854 20.3121 30.2076 20.3737C30.6005 20.5718 31.08 20.8135 32.09 21.1502C33.05 21.4702 35.93 21.6302 37.53 20.8302C39.0734 20.0585 39.8744 18.4133 40.1439 16.889Z" fill="#A8D9F1"/>
<path d="M25.6901 8.68834C26.132 8.68834 26.4901 8.54507 26.4901 8.36834C26.4901 8.19161 26.132 8.04834 25.6901 8.04834C25.2483 8.04834 24.8901 8.19161 24.8901 8.36834C24.8901 8.54507 25.2483 8.68834 25.6901 8.68834Z" fill="black"/>
<path d="M30.4899 8.68834C30.9318 8.68834 31.2899 8.54507 31.2899 8.36834C31.2899 8.19161 30.9318 8.04834 30.4899 8.04834C30.0481 8.04834 29.6899 8.19161 29.6899 8.36834C29.6899 8.54507 30.0481 8.68834 30.4899 8.68834Z" fill="black"/>
<path d="M21.21 14.8746C21.4162 14.8746 21.5833 14.7074 21.5833 14.5013C21.5833 14.2951 21.4162 14.1279 21.21 14.1279C21.0038 14.1279 20.8367 14.2951 20.8367 14.5013C20.8367 14.7074 21.0038 14.8746 21.21 14.8746Z" fill="#00ACEA"/>
<path d="M20.1434 16.1905C20.3495 16.1905 20.5167 16.0234 20.5167 15.8172C20.5167 15.611 20.3495 15.4438 20.1434 15.4438C19.9372 15.4438 19.77 15.611 19.77 15.8172C19.77 16.0234 19.9372 16.1905 20.1434 16.1905Z" fill="#00ACEA"/>
<path d="M21.9566 16.1905C22.1628 16.1905 22.3299 16.0234 22.3299 15.8172C22.3299 15.611 22.1628 15.4438 21.9566 15.4438C21.7504 15.4438 21.5833 15.611 21.5833 15.8172C21.5833 16.0234 21.7504 16.1905 21.9566 16.1905Z" fill="#00ACEA"/>
<path d="M34.6499 14.8746C34.8561 14.8746 35.0233 14.7074 35.0233 14.5013C35.0233 14.2951 34.8561 14.1279 34.6499 14.1279C34.4438 14.1279 34.2766 14.2951 34.2766 14.5013C34.2766 14.7074 34.4438 14.8746 34.6499 14.8746Z" fill="#00ACEA"/>
<path d="M33.5835 16.1905C33.7897 16.1905 33.9569 16.0234 33.9569 15.8172C33.9569 15.611 33.7897 15.4438 33.5835 15.4438C33.3774 15.4438 33.2102 15.611 33.2102 15.8172C33.2102 16.0234 33.3774 16.1905 33.5835 16.1905Z" fill="#00ACEA"/>
<path d="M35.3968 16.1905C35.603 16.1905 35.7701 16.0234 35.7701 15.8172C35.7701 15.611 35.603 15.4438 35.3968 15.4438C35.1906 15.4438 35.0234 15.611 35.0234 15.8172C35.0234 16.0234 35.1906 16.1905 35.3968 16.1905Z" fill="#00ACEA"/>
<path d="M25.8501 12.2084C26.3803 12.2084 26.8101 11.6354 26.8101 10.9284C26.8101 10.2215 26.3803 9.64844 25.8501 9.64844C25.3199 9.64844 24.8901 10.2215 24.8901 10.9284C24.8901 11.6354 25.3199 12.2084 25.8501 12.2084Z" fill="black"/>
<path d="M25.85 10.9281C26.0268 10.9281 26.17 10.7848 26.17 10.6081C26.17 10.4314 26.0268 10.2881 25.85 10.2881C25.6733 10.2881 25.53 10.4314 25.53 10.6081C25.53 10.7848 25.6733 10.9281 25.85 10.9281Z" fill="white"/>
<path d="M30.3299 12.2084C30.8601 12.2084 31.2899 11.6354 31.2899 10.9284C31.2899 10.2215 30.8601 9.64844 30.3299 9.64844C29.7997 9.64844 29.3699 10.2215 29.3699 10.9284C29.3699 11.6354 29.7997 12.2084 30.3299 12.2084Z" fill="black"/>
<path d="M30.33 10.9281C30.5067 10.9281 30.65 10.7848 30.65 10.6081C30.65 10.4314 30.5067 10.2881 30.33 10.2881C30.1533 10.2881 30.01 10.4314 30.01 10.6081C30.01 10.7848 30.1533 10.9281 30.33 10.9281Z" fill="white"/>
</g>
<path d="M5.97418 20.827L10.0372 16.56C10.5018 16.0727 10.8815 15.6477 11.1762 15.285C11.4822 14.9223 11.7088 14.5823 11.8562 14.265C12.0148 13.9363 12.0942 13.5907 12.0942 13.228C12.0942 12.548 11.8958 12.0437 11.4992 11.715C11.1138 11.3863 10.5868 11.222 9.91818 11.222C9.21551 11.222 8.67151 11.409 8.28618 11.783C7.90084 12.157 7.70251 12.7123 7.69118 13.449H6.02518C6.02518 12.7123 6.18951 12.072 6.51818 11.528C6.84684 10.984 7.30584 10.5647 7.89518 10.27C8.49584 9.964 9.18718 9.811 9.96918 9.811C10.7398 9.811 11.4085 9.95267 11.9752 10.236C12.5418 10.508 12.9782 10.899 13.2842 11.409C13.6015 11.919 13.7602 12.5253 13.7602 13.228C13.7602 13.6813 13.6638 14.112 13.4712 14.52C13.2898 14.928 12.9952 15.3757 12.5872 15.863C12.1792 16.3503 11.6295 16.9567 10.9382 17.682L7.58918 21.201L7.33418 20.589H13.8792V22H5.97418V20.827Z" fill="black"/>
</g>
<defs>
<filter id="filter0_d_7746_1422" x="13.9299" y="1" width="28.3201" height="42.0083" filterUnits="userSpaceOnUse" color-interpolation-filters="sRGB">
<feFlood flood-opacity="0" result="BackgroundImageFix"/>
<feColorMatrix in="SourceAlpha" type="matrix" values="0 0 0 0 0 0 0 0 0 0 0 0 0 0 0 0 0 0 127 0" result="hardAlpha"/>
<feOffset/>
<feGaussianBlur stdDeviation="1"/>
<feComposite in2="hardAlpha" operator="out"/>
<feColorMatrix type="matrix" values="0 0 0 0 0 0 0 0 0 0 0 0 0 0 0 0 0 0 0.4 0"/>
<feBlend mode="normal" in2="BackgroundImageFix" result="effect1_dropShadow_7746_1422"/>
<feBlend mode="normal" in="SourceGraphic" in2="effect1_dropShadow_7746_1422" result="shape"/>
</filter>
<clipPath id="clip0_7746_1422">
<rect width="40" height="32" rx="4" fill="white"/>
</clipPath>
</defs>
</svg>
