<svg width="40" height="32" viewBox="0 0 40 32" fill="none" xmlns="http://www.w3.org/2000/svg">
<g clip-path="url(#clip0_7749_25218)">
<rect x="0.929932" y="1" width="38" height="30" rx="3" fill="#1B837F" fill-opacity="0.3" stroke="#1B837F" stroke-width="2"/>
<g filter="url(#filter0_d_7749_25218)">
<path d="M28.2899 34.9199C32.7965 34.9199 36.4499 32.3411 36.4499 29.1599C36.4499 25.9787 32.7965 23.3999 28.2899 23.3999C23.7832 23.3999 20.1299 25.9787 20.1299 29.1599C20.1299 32.3411 23.7832 34.9199 28.2899 34.9199Z" fill="white"/>
<path d="M27.9699 28.1996C28.5884 28.1996 29.0899 27.8414 29.0899 27.3996C29.0899 26.9578 28.5884 26.5996 27.9699 26.5996C27.3513 26.5996 26.8499 26.9578 26.8499 27.3996C26.8499 27.8414 27.3513 28.1996 27.9699 28.1996Z" fill="#D9D9D9"/>
<path fill-rule="evenodd" clip-rule="evenodd" d="M24.6236 7.27983C24.4365 6.97722 24.1352 6.64394 23.65 6.28C23.1222 5.88416 22.53 5 23.65 5C24.6949 5 27.4109 5 29.3296 6.81896C34.9511 7.37481 39.3299 11.7925 39.3299 17.16C39.3299 22.9038 34.3155 27.56 28.1299 27.56C21.9443 27.56 16.9299 22.9038 16.9299 17.16C16.9299 12.5534 20.1554 8.64632 24.6236 7.27983Z" fill="white"/>
<path fill-rule="evenodd" clip-rule="evenodd" d="M31.699 11.6199C31.5696 11.591 31.4392 11.5744 31.3297 11.5663C31.2416 11.5597 31.1699 11.4882 31.1699 11.3998C31.1699 11.3114 31.2416 11.2396 31.3298 11.2455C31.4583 11.254 31.6136 11.2729 31.7688 11.3076C31.9394 11.3458 32.1275 11.4067 32.2787 11.5064C32.3525 11.555 32.3524 11.6573 32.2899 11.7198C32.2274 11.7823 32.1248 11.7822 32.0469 11.7405C31.9529 11.6903 31.8327 11.6498 31.699 11.6199Z" fill="black"/>
<path fill-rule="evenodd" clip-rule="evenodd" d="M24.6739 11.6199C24.8033 11.591 24.9338 11.5744 25.0432 11.5663C25.1313 11.5597 25.203 11.4882 25.203 11.3998C25.203 11.3114 25.1313 11.2396 25.0432 11.2455C24.9146 11.254 24.7593 11.2729 24.6041 11.3076C24.4335 11.3458 24.2454 11.4067 24.0942 11.5064C24.0204 11.555 24.0205 11.6573 24.083 11.7198C24.1455 11.7823 24.2481 11.7822 24.326 11.7405C24.42 11.6903 24.5402 11.6498 24.6739 11.6199Z" fill="black"/>
<path d="M25.8899 21.1597H30.3699V21.7997C30.3699 23.0368 29.367 24.0397 28.1299 24.0397C26.8928 24.0397 25.8899 23.0368 25.8899 21.7997V21.1597Z" fill="#DD5874"/>
<path fill-rule="evenodd" clip-rule="evenodd" d="M30.1307 22.8077C29.7618 23.5384 29.0044 24.0396 28.1298 24.0396C27.3443 24.0396 26.6531 23.6352 26.2533 23.0233C26.6773 22.4806 27.4309 22.1196 28.2898 22.1196C29.0292 22.1196 29.6905 22.3871 30.1307 22.8077Z" fill="#EE8DA3"/>
<path d="M22.5299 19.8796C23.8554 19.8796 24.9299 19.5931 24.9299 19.2396C24.9299 18.8861 23.8554 18.5996 22.5299 18.5996C21.2044 18.5996 20.1299 18.8861 20.1299 19.2396C20.1299 19.5931 21.2044 19.8796 22.5299 19.8796Z" fill="#F6C1C9"/>
<path d="M33.7298 19.8796C35.0553 19.8796 36.1298 19.5931 36.1298 19.2396C36.1298 18.8861 35.0553 18.5996 33.7298 18.5996C32.4044 18.5996 31.3298 18.8861 31.3298 19.2396C31.3298 19.5931 32.4044 19.8796 33.7298 19.8796Z" fill="#F6C1C9"/>
<path d="M36.1299 12.52C38.3059 12.52 38.4233 12.84 38.2099 13C38.2633 13.2133 38.2739 13.672 37.8899 13.8C37.5059 13.928 37.4099 14.6 37.4099 14.92C37.4099 15.6667 37.3111 16.8102 37.0899 17.32C36.8687 17.8298 36.4499 18.92 33.8899 19.08C31.3299 19.24 30.0499 18.28 29.7299 17.64C29.4099 17 29.4099 15.4 28.6099 14.92L27.8099 14.44V13.8C28.4499 13.8 29.5699 13.2277 31.0099 13C32.4499 12.7723 33.9539 12.52 36.1299 12.52Z" fill="#56536E"/>
<path d="M31.022 17.9597C29.902 17.3197 29.902 15.7197 29.742 14.7597C29.6389 14.1411 30.2208 13.827 30.702 13.7003C30.773 13.6816 30.8419 13.667 30.906 13.6561C31.8081 13.4671 33.6452 13.1597 35.182 13.1597C37.262 13.1597 36.942 14.7597 36.942 15.8797C36.942 16.9997 36.142 17.7997 35.182 18.2797C34.222 18.7597 32.142 18.5997 31.022 17.9597Z" fill="#8CD8FE"/>
<path d="M19.7246 12.52C17.5486 12.52 17.4313 12.84 17.6446 13C17.5913 13.2133 17.5806 13.672 17.9646 13.8C18.3486 13.928 18.4446 14.6 18.4446 14.92C18.4446 15.6667 18.5434 16.8102 18.7646 17.32C18.9858 17.8298 19.4046 18.92 21.9645 19.08C24.5245 19.24 25.8045 18.28 26.1245 17.64C26.4445 17 26.4445 15.4 27.2445 14.92L28.0445 14.44V13.8C27.4045 13.8 26.2845 13.2277 24.8445 13C23.4045 12.7723 21.9005 12.52 19.7246 12.52Z" fill="#56536E"/>
<path d="M24.8325 17.9597C25.9525 17.3197 25.9525 15.7197 26.1125 14.7597C26.2156 14.1411 25.6337 13.827 25.1525 13.7003C25.0815 13.6816 25.0126 13.667 24.9485 13.6561C24.0464 13.4671 22.2093 13.1597 20.6725 13.1597C18.5925 13.1597 18.9125 14.7597 18.9125 15.8797C18.9125 16.9997 19.7125 17.7997 20.6725 18.2797C21.6325 18.7597 23.7125 18.5997 24.8325 17.9597Z" fill="#8CD8FE"/>
<path d="M25.1197 15.7196C25.2964 15.7196 25.4397 15.5763 25.4397 15.3996C25.4397 15.2229 25.2964 15.0796 25.1197 15.0796C24.943 15.0796 24.7997 15.2229 24.7997 15.3996C24.7997 15.5763 24.943 15.7196 25.1197 15.7196Z" fill="white"/>
<path fill-rule="evenodd" clip-rule="evenodd" d="M24.3943 16.7017C24.5714 16.5254 24.704 16.3345 24.7931 16.1726C24.857 16.0565 24.9955 15.9933 25.1196 16.0398C25.2437 16.0863 25.3069 16.225 25.2462 16.3429C25.1355 16.5576 24.965 16.8109 24.7329 17.0419C24.4582 17.3154 24.0898 17.5647 23.6255 17.6753C23.4965 17.706 23.376 17.6113 23.3596 17.4798C23.3432 17.3483 23.4372 17.23 23.5651 17.1953C23.9027 17.1037 24.1783 16.9167 24.3943 16.7017Z" fill="white"/>
<path d="M35.9997 16.0399C36.1764 16.0399 36.3197 15.8966 36.3197 15.7199C36.3197 15.5432 36.1764 15.3999 35.9997 15.3999C35.823 15.3999 35.6797 15.5432 35.6797 15.7199C35.6797 15.8966 35.823 16.0399 35.9997 16.0399Z" fill="white"/>
<path fill-rule="evenodd" clip-rule="evenodd" d="M35.2744 17.0215C35.4515 16.8452 35.5841 16.6543 35.6732 16.4924C35.7371 16.3763 35.8756 16.3131 35.9997 16.3596C36.1238 16.4061 36.187 16.5449 36.1263 16.6627C36.0156 16.8775 35.8451 17.1307 35.613 17.3617C35.3383 17.6352 34.9699 17.8845 34.5056 17.9951C34.3766 18.0258 34.2561 17.9311 34.2397 17.7996C34.2233 17.6681 34.3173 17.5498 34.4452 17.5151C34.7828 17.4235 35.0584 17.2365 35.2744 17.0215Z" fill="white"/>
<path d="M22.4381 34.574C21.8417 33.5162 21.6914 29.8837 21.6907 28.1997C21.6999 30.936 22.5069 33.5284 22.9093 34.4826C23.0007 34.9538 23.0344 35.6318 22.4381 34.574Z" stroke="#D9D9D9" stroke-width="0.32"/>
<path d="M34.1622 34.574C34.7586 33.5162 34.9089 29.8837 34.9096 28.1997C34.9004 30.936 34.0934 33.5284 33.691 34.4826C33.5996 34.9538 33.5659 35.6318 34.1622 34.574Z" stroke="#D9D9D9" stroke-width="0.32"/>
</g>
<path d="M9.60262 7.528C11.3306 7.528 12.6986 7.936 13.7546 8.776C14.7626 9.616 15.2906 10.768 15.2906 12.232C15.2906 14.104 14.3306 15.376 12.4586 16C13.4666 16.312 14.2346 16.792 14.7626 17.416C15.3386 18.064 15.6266 18.904 15.6266 19.912C15.6266 21.496 15.0746 22.792 13.9946 23.8C12.8426 24.808 11.3306 25.336 9.50662 25.336C7.75462 25.336 6.33862 24.88 5.28262 23.992C4.08262 22.984 3.41062 21.52 3.26662 19.6H5.90662C5.95462 20.752 6.31462 21.64 7.03462 22.264C7.65862 22.84 8.47462 23.128 9.48262 23.128C10.5866 23.128 11.4746 22.792 12.1466 22.168C12.7226 21.592 13.0346 20.896 13.0346 20.032C13.0346 19.024 12.7226 18.28 12.0986 17.8C11.5226 17.32 10.6586 17.08 9.53062 17.08H8.28262V15.112H9.50662C10.5626 15.112 11.3546 14.872 11.8826 14.416C12.4106 13.96 12.6986 13.288 12.6986 12.424C12.6986 11.56 12.4346 10.912 11.9546 10.456C11.4266 9.976 10.6346 9.76 9.62662 9.76C8.59462 9.76 7.77862 10.024 7.20262 10.552C6.62662 11.08 6.26662 11.872 6.17062 12.928H3.60262C3.74662 11.224 4.37062 9.904 5.49862 8.944C6.55462 7.984 7.92262 7.528 9.60262 7.528Z" fill="#1B837F"/>
</g>
<defs>
<filter id="filter0_d_7749_25218" x="14.9299" y="3" width="26.3999" height="34.2949" filterUnits="userSpaceOnUse" color-interpolation-filters="sRGB">
<feFlood flood-opacity="0" result="BackgroundImageFix"/>
<feColorMatrix in="SourceAlpha" type="matrix" values="0 0 0 0 0 0 0 0 0 0 0 0 0 0 0 0 0 0 127 0" result="hardAlpha"/>
<feOffset/>
<feGaussianBlur stdDeviation="1"/>
<feComposite in2="hardAlpha" operator="out"/>
<feColorMatrix type="matrix" values="0 0 0 0 0 0 0 0 0 0 0 0 0 0 0 0 0 0 0.25 0"/>
<feBlend mode="normal" in2="BackgroundImageFix" result="effect1_dropShadow_7749_25218"/>
<feBlend mode="normal" in="SourceGraphic" in2="effect1_dropShadow_7749_25218" result="shape"/>
</filter>
<clipPath id="clip0_7749_25218">
<rect width="40" height="32" rx="4" fill="white"/>
</clipPath>
</defs>
</svg>
