<svg width="40" height="32" viewBox="0 0 40 32" fill="none" xmlns="http://www.w3.org/2000/svg">
<g clip-path="url(#clip0_7726_3231)">
<rect x="-0.0700684" y="10" width="40" height="22" rx="4" fill="#9800FD"/>
<path d="M7.67284 20.0355L7.08305 18.878C7.26452 18.8629 7.52914 18.8553 7.877 18.8553C8.23995 18.8402 8.61798 18.8326 9.01122 18.8326C9.40445 18.8326 9.73711 18.8326 10.0093 18.8326C11.2192 18.8326 12.2627 19.0445 13.1398 19.4681C14.032 19.8917 14.7201 20.4667 15.204 21.1929C15.688 21.9191 15.9299 22.7438 15.9299 23.6667C15.9299 24.7409 15.6728 25.6789 15.1587 26.4809C14.6596 27.2828 13.9488 27.903 13.0263 28.3418C12.119 28.7807 11.0452 29 9.80517 29C8.83734 29 7.81655 28.8335 6.74279 28.5007C5.68422 28.1679 4.74657 27.7291 3.92993 27.1844L5.01878 25.1418C5.68422 25.6562 6.41012 26.0572 7.19647 26.3447C7.98282 26.6321 8.76929 26.7759 9.55564 26.7759C10.6294 26.7759 11.4838 26.5111 12.119 25.9816C12.7541 25.452 13.0717 24.7409 13.0717 23.8482C13.0717 23.0009 12.7617 22.3353 12.1417 21.8511C11.5368 21.3518 10.6067 21.1021 9.35148 21.1021C9.17001 21.1021 8.90539 21.1097 8.55753 21.1248C8.20967 21.1248 7.82403 21.1399 7.40063 21.1702C6.99231 21.1853 6.5916 21.208 6.19836 21.2383C5.80513 21.2686 5.46487 21.2988 5.17757 21.3291V13H15.2494V15.2695H6.47057L7.67284 14.0894V20.0355Z" fill="white"/>
<path fill-rule="evenodd" clip-rule="evenodd" d="M25.7699 2.98403C25.8513 2.80667 25.8699 2.6345 25.8127 2.48117C25.612 1.94309 24.554 1.84086 23.4496 2.25283C22.3452 2.6648 21.6127 3.43497 21.8134 3.97304C22.0141 4.51112 23.0721 4.61335 24.1765 4.20138C24.5417 4.06513 24.8663 3.88969 25.1299 3.69643V6.78689C25.1299 6.96362 25.2732 7.10689 25.4499 7.10689C25.6267 7.10689 25.7699 6.96362 25.7699 6.78689V2.98403Z" fill="black"/>
<path fill-rule="evenodd" clip-rule="evenodd" d="M31.7761 2.98403C31.6947 2.80667 31.6761 2.6345 31.7333 2.48117C31.934 1.94309 32.992 1.84086 34.0964 2.25283C35.2008 2.6648 35.9334 3.43497 35.7326 3.97304C35.5319 4.51112 34.4739 4.61335 33.3695 4.20138C33.0043 4.06513 32.6797 3.88969 32.4161 3.69643V6.78689C32.4161 6.96362 32.2728 7.10689 32.0961 7.10689C31.9194 7.10689 31.7761 6.96362 31.7761 6.78689V2.98403Z" fill="black"/>
<path d="M28.81 38.307C32.1679 38.307 34.89 35.5849 34.89 32.227C34.89 28.8691 32.1679 26.147 28.81 26.147C25.4521 26.147 22.73 28.8691 22.73 32.227C22.73 35.5849 25.4521 38.307 28.81 38.307Z" stroke="black" stroke-width="1.92"/>
<path d="M28.6498 34.4666C31.0357 34.4666 32.9698 32.9623 32.9698 31.1066C32.9698 29.2509 31.0357 27.7466 28.6498 27.7466C26.264 27.7466 24.3298 29.2509 24.3298 31.1066C24.3298 32.9623 26.264 34.4666 28.6498 34.4666Z" fill="#78A5CE"/>
<path d="M28.6498 30.6269C31.0357 30.6269 32.9698 29.051 32.9698 27.1069C32.9698 25.1629 31.0357 23.5869 28.6498 23.5869C26.264 23.5869 24.3298 25.1629 24.3298 27.1069C24.3298 29.051 26.264 30.6269 28.6498 30.6269Z" fill="#8BBFEF"/>
<path d="M28.97 25.507C30.4722 25.507 31.69 24.8622 31.69 24.067C31.69 23.2717 30.4722 22.627 28.97 22.627C27.4678 22.627 26.25 23.2717 26.25 24.067C26.25 24.8622 27.4678 25.507 28.97 25.507Z" fill="#78A5CE"/>
<path d="M17.9299 13.8803C17.9299 10.27 20.407 7.13124 23.9185 6.2921C25.4377 5.92904 26.813 5.1183 27.8664 3.96482L28.2129 3.58531C28.45 3.32564 28.8568 3.31909 29.1022 3.57099L29.6627 4.14647C30.6763 5.18704 31.9463 5.94196 33.3447 6.33511C36.9079 7.33689 39.3699 10.5865 39.3699 14.2879V15.1086C39.3699 20.0626 35.5038 24.1556 30.558 24.4378L28.6499 24.5467L27.1169 24.4592C21.9605 24.165 17.9299 19.8978 17.9299 14.7331V13.8803Z" fill="#8BBFEF"/>
<path d="M34.57 14.6267C34.57 11.4455 31.9912 8.8667 28.81 8.8667C25.6289 8.8667 23.05 11.4455 23.05 14.6267C23.05 17.8079 25.6289 20.3867 28.81 20.3867C31.9912 20.3867 34.57 17.8079 34.57 14.6267Z" fill="#FEFEFC"/>
<path d="M32.6502 14.6266C32.6502 12.5058 30.931 10.7866 28.8102 10.7866C26.6894 10.7866 24.9702 12.5058 24.9702 14.6266C24.9702 16.7474 26.6894 18.4666 28.8102 18.4666C30.931 18.4666 32.6502 16.7474 32.6502 14.6266Z" fill="#152540"/>
<path d="M28.4902 13.0267C28.4902 12.6733 28.2037 12.3867 27.8502 12.3867C27.4967 12.3867 27.2102 12.6733 27.2102 13.0267C27.2102 13.3802 27.4967 13.6667 27.8502 13.6667C28.2037 13.6667 28.4902 13.3802 28.4902 13.0267Z" fill="white"/>
<mask id="mask0_7726_3231" style="mask-type:luminance" maskUnits="userSpaceOnUse" x="26" y="21" width="6" height="3">
<path d="M26.5701 21.0269H31.0501C31.0501 22.264 30.0472 23.2669 28.8101 23.2669C27.5729 23.2669 26.5701 22.264 26.5701 21.0269Z" fill="white"/>
</mask>
<g mask="url(#mask0_7726_3231)">
<path d="M26.5701 21.0269H31.0501V21.3469C31.0501 22.4073 30.1904 23.2669 29.1301 23.2669H28.4901C27.4297 23.2669 26.5701 22.4073 26.5701 21.3469V21.0269Z" fill="#A64252"/>
<path d="M27.21 21.0269H30.41C30.41 21.3804 30.1234 21.6669 29.77 21.6669H27.85C27.4965 21.6669 27.21 21.3804 27.21 21.0269Z" fill="white"/>
<path d="M29.4499 22.3066H28.1699C27.463 22.3066 26.8899 22.8797 26.8899 23.5866C26.8899 24.2936 27.463 24.8666 28.1699 24.8666H29.4499C30.1568 24.8666 30.7299 24.2936 30.7299 23.5866C30.7299 22.8797 30.1568 22.3066 29.4499 22.3066Z" fill="#C95F62"/>
</g>
</g>
<defs>
<clipPath id="clip0_7726_3231">
<rect width="40" height="32" rx="4" fill="white"/>
</clipPath>
</defs>
</svg>
