<svg width="126" height="172" viewBox="0 0 126 172" fill="none" xmlns="http://www.w3.org/2000/svg">
<rect x="1.65297" y="1.65297" width="122.319" height="168.602" rx="14.8767" fill="white" stroke="#8F8F8F" stroke-width="3.30593"/>
<path d="M119.014 155.373C119.014 160.851 114.573 165.291 109.096 165.291H16.5303C11.0528 165.291 6.6123 160.851 6.6123 155.373V106.359L119.014 41.392V155.373Z" fill="#F2F2F2"/>
<path d="M13.0975 56.3059V23.2043H8.45993L10.0428 17.4282H18.8736V56.3059H13.0975ZM40.0685 57.0279C37.7729 57.0279 35.6994 56.5096 33.8481 55.4728C32.0152 54.4176 30.4324 52.9643 29.0994 51.113C27.7665 49.2616 26.7482 47.1234 26.0447 44.6981C25.3412 42.2544 24.9895 39.644 24.9895 36.867C24.9895 34.09 25.3412 31.4797 26.0447 29.0359C26.7482 26.5922 27.7665 24.4539 29.0994 22.6211C30.4324 20.7698 32.0152 19.3258 33.8481 18.289C35.6994 17.2338 37.7729 16.7061 40.0685 16.7061C42.3271 16.7061 44.3821 17.2338 46.2334 18.289C48.0847 19.3258 49.6583 20.7698 50.9543 22.6211C52.2687 24.4539 53.2777 26.5922 53.9812 29.0359C54.6847 31.4797 55.0364 34.09 55.0364 36.867C55.0364 39.644 54.6847 42.2544 53.9812 44.6981C53.2777 47.1234 52.2687 49.2616 50.9543 51.113C49.6583 52.9643 48.0847 54.4176 46.2334 55.4728C44.3821 56.5096 42.3271 57.0279 40.0685 57.0279ZM40.0685 51.2518C42.1975 51.2518 43.9655 50.5853 45.3725 49.2524C46.7981 47.9009 47.8626 46.1329 48.5661 43.9483C49.2696 41.7638 49.6213 39.4033 49.6213 36.867C49.6213 34.2011 49.2511 31.7852 48.5105 29.6191C47.7885 27.4345 46.7147 25.7036 45.2892 24.4262C43.8822 23.1302 42.142 22.4823 40.0685 22.4823C38.4208 22.4823 36.986 22.871 35.7642 23.6486C34.5608 24.4262 33.5611 25.4907 32.765 26.8421C31.9875 28.1936 31.3951 29.7302 30.9878 31.4519C30.599 33.1736 30.4046 34.9787 30.4046 36.867C30.4046 39.4033 30.7656 41.7638 31.4876 43.9483C32.2096 46.1329 33.2834 47.9009 34.7089 49.2524C36.153 50.5853 37.9395 51.2518 40.0685 51.2518Z" fill="#1A1A1A"/>
<g clip-path="url(#clip0_7798_26357)">
<path d="M13.2236 83.4631C13.2236 88.4914 17.1802 92.3832 22.2107 92.3832C25.0097 92.3832 27.8725 91.4569 29.1144 88.9958H29.3245C29.3245 91.7935 26.2516 94.1084 25.0097 95.4125C23.4948 96.9896 24.4206 99.1779 26.3782 99.1779H39.7411C41.6781 99.1779 42.6039 96.9896 41.0881 95.4125C39.8471 94.1084 36.7742 91.7935 36.7742 88.9958H37.0059C38.2262 91.4569 41.1097 92.3832 43.888 92.3832C48.9176 92.3832 52.8948 88.4914 52.8948 83.4631C52.8948 78.4143 49.0649 74.1436 44.0353 74.1436C42.0616 74.1501 40.1453 74.8084 38.5845 76.016C41.1941 73.8914 42.1199 71.2202 42.1199 68.8219C42.1215 67.6308 41.8881 66.4511 41.4328 65.3503C40.9776 64.2495 40.3095 63.2493 39.4669 62.407C38.6243 61.5647 37.6238 60.8969 36.5225 60.4417C35.4213 59.9866 34.241 59.7531 33.0493 59.7546C28.0619 59.7546 23.9994 63.7937 23.9994 68.8219C23.9994 71.2202 24.9046 73.8914 27.5142 76.016C25.9786 74.7953 23.9788 74.1436 22.0634 74.1436C17.0329 74.1436 13.2236 78.4143 13.2236 83.4631V83.4631Z" fill="#1A1A1A"/>
</g>
<g clip-path="url(#clip1_7798_26357)">
<path d="M49.5889 125.882C49.5889 134.262 56.1831 140.748 64.5673 140.748C69.2323 140.748 74.0036 139.205 76.0734 135.103H76.4236C76.4236 139.766 71.3021 143.624 69.2323 145.797C66.7075 148.426 68.2505 152.073 71.5132 152.073H93.7847C97.0129 152.073 98.556 148.426 96.0297 145.797C93.9613 143.624 88.8398 139.766 88.8398 135.103H89.2259C91.2598 139.205 96.0656 140.748 100.696 140.748C109.079 140.748 115.707 134.262 115.707 125.882C115.707 117.467 109.324 110.349 100.942 110.349C97.6521 110.36 94.4583 111.457 91.857 113.47C96.2063 109.929 97.7493 105.477 97.7493 101.48C97.752 99.4944 97.3629 97.5281 96.6042 95.6935C95.8454 93.8589 94.732 92.1919 93.3277 90.7881C91.9234 89.3842 90.2557 88.2712 88.4203 87.5126C86.5849 86.754 84.6178 86.3649 82.6317 86.3674C74.3194 86.3674 67.5486 93.0992 67.5486 101.48C67.5486 105.477 69.0572 109.929 73.4064 113.47C70.8472 111.435 67.5141 110.349 64.3218 110.349C55.9376 110.349 49.5889 117.467 49.5889 125.882V125.882Z" fill="#1A1A1A"/>
</g>
<defs>
<clipPath id="clip0_7798_26357">
<rect width="39.6712" height="39.6712" fill="white" transform="translate(13.2236 59.5067)"/>
</clipPath>
<clipPath id="clip1_7798_26357">
<rect width="66.1186" height="66.1186" fill="white" transform="translate(49.5889 85.9542)"/>
</clipPath>
</defs>
</svg>
