<svg width="126" height="172" viewBox="0 0 126 172" fill="none" xmlns="http://www.w3.org/2000/svg">
<rect x="1.65297" y="1.65297" width="122.319" height="168.602" rx="14.8767" fill="white" stroke="#8F8F8F" stroke-width="3.30593"/>
<path d="M119.014 155.373C119.014 160.851 114.573 165.291 109.096 165.291H16.5303C11.0528 165.291 6.6123 160.851 6.6123 155.373V106.359L119.014 41.392V155.373Z" fill="#F2F2F2"/>
<path d="M31.1854 57.0279C28.7046 57.0279 26.4367 56.417 24.3818 55.1951C22.3268 53.9547 20.6791 52.3071 19.4387 50.2521C18.2169 48.1786 17.6059 45.8922 17.6059 43.3929C17.6059 42.06 17.7633 40.8566 18.078 39.7829C18.3928 38.7091 18.8741 37.5798 19.5221 36.3949L30.4634 17.4282H37.1837L29.6025 30.5355C31.1391 30.2393 32.6387 30.23 34.1012 30.5077C35.5823 30.7669 36.9708 31.276 38.2667 32.0351C39.5626 32.7756 40.7012 33.7198 41.6824 34.8676C42.6821 35.9969 43.4596 37.2836 44.015 38.7276C44.5704 40.1716 44.8481 41.7268 44.8481 43.3929C44.8481 45.2628 44.4871 47.0215 43.7651 48.6692C43.0616 50.3169 42.0804 51.7702 40.8215 53.0291C39.5811 54.2695 38.1278 55.2507 36.4617 55.9727C34.814 56.6762 33.0552 57.0279 31.1854 57.0279ZM31.1854 51.2518C32.7035 51.2518 34.0549 50.8815 35.2398 50.141C36.4246 49.4005 37.3595 48.4285 38.0445 47.2252C38.7295 46.0218 39.072 44.7444 39.072 43.3929C39.072 41.9674 38.7203 40.6622 38.0168 39.4774C37.3318 38.2925 36.3969 37.3484 35.212 36.6449C34.0272 35.9229 32.7035 35.5618 31.2409 35.5618C29.7228 35.5618 28.3714 35.9321 27.1865 36.6726C26.0017 37.4132 25.0668 38.3759 24.3818 39.5607C23.7153 40.7455 23.3821 42.023 23.3821 43.3929C23.3821 44.8925 23.7431 46.2347 24.4651 47.4196C25.2056 48.6044 26.1683 49.5393 27.3531 50.2243C28.538 50.9093 29.8154 51.2518 31.1854 51.2518Z" fill="#1A1A1A"/>
<g clip-path="url(#clip0_7798_26353)">
<path d="M13.2236 83.4631C13.2236 88.4914 17.1802 92.3832 22.2107 92.3832C25.0097 92.3832 27.8725 91.4569 29.1144 88.9958H29.3245C29.3245 91.7935 26.2516 94.1084 25.0097 95.4125C23.4948 96.9896 24.4206 99.1779 26.3782 99.1779H39.7411C41.6781 99.1779 42.6039 96.9896 41.0881 95.4125C39.8471 94.1084 36.7742 91.7935 36.7742 88.9958H37.0059C38.2262 91.4569 41.1097 92.3832 43.888 92.3832C48.9176 92.3832 52.8948 88.4914 52.8948 83.4631C52.8948 78.4143 49.0649 74.1436 44.0353 74.1436C42.0616 74.1501 40.1453 74.8084 38.5845 76.016C41.1941 73.8914 42.1199 71.2202 42.1199 68.8219C42.1215 67.6308 41.8881 66.4511 41.4328 65.3503C40.9776 64.2495 40.3095 63.2493 39.4669 62.407C38.6243 61.5647 37.6238 60.8969 36.5225 60.4417C35.4213 59.9866 34.241 59.7531 33.0493 59.7546C28.0619 59.7546 23.9994 63.7937 23.9994 68.8219C23.9994 71.2202 24.9046 73.8914 27.5142 76.016C25.9786 74.7953 23.9788 74.1436 22.0634 74.1436C17.0329 74.1436 13.2236 78.4143 13.2236 83.4631V83.4631Z" fill="#1A1A1A"/>
</g>
<g clip-path="url(#clip1_7798_26353)">
<path d="M49.5889 125.882C49.5889 134.262 56.1831 140.748 64.5673 140.748C69.2323 140.748 74.0036 139.205 76.0734 135.103H76.4236C76.4236 139.766 71.3021 143.624 69.2323 145.797C66.7075 148.426 68.2505 152.073 71.5132 152.073H93.7847C97.0129 152.073 98.556 148.426 96.0297 145.797C93.9613 143.624 88.8398 139.766 88.8398 135.103H89.2259C91.2598 139.205 96.0656 140.748 100.696 140.748C109.079 140.748 115.707 134.262 115.707 125.882C115.707 117.467 109.324 110.349 100.942 110.349C97.6521 110.36 94.4583 111.457 91.857 113.47C96.2063 109.929 97.7493 105.477 97.7493 101.48C97.752 99.4944 97.3629 97.5281 96.6042 95.6935C95.8454 93.8589 94.732 92.1919 93.3277 90.7881C91.9234 89.3842 90.2557 88.2712 88.4203 87.5126C86.5849 86.754 84.6178 86.3649 82.6317 86.3674C74.3194 86.3674 67.5486 93.0992 67.5486 101.48C67.5486 105.477 69.0572 109.929 73.4064 113.47C70.8472 111.435 67.5141 110.349 64.3218 110.349C55.9376 110.349 49.5889 117.467 49.5889 125.882V125.882Z" fill="#1A1A1A"/>
</g>
<defs>
<clipPath id="clip0_7798_26353">
<rect width="39.6712" height="39.6712" fill="white" transform="translate(13.2236 59.5067)"/>
</clipPath>
<clipPath id="clip1_7798_26353">
<rect width="66.1186" height="66.1186" fill="white" transform="translate(49.5889 85.9542)"/>
</clipPath>
</defs>
</svg>
