<svg width="126" height="172" viewBox="0 0 126 172" fill="none" xmlns="http://www.w3.org/2000/svg">
<rect x="1.65297" y="1.65297" width="122.319" height="168.602" rx="14.8767" fill="white" stroke="#8F8F8F" stroke-width="3.30593"/>
<path d="M119.014 155.373C119.014 160.851 114.573 165.291 109.096 165.291H16.5303C11.0528 165.291 6.6123 160.851 6.6123 155.373V106.359L119.014 41.392V155.373Z" fill="#F2F2F2"/>
<path d="M30.8746 57.0279C28.5234 57.0279 26.3851 56.491 24.4597 55.4173C22.5344 54.3435 20.9978 52.9087 19.8499 51.113C18.7206 49.2987 18.156 47.2807 18.156 45.0591C18.156 43.1893 18.6188 41.4491 19.5445 39.8384C20.4701 38.2278 21.7013 36.8948 23.2379 35.8395C21.9975 34.9139 20.9885 33.7476 20.211 32.3405C19.4334 30.9335 19.0446 29.4155 19.0446 27.7863C19.0446 25.7498 19.5722 23.8985 20.6275 22.2323C21.7013 20.5476 23.136 19.2054 24.9318 18.2057C26.7276 17.206 28.7085 16.7061 30.8746 16.7061C33.0406 16.7061 35.0215 17.206 36.8173 18.2057C38.6131 19.2054 40.0386 20.5476 41.0939 22.2323C42.1676 23.8985 42.7045 25.7498 42.7045 27.7863C42.7045 29.4155 42.3157 30.9335 41.5382 32.3405C40.7791 33.7476 39.7702 34.9139 38.5113 35.8395C40.0849 36.8948 41.3253 38.2278 42.2324 39.8384C43.1581 41.4491 43.6209 43.1893 43.6209 45.0591C43.6209 47.2622 43.047 49.2709 41.8992 51.0852C40.7514 52.8995 39.2148 54.3435 37.2894 55.4173C35.364 56.491 33.2257 57.0279 30.8746 57.0279ZM30.8746 51.2518C32.0964 51.2518 33.2072 50.9741 34.2069 50.4187C35.2067 49.8633 36.0027 49.1228 36.5952 48.1971C37.2061 47.2529 37.5116 46.2069 37.5116 45.0591C37.5116 43.9298 37.2061 42.9023 36.5952 41.9767C36.0027 41.0325 35.2067 40.2827 34.2069 39.7273C33.2072 39.1719 32.0964 38.8942 30.8746 38.8942C29.6712 38.8942 28.5604 39.1719 27.5422 39.7273C26.5425 40.2827 25.7371 41.0325 25.1262 41.9767C24.5338 42.9023 24.2376 43.9298 24.2376 45.0591C24.2376 46.2069 24.5338 47.2529 25.1262 48.1971C25.7371 49.1228 26.5425 49.8633 27.5422 50.4187C28.5604 50.9741 29.6712 51.2518 30.8746 51.2518ZM30.8746 33.1181C31.9298 33.1181 32.8833 32.8774 33.7349 32.3961C34.605 31.9147 35.2992 31.276 35.8176 30.48C36.336 29.6654 36.5952 28.7675 36.5952 27.7863C36.5952 26.8051 36.336 25.9165 35.8176 25.1204C35.2992 24.3243 34.605 23.6856 33.7349 23.2043C32.8833 22.7229 31.9298 22.4823 30.8746 22.4823C29.8193 22.4823 28.8566 22.7229 27.9865 23.2043C27.1349 23.6856 26.4499 24.3243 25.9315 25.1204C25.4132 25.9165 25.154 26.8051 25.154 27.7863C25.154 28.7675 25.4132 29.6654 25.9315 30.48C26.4499 31.276 27.1349 31.9147 27.9865 32.3961C28.8566 32.8774 29.8193 33.1181 30.8746 33.1181Z" fill="#1A1A1A"/>
<g clip-path="url(#clip0_7798_26355)">
<path d="M13.2236 83.4631C13.2236 88.4914 17.1802 92.3832 22.2107 92.3832C25.0097 92.3832 27.8725 91.4569 29.1144 88.9958H29.3245C29.3245 91.7935 26.2516 94.1084 25.0097 95.4125C23.4948 96.9896 24.4206 99.1779 26.3782 99.1779H39.7411C41.6781 99.1779 42.6039 96.9896 41.0881 95.4125C39.8471 94.1084 36.7742 91.7935 36.7742 88.9958H37.0059C38.2262 91.4569 41.1097 92.3832 43.888 92.3832C48.9176 92.3832 52.8948 88.4914 52.8948 83.4631C52.8948 78.4143 49.0649 74.1436 44.0353 74.1436C42.0616 74.1501 40.1453 74.8084 38.5845 76.016C41.1941 73.8914 42.1199 71.2202 42.1199 68.8219C42.1215 67.6308 41.8881 66.4511 41.4328 65.3503C40.9776 64.2495 40.3095 63.2493 39.4669 62.407C38.6243 61.5647 37.6238 60.8969 36.5225 60.4417C35.4213 59.9866 34.241 59.7531 33.0493 59.7546C28.0619 59.7546 23.9994 63.7937 23.9994 68.8219C23.9994 71.2202 24.9046 73.8914 27.5142 76.016C25.9786 74.7953 23.9788 74.1436 22.0634 74.1436C17.0329 74.1436 13.2236 78.4143 13.2236 83.4631V83.4631Z" fill="#1A1A1A"/>
</g>
<g clip-path="url(#clip1_7798_26355)">
<path d="M49.5889 125.882C49.5889 134.262 56.1831 140.748 64.5673 140.748C69.2323 140.748 74.0036 139.205 76.0734 135.103H76.4236C76.4236 139.766 71.3021 143.624 69.2323 145.797C66.7075 148.426 68.2505 152.073 71.5132 152.073H93.7847C97.0129 152.073 98.556 148.426 96.0297 145.797C93.9613 143.624 88.8398 139.766 88.8398 135.103H89.2259C91.2598 139.205 96.0656 140.748 100.696 140.748C109.079 140.748 115.707 134.262 115.707 125.882C115.707 117.467 109.324 110.349 100.942 110.349C97.6521 110.36 94.4583 111.457 91.857 113.47C96.2063 109.929 97.7493 105.477 97.7493 101.48C97.752 99.4944 97.3629 97.5281 96.6042 95.6935C95.8454 93.8589 94.732 92.1919 93.3277 90.7881C91.9234 89.3842 90.2557 88.2712 88.4203 87.5126C86.5849 86.754 84.6178 86.3649 82.6317 86.3674C74.3194 86.3674 67.5486 93.0992 67.5486 101.48C67.5486 105.477 69.0572 109.929 73.4064 113.47C70.8472 111.435 67.5141 110.349 64.3218 110.349C55.9376 110.349 49.5889 117.467 49.5889 125.882V125.882Z" fill="#1A1A1A"/>
</g>
<defs>
<clipPath id="clip0_7798_26355">
<rect width="39.6712" height="39.6712" fill="white" transform="translate(13.2236 59.5067)"/>
</clipPath>
<clipPath id="clip1_7798_26355">
<rect width="66.1186" height="66.1186" fill="white" transform="translate(49.5889 85.9542)"/>
</clipPath>
</defs>
</svg>
