<svg width="126" height="172" viewBox="0 0 126 172" fill="none" xmlns="http://www.w3.org/2000/svg">
<rect x="1.65297" y="1.65297" width="122.319" height="168.602" rx="14.8767" fill="white" stroke="#8F8F8F" stroke-width="3.30593"/>
<path d="M119.014 155.373C119.014 160.851 114.573 165.291 109.096 165.291H16.5303C11.0528 165.291 6.6123 160.851 6.6123 155.373V106.359L119.014 41.392V155.373Z" fill="#F2F2F2"/>
<path d="M24.5166 56.3059L32.3754 42.6987C30.5056 43.0504 28.6821 42.9764 26.9048 42.4765C25.146 41.9582 23.5631 41.1158 22.1561 39.9495C20.7491 38.7646 19.6291 37.3299 18.796 35.6452C17.9629 33.9605 17.5464 32.1091 17.5464 30.0912C17.5464 28.2584 17.8888 26.5367 18.5738 24.926C19.2773 23.2968 20.24 21.8713 21.4619 20.6495C22.6838 19.4091 24.1 18.4464 25.7107 17.7614C27.3398 17.0579 29.0801 16.7061 30.9314 16.7061C33.3566 16.7061 35.5782 17.3078 37.5962 18.5112C39.6141 19.7145 41.2248 21.3344 42.4281 23.3709C43.6315 25.3888 44.2332 27.6289 44.2332 30.0912C44.2332 31.3686 44.0758 32.5349 43.7611 33.5902C43.4649 34.6454 42.9928 35.7562 42.3448 36.9226L31.2091 56.3059H24.5166ZM30.8759 37.6724C32.3569 37.6724 33.6714 37.3206 34.8192 36.6171C35.967 35.8951 36.8649 34.9602 37.5129 33.8123C38.1793 32.646 38.5126 31.3964 38.5126 30.0634C38.5126 28.6194 38.1608 27.3235 37.4573 26.1756C36.7538 25.0278 35.8189 24.1207 34.6526 23.4542C33.5047 22.7877 32.2644 22.4545 30.9314 22.4545C29.4504 22.4545 28.1359 22.8155 26.9881 23.5375C25.8403 24.2595 24.9331 25.2037 24.2667 26.37C23.6002 27.5179 23.2669 28.749 23.2669 30.0634C23.2669 31.4519 23.6002 32.7293 24.2667 33.8957C24.9516 35.0435 25.868 35.9599 27.0159 36.6449C28.1637 37.3299 29.4504 37.6724 30.8759 37.6724Z" fill="#1A1A1A"/>
<g clip-path="url(#clip0_7798_26356)">
<path d="M13.2236 83.4631C13.2236 88.4914 17.1802 92.3832 22.2107 92.3832C25.0097 92.3832 27.8725 91.4569 29.1144 88.9958H29.3245C29.3245 91.7935 26.2516 94.1084 25.0097 95.4125C23.4948 96.9896 24.4206 99.1779 26.3782 99.1779H39.7411C41.6781 99.1779 42.6039 96.9896 41.0881 95.4125C39.8471 94.1084 36.7742 91.7935 36.7742 88.9958H37.0059C38.2262 91.4569 41.1097 92.3832 43.888 92.3832C48.9176 92.3832 52.8948 88.4914 52.8948 83.4631C52.8948 78.4143 49.0649 74.1436 44.0353 74.1436C42.0616 74.1501 40.1453 74.8084 38.5845 76.016C41.1941 73.8914 42.1199 71.2202 42.1199 68.8219C42.1215 67.6308 41.8881 66.4511 41.4328 65.3503C40.9776 64.2495 40.3095 63.2493 39.4669 62.407C38.6243 61.5647 37.6238 60.8969 36.5225 60.4417C35.4213 59.9866 34.241 59.7531 33.0493 59.7546C28.0619 59.7546 23.9994 63.7937 23.9994 68.8219C23.9994 71.2202 24.9046 73.8914 27.5142 76.016C25.9786 74.7953 23.9788 74.1436 22.0634 74.1436C17.0329 74.1436 13.2236 78.4143 13.2236 83.4631V83.4631Z" fill="#1A1A1A"/>
</g>
<g clip-path="url(#clip1_7798_26356)">
<path d="M49.5889 125.882C49.5889 134.262 56.1831 140.748 64.5673 140.748C69.2323 140.748 74.0036 139.205 76.0734 135.103H76.4236C76.4236 139.766 71.3021 143.624 69.2323 145.797C66.7075 148.426 68.2505 152.073 71.5132 152.073H93.7847C97.0129 152.073 98.556 148.426 96.0297 145.797C93.9613 143.624 88.8398 139.766 88.8398 135.103H89.2259C91.2598 139.205 96.0656 140.748 100.696 140.748C109.079 140.748 115.707 134.262 115.707 125.882C115.707 117.467 109.324 110.349 100.942 110.349C97.6521 110.36 94.4583 111.457 91.857 113.47C96.2063 109.929 97.7493 105.477 97.7493 101.48C97.752 99.4944 97.3629 97.5281 96.6042 95.6935C95.8454 93.8589 94.732 92.1919 93.3277 90.7881C91.9234 89.3842 90.2557 88.2712 88.4203 87.5126C86.5849 86.754 84.6178 86.3649 82.6317 86.3674C74.3194 86.3674 67.5486 93.0992 67.5486 101.48C67.5486 105.477 69.0572 109.929 73.4064 113.47C70.8472 111.435 67.5141 110.349 64.3218 110.349C55.9376 110.349 49.5889 117.467 49.5889 125.882V125.882Z" fill="#1A1A1A"/>
</g>
<defs>
<clipPath id="clip0_7798_26356">
<rect width="39.6712" height="39.6712" fill="white" transform="translate(13.2236 59.5067)"/>
</clipPath>
<clipPath id="clip1_7798_26356">
<rect width="66.1186" height="66.1186" fill="white" transform="translate(49.5889 85.9542)"/>
</clipPath>
</defs>
</svg>
