<svg width="126" height="172" viewBox="0 0 126 172" fill="none" xmlns="http://www.w3.org/2000/svg">
<rect x="1.65297" y="1.65297" width="122.319" height="168.602" rx="14.8767" fill="white" stroke="#8F8F8F" stroke-width="3.30593"/>
<path d="M119.014 155.373C119.014 160.851 114.573 165.291 109.096 165.291H16.5303C11.0528 165.291 6.6123 160.851 6.6123 155.373V106.359L119.014 41.392V155.373Z" fill="#F2F2F2"/>
<path d="M46.6713 57.3056L42.2281 52.8902C40.673 54.1491 38.9327 55.1303 37.0074 55.8338C35.082 56.5373 33.0455 56.8891 30.898 56.8891C28.2506 56.8891 25.7698 56.3707 23.4557 55.334C21.1415 54.2787 19.1051 52.8347 17.3463 51.0019C15.5876 49.1506 14.2083 47.003 13.2086 44.5593C12.2274 42.1155 11.7368 39.5052 11.7368 36.7282C11.7368 33.9512 12.2274 31.3501 13.2086 28.9249C14.2083 26.4811 15.5876 24.3336 17.3463 22.4823C19.1051 20.6309 21.1415 19.1869 23.4557 18.1502C25.7698 17.0949 28.2506 16.5673 30.898 16.5673C33.5454 16.5673 36.0169 17.0949 38.3125 18.1502C40.6267 19.1869 42.6631 20.6309 44.4219 22.4823C46.1807 24.3336 47.5506 26.4811 48.5318 28.9249C49.5316 31.3501 50.0314 33.9512 50.0314 36.7282C50.0314 38.9868 49.6889 41.1343 49.0039 43.1708C48.3374 45.1887 47.4118 47.04 46.2269 48.7247L50.7534 53.2235L46.6713 57.3056ZM30.898 51.113C32.1939 51.113 33.4528 50.9 34.6747 50.4742C35.9151 50.0484 37.0351 49.4468 38.0348 48.6692L33.7305 44.3927L37.8127 40.2827L41.9226 44.4204C42.7002 43.3096 43.2833 42.097 43.6721 40.7826C44.0609 39.4681 44.2553 38.1167 44.2553 36.7282C44.2553 34.7473 43.9035 32.8959 43.2 31.1742C42.515 29.434 41.5524 27.9066 40.312 26.5922C39.0901 25.2592 37.6738 24.2225 36.0632 23.482C34.4525 22.7229 32.7308 22.3434 30.898 22.3434C29.0467 22.3434 27.3157 22.7229 25.705 23.482C24.0944 24.241 22.6689 25.287 21.4285 26.62C20.2066 27.9344 19.2439 29.4617 18.5404 31.202C17.8554 32.9237 17.5129 34.7658 17.5129 36.7282C17.5129 38.7091 17.8554 40.5697 18.5404 42.3099C19.2439 44.0502 20.2159 45.5868 21.4563 46.9197C22.6966 48.2341 24.1222 49.2616 25.7328 50.0022C27.3435 50.7427 29.0652 51.113 30.898 51.113Z" fill="#1A1A1A"/>
<g clip-path="url(#clip0_7798_26359)">
<path d="M13.2236 83.4631C13.2236 88.4914 17.1802 92.3832 22.2107 92.3832C25.0097 92.3832 27.8725 91.4569 29.1144 88.9958H29.3245C29.3245 91.7935 26.2516 94.1084 25.0097 95.4125C23.4948 96.9896 24.4206 99.1779 26.3782 99.1779H39.7411C41.6781 99.1779 42.6039 96.9896 41.0881 95.4125C39.8471 94.1084 36.7742 91.7935 36.7742 88.9958H37.0059C38.2262 91.4569 41.1097 92.3832 43.888 92.3832C48.9176 92.3832 52.8948 88.4914 52.8948 83.4631C52.8948 78.4143 49.0649 74.1436 44.0353 74.1436C42.0616 74.1501 40.1453 74.8084 38.5845 76.016C41.1941 73.8914 42.1199 71.2202 42.1199 68.8219C42.1215 67.6308 41.8881 66.4511 41.4328 65.3503C40.9776 64.2495 40.3095 63.2493 39.4669 62.407C38.6243 61.5647 37.6238 60.8969 36.5225 60.4417C35.4213 59.9866 34.241 59.7531 33.0493 59.7546C28.0619 59.7546 23.9994 63.7937 23.9994 68.8219C23.9994 71.2202 24.9046 73.8914 27.5142 76.016C25.9786 74.7953 23.9788 74.1436 22.0634 74.1436C17.0329 74.1436 13.2236 78.4143 13.2236 83.4631V83.4631Z" fill="#1A1A1A"/>
</g>
<path d="M74.0607 130.717H104.915C105.85 131.025 108.311 131.713 109.901 133.184C111.184 134.369 112.291 136.164 112.395 136.883V147.98C112.499 149.008 111.408 151.358 109.901 152.913C108.616 154.24 106.265 155.173 105.85 155.379H62.5293V141.815C62.3215 141.404 63.8917 137.708 65.6459 135.649C68.1078 132.76 72.5024 130.717 74.0607 130.717Z" fill="#1A1A1A"/>
<path d="M77.4492 92.8005L104.564 111.913L110.173 104.515C110.693 104.104 111.784 103.878 112.043 102.974C112.285 102.131 112.164 101.292 111.42 100.816C110.807 100.424 110.183 100.455 109.55 100.816C108.935 101.167 108.927 101.693 108.615 102.357C108.2 102.665 106.599 103.407 105.187 103.59C104.342 103.7 103.005 103.693 103.005 103.59C102.59 103.282 101.1 102.573 100.512 101.432C99.7933 100.038 100.512 97.4249 100.512 97.4249C100.512 97.4249 102.375 97.07 103.005 96.1919C103.78 95.1118 103.981 93.707 103.005 92.8005C102.444 92.2793 101.447 91.9786 101.135 92.1844C101.135 92.1844 102.087 91.1523 102.382 90.3348C102.791 89.2011 102.382 87.2521 102.382 87.2521C102.382 87.2521 101.224 87.0914 100.512 87.2521C99.1591 87.5576 97.707 89.6701 97.707 89.6701C97.0837 89.0536 95.8557 87.6763 94.5905 88.437C93.203 89.2712 93.0322 91.5675 93.0322 92.8005L88.3573 93.4175C88.1495 93.2118 87.072 92.6459 86.4873 92.1362C85.7125 91.4609 84.929 90.3348 84.929 90.3348V86.3273C85.2407 86.2246 86.2338 85.9876 86.4873 85.3544C86.8042 84.5629 86.7064 83.4416 85.864 82.9359C85.2397 82.5611 84.6074 82.5439 83.9941 82.9359C83.2498 83.4116 83.2668 84.4772 83.3707 85.0938L77.4492 92.8005Z" fill="#CE8419"/>
<path d="M68.1396 119.619C68.1396 119.126 70.2174 114.276 71.2562 111.913V120.852H68.763C68.5552 120.647 68.1396 120.113 68.1396 119.619Z" fill="#FFD3AA"/>
<path d="M88.3576 119.619C84.2485 113.446 84.0342 100.815 84.0342 100.815V100.507L103.357 113.454V128.251C102.11 128.148 99.0224 128.287 96.5006 127.326C92.2434 125.704 90.8664 123.388 88.3576 119.619Z" fill="#FFD3AA"/>
<path d="M73.4371 96.4992C74.276 95.5786 75.5148 95.1634 76.242 94.9579C78.2158 96.191 82.2258 98.7804 82.4752 99.2736C82.7245 99.7669 82.9946 104.822 83.0985 107.289C81.748 107.186 78.5483 106.795 76.5537 106.056C74.559 105.316 72.8137 104.309 72.1904 103.898V99.2736C72.1904 99.2736 72.6345 97.3799 73.4371 96.4992Z" fill="#FFC48C"/>
<path d="M55.6357 118.341C57.4926 118.284 58.7789 119.205 59.6874 120.808C60.1765 121.671 60.3105 123.263 60.3115 123.274C60.3514 123.278 62.9938 123.518 64.0107 124.46C65.5445 125.88 65.7131 127.917 64.6337 129.7C63.6849 131.267 61.8696 131.495 60.3115 131.597C60.3115 131.597 60.1139 134.753 58.7128 135.866C57.0048 137.223 54.8542 137.167 53.1025 135.866C51.6389 134.779 51.4802 132.728 51.2724 131.597C51.2305 131.595 48.521 131.462 47.4931 130.317C46.198 128.874 45.8674 127.04 46.87 125.384C47.79 123.866 51.2268 123.282 51.2724 123.274C51.2732 123.262 51.3799 121.674 51.8564 120.808C52.7021 119.272 53.8684 118.397 55.6357 118.341ZM55.6327 124.504C53.9116 124.504 52.5166 125.884 52.5165 127.587C52.5165 129.289 53.9115 130.669 55.6327 130.67C57.354 130.67 58.749 129.289 58.749 127.587C58.7489 125.884 57.3539 124.504 55.6327 124.504Z" fill="#E64F46"/>
<path d="M93.0319 136.835C95.0265 133.875 100.927 132.724 103.628 132.519C103.628 134.985 102.943 140.719 100.2 143.925C97.4575 147.131 91.7853 148.549 89.292 148.857C89.7075 146.083 91.0373 139.794 93.0319 136.835Z" fill="white"/>
<defs>
<clipPath id="clip0_7798_26359">
<rect width="39.6712" height="39.6712" fill="white" transform="translate(13.2236 59.5067)"/>
</clipPath>
</defs>
</svg>
