<svg width="24" height="24" viewBox="0 0 24 24" fill="none" xmlns="http://www.w3.org/2000/svg">
<g filter="url(#filter0_i_7773_25589)">
<path d="M0 2.66667C0 1.19391 1.19391 0 2.66667 0H21.3333C22.8061 0 24 1.19391 24 2.66667V21.3333C24 22.8061 22.8061 24 21.3333 24H2.66667C1.19391 24 0 22.8061 0 21.3333V2.66667Z" fill="url(#paint0_linear_7773_25589)"/>
<path d="M2.66699 0.133789H21.333C22.7321 0.133789 23.8662 1.26787 23.8662 2.66699V21.333C23.8662 22.7321 22.7321 23.8662 21.333 23.8662H2.66699C1.26787 23.8662 0.133789 22.7321 0.133789 21.333V2.66699C0.133789 1.26787 1.26787 0.133789 2.66699 0.133789Z" stroke="#C0C0C0" stroke-width="0.266667"/>
<path d="M8.58338 1.6004C8.61908 2.44369 8.088 2.65984 7.95252 3.49103C8.14888 3.74093 8.20398 4.14041 8.49256 4.30255C8.683 4.41674 9.03552 4.28398 9.30311 4.3924C9.46525 4.45785 9.68398 4.78407 9.84315 4.84357H10.8334C11.9459 5.11574 13.1256 5.57382 13.7133 6.37384C13.9736 6.72787 14.2296 7.26427 14.3441 7.7254C14.5431 8.53143 14.0872 9.62565 14.6146 9.9754C14.8854 10.0052 15.1554 10.035 15.4262 10.0662C16.088 10.2849 16.8673 10.6574 17.4056 11.0574C19.1786 12.3725 20.3657 15.6176 19.1166 18.3484C18.4487 19.8077 16.9448 20.9792 15.3353 21.4998C10.7538 22.9814 6.6549 18.4526 7.9535 14.118H7.77381C7.56711 14.6608 7.31446 14.3743 6.8744 14.658C6.35079 14.9957 5.68803 16.1489 5.61366 16.909C5.97959 17.0815 6.25216 17.1678 6.33436 17.5174C6.46363 18.0677 6.05442 18.5292 6.06483 18.6199C6.68666 19.2729 7.81396 19.8841 7.74256 20.8865C7.69885 21.5001 7.39264 21.7787 6.96424 22.2205C7.01331 21.8682 7.0353 21.8933 7.05799 21.6805C7.11723 21.1256 7.29303 20.8455 6.96424 20.2547C6.70324 19.7857 6.42023 19.5524 5.97401 19.3397C5.97449 19.3987 6.20395 19.6377 6.21034 19.6443C6.21034 19.6443 6.90897 20.3479 6.8744 20.9539C6.84211 21.5193 6.75778 21.8651 6.24061 22.1951C6.1466 22.2551 6.11376 22.2777 5.88319 22.4012C6.29226 21.7571 6.50253 21.403 6.29237 20.7449C6.1361 20.2558 5.83315 20.0791 5.46717 19.701C5.41661 19.6487 5.39968 19.5997 5.34315 19.5193C5.36993 19.6517 5.38463 19.6577 5.39979 19.7264C5.54112 20.3659 6.01033 20.8621 5.66053 21.3699C5.53282 21.5553 5.62141 21.4677 5.43299 21.5897C5.20299 21.7387 5.07277 21.7867 4.80213 21.8983C4.9092 21.7421 5.20195 21.3738 5.266 20.991C5.35748 20.443 4.98363 20.1977 4.80213 19.701C4.65338 19.2949 4.87309 18.8348 4.80213 18.7098C4.5894 18.3351 4.22083 18.2233 4.26893 17.6805C4.28709 17.4761 4.34788 17.2501 4.52967 17.0789C4.69155 16.9266 4.9581 16.9858 5.07264 16.8192C5.26125 16.5456 5.20197 16.2275 5.34315 15.9197C5.59305 15.3679 6.18115 14.9184 6.33436 14.2996C5.69175 14.0497 5.43664 13.2137 5.61366 12.409C5.80246 12.3005 6.05416 12.0393 6.24452 11.9588C6.66697 11.7833 7.35859 12.0458 7.5951 11.6873C7.16264 11.4628 7.12515 11.1968 6.87538 10.7879C5.69944 8.86927 6.74471 7.24873 7.43788 5.81036C7.53691 5.60464 7.39436 5.40691 7.47498 5.20099C7.57604 4.94362 7.81598 4.8332 7.86366 4.57111C7.63017 4.25879 7.69063 3.96597 7.2328 3.85138C7.11531 4.11759 7.02729 4.1582 6.69276 4.21173C6.53657 4.05703 6.44248 4.07599 6.33241 3.85138C6.69982 3.60743 7.19539 3.27081 7.50331 2.95099C7.88684 2.54927 7.97514 1.76845 8.58338 1.6004ZM8.22303 12.4031C7.26358 12.3585 5.82432 12.1333 5.97206 13.034C6.0449 13.4781 6.14688 13.7697 6.56776 13.9471C6.83747 14.0607 7.05279 14.0367 7.3412 13.9471C8.00416 13.741 8.09066 13.0784 8.22303 12.4031Z" fill="#0000CC"/>
</g>
<defs>
<filter id="filter0_i_7773_25589" x="0" y="0" width="24" height="24" filterUnits="userSpaceOnUse" color-interpolation-filters="sRGB">
<feFlood flood-opacity="0" result="BackgroundImageFix"/>
<feBlend mode="normal" in="SourceGraphic" in2="BackgroundImageFix" result="shape"/>
<feColorMatrix in="SourceAlpha" type="matrix" values="0 0 0 0 0 0 0 0 0 0 0 0 0 0 0 0 0 0 127 0" result="hardAlpha"/>
<feOffset/>
<feGaussianBlur stdDeviation="0.533334"/>
<feComposite in2="hardAlpha" operator="arithmetic" k2="-1" k3="1"/>
<feColorMatrix type="matrix" values="0 0 0 0 1 0 0 0 0 1 0 0 0 0 1 0 0 0 0.5 0"/>
<feBlend mode="normal" in2="shape" result="effect1_innerShadow_7773_25589"/>
</filter>
<linearGradient id="paint0_linear_7773_25589" x1="12" y1="0" x2="12" y2="24" gradientUnits="userSpaceOnUse">
<stop stop-color="white"/>
<stop offset="0.50216" stop-color="#F8F8F8"/>
<stop offset="0.521505" stop-color="#F6F6F6"/>
<stop offset="1" stop-color="#EFEFEF"/>
</linearGradient>
</defs>
</svg>
