<svg width="24" height="24" viewBox="0 0 24 24" fill="none" xmlns="http://www.w3.org/2000/svg">
<g filter="url(#filter0_i_7773_25565)">
<path d="M0 2.66667C0 1.19391 1.19391 0 2.66667 0H21.3333C22.8061 0 24 1.19391 24 2.66667V21.3333C24 22.8061 22.8061 24 21.3333 24H2.66667C1.19391 24 0 22.8061 0 21.3333V2.66667Z" fill="url(#paint0_linear_7773_25565)"/>
<path d="M2.66699 0.133789H21.333C22.7321 0.133789 23.8662 1.26787 23.8662 2.66699V21.333C23.8662 22.7321 22.7321 23.8662 21.333 23.8662H2.66699C1.26787 23.8662 0.133789 22.7321 0.133789 21.333V2.66699C0.133789 1.26787 1.26787 0.133789 2.66699 0.133789Z" stroke="#C0C0C0" stroke-width="0.266667"/>
<path fill-rule="evenodd" clip-rule="evenodd" d="M8.13004 4.13092C8.17518 4.38136 8.15916 4.36243 8.25089 4.49201C8.35573 4.61869 8.48677 4.74827 8.61199 4.85311C9.158 4.39592 9.24682 5.07442 9.81612 4.85311C9.81612 4.77303 9.81612 4.69295 9.81612 4.61286C9.93697 4.61286 10.0564 4.61286 10.1772 4.61286C10.1772 4.69295 10.1772 4.77303 10.1772 4.85311C9.88019 5.0089 10.0957 4.80069 9.93697 5.09335C10.0171 5.09335 10.0971 5.09335 10.1772 5.09335C10.3403 4.89825 10.2544 4.95794 10.5383 4.85311C10.5383 4.93319 10.5383 5.01327 10.5383 5.09335C10.3942 5.19819 10.4029 5.19236 10.2981 5.3336C10.3781 5.3336 10.4582 5.3336 10.5383 5.3336C10.6504 5.22294 10.7494 5.17343 10.8994 5.09335C10.8994 5.01327 10.8994 4.93319 10.8994 4.85311C10.4044 4.74973 8.19556 3.32137 8.01065 2.92533C8.1315 2.92533 8.25089 2.92533 8.37174 2.92533C8.71391 3.5223 10.7509 3.85282 10.9023 4.01007C11.5823 4.46435 11.5517 4.98706 11.9871 5.69615C12.8476 7.09685 14.308 8.58636 16.5648 8.58782C16.5095 9.65072 15.978 10.2462 15.6009 10.9975C15.6417 10.9975 15.681 10.9975 15.7218 10.9975C16.0596 10.4355 16.6187 9.16878 17.0468 8.70867C17.0468 8.74944 17.0468 8.78875 17.0468 8.82952C18.1024 9.6085 18.0951 10.0438 19.5773 10.6365C19.5773 10.7165 19.5773 10.7966 19.5773 10.8767C19.1216 11.1912 18.6324 11.8144 18.3732 12.3225C18.4533 12.3225 18.5334 12.3225 18.6134 12.3225C18.9745 11.778 19.5016 11.4853 19.8176 10.8767C19.8583 10.8767 19.8977 10.8767 19.9384 10.8767C19.9384 10.9175 19.9384 10.9568 19.9384 10.9975C20.2675 11.3849 20.1335 12.11 20.4204 12.5642C20.6402 12.9108 21.0756 13.1335 21.2634 13.5281C20.8383 13.6548 19.6647 14.2328 19.4565 14.6129C19.4973 14.6129 19.5366 14.6129 19.5773 14.6129C19.8554 14.4105 21.1411 14.0072 21.144 14.0101C21.2343 14.1397 21.2168 14.1236 21.2649 14.3712C20.93 14.8429 20.9081 15.7573 20.7829 16.4198C20.863 16.4198 20.9431 16.4198 21.0232 16.4198C21.0232 16.3397 21.0232 16.2596 21.0232 16.1796C21.441 15.6729 21.4411 13.8091 21.8662 13.5296C21.8662 13.9708 21.8662 14.4134 21.8662 14.8546C21.575 15.2987 21.4731 16.0864 21.2634 16.5406C20.8339 16.577 19.5628 16.5523 19.2148 16.7809C19.2556 16.7809 19.2949 16.7809 19.3356 16.7809C19.3356 16.8217 19.3356 16.861 19.3356 16.9017C19.7987 16.7663 20.566 16.8886 21.1426 16.7809C21.1426 16.9017 21.1426 17.0211 21.1426 17.142C20.5631 17.6137 20.4699 18.4116 19.5759 18.5878C19.3225 18.3418 18.9396 18.1481 18.612 17.985C18.612 18.0258 18.612 18.0651 18.612 18.1059C19.0022 18.333 19.5278 18.6009 19.6967 19.0698C19.1231 19.3144 18.9906 19.8196 18.3717 20.0337C18.2087 19.7774 18.0238 19.5968 17.7689 19.4309C17.7689 19.5109 17.7689 19.591 17.7689 19.6711C18.0747 19.8517 18.1504 19.8531 18.2509 20.2739C16.955 20.7966 16.5182 22.0503 14.9981 22.2017C14.9981 22.1216 14.9981 22.0415 14.9981 21.9614C15.3257 21.8551 15.3519 21.7561 15.6009 21.6003C15.6009 21.5596 15.6009 21.5203 15.6009 21.4795C15.4801 21.4795 15.3607 21.4795 15.2398 21.4795C14.6123 22.2468 13.5013 21.7984 12.469 21.7197C12.469 21.6397 12.469 21.5596 12.469 21.4795C12.7282 21.414 15.1466 19.9448 15.2398 19.7934C15.0797 19.7934 14.918 19.7934 14.7579 19.7934C14.273 20.2564 13.1839 20.983 12.469 21.1184C12.3467 21.0208 12.4355 21.0762 12.2288 20.9975C12.153 20.7864 12.2055 20.8811 12.1079 20.7573C12.1836 20.5462 12.1312 20.6408 12.2288 20.5171C12.3904 20.188 12.7689 19.8764 13.1927 19.7949C13.1927 19.8356 13.1927 19.875 13.1927 19.9157C13.0485 20.0206 13.0572 20.0147 12.9524 20.156C13.0325 20.156 13.1126 20.156 13.1927 20.156C13.379 19.9754 13.414 20.0628 13.5537 19.7949C13.3033 19.7497 13.3222 19.7657 13.1927 19.674C13.2334 19.674 13.2727 19.674 13.3135 19.674C14.0532 18.9081 15.3913 19.112 16.6871 19.1921C17.0861 18.416 17.7063 18.0258 17.7719 16.9032C16.9885 16.4445 16.4542 16.1752 15.1219 16.181C15.1219 16.1009 15.1219 16.0208 15.1219 15.9408C16.3668 15.9247 16.9798 16.213 18.0136 16.3019C18.0136 16.181 18.0136 16.0616 18.0136 15.9408C17.7646 15.7864 17.7355 15.6903 17.4108 15.5797C16.9376 15.2681 15.7101 15.6132 15.1219 15.7005C15.1219 15.6204 15.1219 15.5404 15.1219 15.4603C15.8368 15.3147 17.6641 15.2506 17.8927 15.0992C18.0427 14.9099 17.9699 15.038 17.8927 14.8589C17.8927 14.7789 17.8927 14.6988 17.8927 14.6187C17.5666 14.6624 17.2987 14.3173 16.6886 14.4978C16.1033 14.6711 15.6985 15.105 15.0025 15.22C15.0025 15.1399 15.0025 15.0599 15.0025 14.9798C15.3039 14.8968 17.4195 13.9751 17.5331 13.7756C17.3249 13.7028 17.153 13.6679 16.8109 13.6548C16.6216 13.5048 16.7497 13.5776 16.5706 13.6548C15.6912 13.9169 15.3621 14.6303 14.6429 14.9798C14.6429 14.8589 14.6429 14.7395 14.6429 14.6187C15.2922 14.2008 16.2736 13.5034 16.8109 12.9326C16.1251 12.5992 15.4408 12.0867 14.6429 11.8479C13.6295 11.545 12.6437 11.8945 11.7512 11.6076C11.0974 11.3965 10.6097 10.9786 9.8234 10.8854C9.31234 11.3703 8.6018 11.5479 8.01647 11.9702C7.51997 12.3284 7.13558 12.8598 6.57064 13.1743C6.57064 13.0942 6.57064 13.0141 6.57064 12.9341C7.70343 12.1871 8.6746 10.7122 10.1845 10.4035C10.5208 10.8374 12.5243 11.6688 13.1956 11.2465C11.8371 10.9917 11.1047 10.1618 9.9428 9.92154C9.33855 10.3496 8.5421 10.3642 7.89417 10.7646C7.40057 11.0703 7.00453 11.5843 6.32748 11.7285C6.32748 11.6877 6.32748 11.6484 6.32748 11.6076C6.36825 11.6076 6.40756 11.6076 6.44833 11.6076C7.1283 10.6306 9.02259 9.77157 10.3039 9.4396C10.6009 9.82981 11.2416 10.2419 11.7497 10.4035C11.8691 10.239 11.9827 10.1865 12.1108 10.0424C11.3872 9.65218 10.5762 8.83971 10.183 8.11461C10.1423 8.11461 10.103 8.11461 10.0622 8.11461C10.0622 8.23546 10.0622 8.35486 10.0622 8.47571C10.5645 8.68683 11.524 9.67256 11.7483 10.1618C11.6682 10.1618 11.5881 10.1618 11.508 10.1618C10.93 9.4527 9.83796 9.02754 9.0983 8.47571C8.628 8.12335 8.08782 7.5686 7.65247 7.15072C7.65247 7.07064 7.65247 6.99056 7.65247 6.91048C7.33068 6.91048 7.01036 6.91048 6.68858 6.91048C6.33913 7.12451 4.02696 7.63121 3.55666 7.75352C3.55666 7.67343 3.55666 7.59335 3.55666 7.51327C4.85252 7.15072 6.11781 6.74594 7.65247 6.42853C7.81554 6.68479 8.00046 6.86534 8.25526 7.03133C8.03103 6.60617 7.51851 5.88689 7.05113 5.70634C6.46872 5.30739 4.10995 6.00628 3.07617 6.06744C3.07617 6.02667 3.07617 5.98735 3.07617 5.94659C3.11694 5.94659 3.15625 5.94659 3.19702 5.94659C4.0852 5.28555 6.21537 5.2608 7.41368 5.34379C7.8068 5.96988 8.65858 7.19586 9.34146 7.51182C9.34146 7.43173 9.34146 7.35165 9.34146 7.27157C9.11286 7.01385 9.05462 6.47076 8.98036 6.06744C7.75293 5.82137 5.95183 4.39883 4.64286 3.89941C3.86097 3.60092 2.37 3.50628 1.99289 3.17722C1.88951 3.04327 1.94338 3.13354 1.86621 2.92533C2.06714 2.92533 2.26807 2.92533 2.46901 2.92533C3.05724 3.4262 3.96872 3.32282 4.75788 3.64752C5.59219 3.99114 6.43377 4.68421 7.40785 4.85165C7.51706 4.55899 7.53598 4.65946 7.6481 4.36971C7.56802 4.36971 7.48793 4.36971 7.40785 4.36971C7.23313 4.67547 7.43406 4.50512 7.04676 4.60995C7.00599 4.52987 6.96668 4.44979 6.92591 4.36971C7.17634 4.32457 7.15742 4.34059 7.287 4.24886C6.47163 3.764 4.10849 2.42445 3.79399 1.60034C3.83476 1.60034 3.87407 1.60034 3.91484 1.60034C4.50017 2.34874 5.67955 2.60937 6.20372 2.80448C6.06685 2.99085 6.07268 2.9064 5.96347 3.16557C6.00424 3.16557 6.04356 3.16557 6.08432 3.16557C6.27361 2.94571 6.19061 2.99813 6.56627 2.92533C6.56627 3.00541 6.56627 3.08549 6.56627 3.16557C6.26924 3.32137 6.48473 3.11315 6.32602 3.40582C6.40611 3.40582 6.48619 3.40582 6.56627 3.40582C6.75555 3.18596 6.67256 3.23837 7.04821 3.16557C7.32923 3.48007 8.00337 3.68392 8.3732 3.88776C8.3732 3.96784 8.3732 4.04793 8.3732 4.12801C8.29166 4.13092 8.21158 4.13092 8.13004 4.13092C7.95095 3.79603 7.61752 3.7043 7.16615 3.64897C7.16615 3.68974 7.16615 3.72905 7.16615 3.76982C7.20692 3.76982 7.24623 3.76982 7.287 3.76982C7.5156 3.94892 7.80098 4.06249 8.13004 4.13092Z" fill="#00A300"/>
<path fill-rule="evenodd" clip-rule="evenodd" d="M7.64941 2.685C7.77026 2.72577 7.88966 2.76508 8.01051 2.80585C8.01051 2.84662 8.01051 2.88593 8.01051 2.9267C7.88966 2.9267 7.77026 2.9267 7.64941 2.9267C7.64941 2.84516 7.64941 2.76508 7.64941 2.685Z" fill="#00A300"/>
<path fill-rule="evenodd" clip-rule="evenodd" d="M6.68555 3.40717C6.68555 3.48725 6.68555 3.56733 6.68555 3.64741C6.8064 3.64741 6.92579 3.64741 7.04664 3.64741C7.04664 3.56733 7.04664 3.48725 7.04664 3.40717C6.92579 3.40717 6.80494 3.40717 6.68555 3.40717Z" fill="#00A300"/>
<path fill-rule="evenodd" clip-rule="evenodd" d="M6.68555 4.13086C6.76563 4.13086 6.84571 4.13086 6.92579 4.13086C6.92579 4.21094 6.92579 4.29102 6.92579 4.3711C6.84571 4.3711 6.76563 4.3711 6.68555 4.3711C6.68555 4.29102 6.68555 4.21094 6.68555 4.13086Z" fill="#00A300"/>
<path fill-rule="evenodd" clip-rule="evenodd" d="M8.85402 4.13086C8.85402 4.25171 8.85402 4.3711 8.85402 4.49195C8.60358 4.44682 8.62251 4.46283 8.49292 4.3711C8.39537 4.2488 8.4507 4.33762 8.37207 4.13086C8.53223 4.13086 8.69385 4.13086 8.85402 4.13086Z" fill="#00A300"/>
<path fill-rule="evenodd" clip-rule="evenodd" d="M9.09375 4.13086C9.41844 4.22696 9.54075 4.35218 9.81594 4.49195C9.81594 4.53272 9.81594 4.57204 9.81594 4.6128C9.65578 4.6128 9.49416 4.6128 9.334 4.6128C9.21897 4.39877 9.18402 4.40896 9.09375 4.13086Z" fill="#00A300"/>
<path fill-rule="evenodd" clip-rule="evenodd" d="M11.7451 4.61157C12.6173 4.96248 13.3147 5.78367 14.034 6.29765C14.8494 6.88006 15.8089 7.24989 16.684 7.74349C16.684 7.82357 16.684 7.90365 16.684 7.98373C16.5631 7.98373 16.4437 7.98373 16.3229 7.98373C15.3488 6.82473 12.2751 6.08944 11.7451 4.61157Z" fill="#00A300"/>
<path fill-rule="evenodd" clip-rule="evenodd" d="M7.52832 4.85338C7.57491 5.16934 7.4395 5.01064 7.76856 5.09363C7.76856 5.05286 7.76856 5.01355 7.76856 4.97278C7.80933 4.97278 7.84865 4.97278 7.88942 4.97278C7.88942 4.93201 7.88942 4.8927 7.88942 4.85193C7.76857 4.85338 7.64771 4.85338 7.52832 4.85338Z" fill="#00A300"/>
<path fill-rule="evenodd" clip-rule="evenodd" d="M7.88965 5.09332C7.88965 5.1734 7.88965 5.25349 7.88965 5.33357C8.84917 5.61895 9.34568 6.33677 10.4202 6.5377C10.4202 6.45762 10.4202 6.37754 10.4202 6.29746C9.3151 6.15186 8.82296 5.40346 7.88965 5.09332Z" fill="#00A300"/>
<path fill-rule="evenodd" clip-rule="evenodd" d="M11.0215 5.09332C11.0215 5.1734 11.0215 5.25349 11.0215 5.33357C11.1016 5.33357 11.1816 5.33357 11.2617 5.33357C11.2617 5.25349 11.2617 5.1734 11.2617 5.09332C11.1831 5.09332 11.1016 5.09332 11.0215 5.09332Z" fill="#00A300"/>
<path fill-rule="evenodd" clip-rule="evenodd" d="M8.49217 7.26288C8.45286 7.43032 8.66253 7.4376 8.73242 7.50312C8.81687 7.37499 8.5242 7.29928 8.49217 7.26288Z" fill="#00A300"/>
<path fill-rule="evenodd" clip-rule="evenodd" d="M9.81738 7.74463C9.81738 7.82471 9.81738 7.90479 9.81738 7.98487C9.89746 7.98487 9.97755 7.98487 10.0576 7.98487C10.0576 7.90479 10.0576 7.82471 10.0576 7.74463C9.97755 7.74463 9.89746 7.74463 9.81738 7.74463Z" fill="#00A300"/>
<path fill-rule="evenodd" clip-rule="evenodd" d="M17.0449 7.98499C17.9564 8.19757 19.7459 9.23571 19.9366 10.153C19.8565 10.153 19.7764 10.153 19.6963 10.153C19.0965 9.28667 17.4133 8.95761 17.0449 7.98499Z" fill="#00A300"/>
<path fill-rule="evenodd" clip-rule="evenodd" d="M12.2276 10.1545C12.2232 10.5054 13.1594 11.0296 13.7942 11.1184C13.7942 11.0384 13.7942 10.9583 13.7942 10.8782C13.008 10.8112 12.7881 10.4021 12.2276 10.1545Z" fill="#00A300"/>
<path fill-rule="evenodd" clip-rule="evenodd" d="M20.1768 10.3949C21.0125 10.6817 21.6284 12.046 21.7434 13.0449C21.6634 13.0449 21.5833 13.0449 21.5032 13.0449C21.5032 13.0041 21.5032 12.9648 21.5032 12.924C21.2775 12.5848 21.343 12.1043 21.1421 11.7199C20.8946 11.2481 20.3777 10.9496 20.1768 10.3949Z" fill="#00A300"/>
<path fill-rule="evenodd" clip-rule="evenodd" d="M13.9141 11.117C13.9141 11.1971 13.9141 11.2772 13.9141 11.3572C13.9941 11.3572 14.0742 11.3572 14.1543 11.3572C14.1543 11.2772 14.1543 11.1971 14.1543 11.117C14.0742 11.117 13.9941 11.117 13.9141 11.117Z" fill="#00A300"/>
<path fill-rule="evenodd" clip-rule="evenodd" d="M18.0088 12.3225C17.9011 12.5861 17.9054 12.4958 17.7686 12.6836C17.8486 12.6836 17.9287 12.6836 18.0088 12.6836C18.1457 12.4972 18.1398 12.5817 18.249 12.3225C18.169 12.3225 18.0889 12.3225 18.0088 12.3225Z" fill="#00A300"/>
<path fill-rule="evenodd" clip-rule="evenodd" d="M17.0449 13.4061C17.1672 13.5036 17.0784 13.4483 17.2852 13.5269C17.1629 13.4308 17.2531 13.4847 17.0449 13.4061Z" fill="#00A300"/>
<path fill-rule="evenodd" clip-rule="evenodd" d="M18.9734 14.4905C18.9326 14.5706 18.8933 14.6506 18.8525 14.7307C19.0637 14.5633 18.9734 14.4905 18.9734 14.4905Z" fill="#00A300"/>
<path fill-rule="evenodd" clip-rule="evenodd" d="M20.4189 17.1404C20.4189 17.2205 20.4189 17.3006 20.4189 17.3807C20.4597 17.3807 20.499 17.3807 20.5398 17.3807C20.4626 17.171 20.5165 17.2657 20.4189 17.1404Z" fill="#00A300"/>
<path fill-rule="evenodd" clip-rule="evenodd" d="M14.395 19.31C14.2087 19.4818 13.9277 19.5648 13.6729 19.6711C13.6729 19.7119 13.6729 19.7512 13.6729 19.7919C13.7937 19.7919 13.9131 19.7919 14.0339 19.7919C14.2786 19.5779 14.7722 19.5473 15.1187 19.4308C15.1187 19.3901 15.1187 19.3508 15.1187 19.31C14.877 19.31 14.6353 19.31 14.395 19.31Z" fill="#00A300"/>
<path fill-rule="evenodd" clip-rule="evenodd" d="M15.5992 20.0322C15.0648 20.6029 14.0412 20.6044 13.5505 21.2363C13.5098 21.2363 13.4705 21.2363 13.4297 21.2363C13.4297 21.2771 13.4297 21.3164 13.4297 21.3572C13.5098 21.3572 13.5899 21.3572 13.6699 21.3572C14.4984 20.5287 15.6385 20.5825 16.9227 20.153C16.9227 20.1122 16.9227 20.0729 16.9227 20.0322C16.483 20.0322 16.0418 20.0322 15.5992 20.0322Z" fill="#00A300"/>
</g>
<defs>
<filter id="filter0_i_7773_25565" x="0" y="0" width="24" height="24" filterUnits="userSpaceOnUse" color-interpolation-filters="sRGB">
<feFlood flood-opacity="0" result="BackgroundImageFix"/>
<feBlend mode="normal" in="SourceGraphic" in2="BackgroundImageFix" result="shape"/>
<feColorMatrix in="SourceAlpha" type="matrix" values="0 0 0 0 0 0 0 0 0 0 0 0 0 0 0 0 0 0 127 0" result="hardAlpha"/>
<feOffset/>
<feGaussianBlur stdDeviation="0.533334"/>
<feComposite in2="hardAlpha" operator="arithmetic" k2="-1" k3="1"/>
<feColorMatrix type="matrix" values="0 0 0 0 1 0 0 0 0 1 0 0 0 0 1 0 0 0 0.5 0"/>
<feBlend mode="normal" in2="shape" result="effect1_innerShadow_7773_25565"/>
</filter>
<linearGradient id="paint0_linear_7773_25565" x1="12" y1="0" x2="12" y2="24" gradientUnits="userSpaceOnUse">
<stop stop-color="white"/>
<stop offset="0.50216" stop-color="#F8F8F8"/>
<stop offset="0.521505" stop-color="#F6F6F6"/>
<stop offset="1" stop-color="#EFEFEF"/>
</linearGradient>
</defs>
</svg>
