<svg width="24" height="24" viewBox="0 0 24 24" fill="none" xmlns="http://www.w3.org/2000/svg">
<g filter="url(#filter0_i_7773_25597)">
<path d="M0 2.66667C0 1.19391 1.19391 0 2.66667 0H21.3333C22.8061 0 24 1.19391 24 2.66667V21.3333C24 22.8061 22.8061 24 21.3333 24H2.66667C1.19391 24 0 22.8061 0 21.3333V2.66667Z" fill="url(#paint0_linear_7773_25597)"/>
<path d="M2.66699 0.133789H21.333C22.7321 0.133789 23.8662 1.26787 23.8662 2.66699V21.333C23.8662 22.7321 22.7321 23.8662 21.333 23.8662H2.66699C1.26787 23.8662 0.133789 22.7321 0.133789 21.333V2.66699C0.133789 1.26787 1.26787 0.133789 2.66699 0.133789Z" stroke="#C0C0C0" stroke-width="0.266667"/>
<path fill-rule="evenodd" clip-rule="evenodd" d="M7.1167 1.60034C5.9121 2.65305 4.16159 2.88164 3.61719 4.60057C3.6999 4.60057 3.78412 4.60057 3.86683 4.60057C4.31498 4.03962 5.2925 3.77193 6.11662 3.60049C6.28656 2.63501 7.06858 2.3989 7.36634 1.60034C7.28363 1.60034 7.20092 1.60034 7.1167 1.60034Z" fill="#00A300"/>
<path fill-rule="evenodd" clip-rule="evenodd" d="M8.61757 1.60034C8.82812 2.33423 8.71211 2.96204 8.11678 3.35085C6.4911 4.41258 4.19018 3.96142 3.52847 5.4277C2.5661 7.56024 4.63081 10.6612 5.99181 10.8507C6.24897 10.3439 6.61592 10.1002 6.74224 9.47612C6.14671 9.10015 5.76623 8.56026 5.74217 7.60079C7.78593 6.78118 9.04768 6.87141 9.87481 5.07429C10.2181 4.32835 10.146 3.38923 9.99211 2.97488C9.72783 2.26323 9.2898 1.80186 8.61757 1.60034Z" fill="#00A300"/>
<path fill-rule="evenodd" clip-rule="evenodd" d="M14.8669 1.60034C14.1044 2.57184 13.1476 3.43749 13.4924 4.72539C13.7514 5.69315 14.2578 6.24731 15.2353 6.66087C16.3845 7.14705 17.8987 6.93007 17.9934 8.2264C17.619 8.68659 17.4415 9.21746 16.9934 9.60094C17.1377 10.1153 17.4881 10.7725 18.1183 10.8507C19.5199 9.40995 20.8523 8.51816 20.4929 5.60064C19.9124 4.94646 19.6394 4.53412 18.8672 4.2261C17.5438 3.69824 15.5797 4.09677 15.1165 2.85156C14.8338 2.42747 15.1271 1.99736 15.2414 1.60034C15.1165 1.60034 14.9917 1.60034 14.8669 1.60034Z" fill="#00A300"/>
<path fill-rule="evenodd" clip-rule="evenodd" d="M16.1172 1.60034C16.4465 2.03195 17.0273 2.16325 17.3669 2.72524C17.5826 3.08216 17.6165 3.39145 17.7414 3.72531C17.7835 3.72531 17.8241 3.72531 17.8662 3.72531C18.2407 3.80803 18.5691 3.81858 18.9911 3.97496C19.4624 4.14964 19.6182 4.46221 20.116 4.60057C20.116 4.51785 20.116 4.43364 20.116 4.35092C18.8452 3.34784 18.2557 1.78833 16.1172 1.60034Z" fill="#00A300"/>
<path fill-rule="evenodd" clip-rule="evenodd" d="M8.59642 7.24744C8.36522 7.3729 8.30706 7.63562 8.3558 7.89412C8.40704 8.16591 8.59224 8.3424 8.86862 8.35279C9.156 8.36358 9.25412 8.29167 9.3634 8.09713C9.45984 7.92542 9.43607 7.75372 9.38595 7.56326C9.34836 7.42039 9.28155 7.31302 9.11977 7.22639C8.94684 7.13379 8.76883 7.15389 8.59642 7.24744Z" fill="#00A300"/>
<path fill-rule="evenodd" clip-rule="evenodd" d="M14.6174 7.22634C14.3412 7.36463 14.2566 7.6886 14.3677 7.97678C14.4855 8.28238 14.8243 8.42479 15.1302 8.30762C15.4621 8.18046 15.5545 7.77846 15.3678 7.47599C15.2056 7.21316 14.8935 7.08806 14.6174 7.22634Z" fill="#00A300"/>
<path fill-rule="evenodd" clip-rule="evenodd" d="M10.9914 8.35132C10.2859 8.44021 9.88051 8.54153 9.24088 8.85211C6.98216 9.94887 5.7925 11.7817 6.36548 14.6029C7.13245 15.039 7.93656 15.2946 8.61527 16.1038C9.17648 16.7729 9.41684 17.9941 9.61535 18.1039C10.6981 18.1039 12.8652 18.1039 12.8652 18.1039C12.8652 18.1039 13.5359 18.1039 14.1149 18.1039C14.5826 17.0888 15.0067 15.9669 15.8654 15.3533C16.6144 14.8195 17.0749 14.6285 17.3663 13.8525C17.7332 12.8752 17.4282 11.9175 16.867 11.0372C15.5526 8.97543 13.5254 8.03202 10.9914 8.35132Z" fill="#00A300"/>
<path fill-rule="evenodd" clip-rule="evenodd" d="M5.61741 11.6011C4.56921 11.5305 3.84284 10.9695 2.86683 10.7259C2.71344 11.0116 2.6623 11.0071 2.61719 11.4763C3.5541 11.9004 4.42785 12.4644 5.49259 12.726C5.49259 12.5591 5.47562 12.4201 5.49259 12.2253C5.51416 11.9776 5.60388 11.9185 5.61741 11.6011Z" fill="#00A300"/>
<path fill-rule="evenodd" clip-rule="evenodd" d="M18.1167 11.601C18.0972 12.1936 18.1122 12.5199 18.4912 12.7259C19.1303 12.2297 20.6192 12.0883 20.9921 11.3514C21.0854 11.2176 21.0673 11.2326 21.1169 10.9769C20.1545 10.595 19.2581 11.4236 18.1167 11.601Z" fill="#00A300"/>
<path fill-rule="evenodd" clip-rule="evenodd" d="M5.36723 13.4765C4.18819 13.3938 2.90689 13.0404 1.86621 13.2269C1.86621 13.4359 1.86621 13.6435 1.86621 13.8525C1.94892 13.8525 2.03314 13.8525 2.11585 13.8525C2.55649 14.1999 5.0063 14.648 5.36572 14.4781C5.46648 14.3503 5.41084 14.4435 5.49054 14.2285C5.37174 14.0495 5.36873 13.8179 5.36723 13.4765Z" fill="#00A300"/>
<path fill-rule="evenodd" clip-rule="evenodd" d="M20.9928 13.102C19.8754 13.3517 18.9249 13.3502 18.2422 13.6028C18.2783 13.9998 18.2572 14.0359 18.2422 14.6029C18.3249 14.6029 18.3983 14.6305 18.4918 14.6029C19.7175 14.2404 20.9943 14.0525 21.8665 13.8525C21.8665 13.6855 21.8665 13.5487 21.8665 13.3517C21.8665 13.2138 21.7374 13.169 21.6169 13.102C21.4038 12.9837 21.2306 13.0489 20.9928 13.102Z" fill="#00A300"/>
<path fill-rule="evenodd" clip-rule="evenodd" d="M5.11609 15.3518C4.58973 15.6902 3.1039 15.6105 2.3655 15.6015C2.3655 15.6842 2.3655 15.7684 2.3655 15.8511C2.21512 16.1158 2.30535 16.1293 2.3655 16.4767C3.74606 16.5865 5.97029 16.4782 7.74034 16.4767C7.74034 16.4346 7.74034 16.394 7.74034 16.3519C6.88915 15.7985 6.64252 15.3428 5.11609 15.3518Z" fill="#00A300"/>
<path fill-rule="evenodd" clip-rule="evenodd" d="M17.3687 15.3517C16.925 15.7698 16.343 15.9563 15.9941 16.4766C17.6198 16.4766 19.244 16.4766 20.8697 16.4766C21.0487 16.5714 21.2442 16.4766 21.2442 16.4766C21.2442 16.4766 21.4231 16.248 21.4938 15.851C21.393 15.7232 21.4487 15.8164 21.369 15.6014C21.0351 15.6014 20.7028 15.6014 20.3689 15.6014C19.7944 15.2344 18.1657 15.3412 17.3687 15.3517Z" fill="#00A300"/>
<path fill-rule="evenodd" clip-rule="evenodd" d="M7.24115 16.8511C6.69224 17.1955 3.8785 17.6722 3.11603 17.8512C3.04084 18.0663 3.00475 18.2452 2.99121 18.6016C3.65592 19.4408 3.34312 21.5808 3.11603 22.6019C3.24085 22.6019 3.36568 22.6019 3.4905 22.6019C3.88902 22.2335 4.37778 22.1478 4.61539 21.6019C5.5493 20.6409 4.57028 19.2799 4.1146 18.6016C4.42139 18.4949 4.88759 18.4723 5.36432 18.4768C6.22003 17.9805 8.35101 18.6768 8.86534 17.8512C8.25627 17.3429 8.45177 16.8526 7.24115 16.8511Z" fill="#00A300"/>
<path fill-rule="evenodd" clip-rule="evenodd" d="M15.6176 16.8511C15.3289 17.2196 15.0266 17.5986 14.8672 18.1009C16.2929 18.173 18.3577 18.164 19.6179 18.6016C19.1171 19.3581 18.7427 19.7461 18.7427 21.1026C19.3247 21.7417 19.4796 22.4937 20.618 22.6034C20.618 22.5207 20.618 22.4365 20.618 22.3538C19.8044 21.2124 20.7684 18.8708 20.618 17.8527C18.9773 17.6286 17.5516 16.9098 15.6176 16.8511Z" fill="#00A300"/>
</g>
<defs>
<filter id="filter0_i_7773_25597" x="0" y="0" width="24" height="24" filterUnits="userSpaceOnUse" color-interpolation-filters="sRGB">
<feFlood flood-opacity="0" result="BackgroundImageFix"/>
<feBlend mode="normal" in="SourceGraphic" in2="BackgroundImageFix" result="shape"/>
<feColorMatrix in="SourceAlpha" type="matrix" values="0 0 0 0 0 0 0 0 0 0 0 0 0 0 0 0 0 0 127 0" result="hardAlpha"/>
<feOffset/>
<feGaussianBlur stdDeviation="0.533334"/>
<feComposite in2="hardAlpha" operator="arithmetic" k2="-1" k3="1"/>
<feColorMatrix type="matrix" values="0 0 0 0 1 0 0 0 0 1 0 0 0 0 1 0 0 0 0.5 0"/>
<feBlend mode="normal" in2="shape" result="effect1_innerShadow_7773_25597"/>
</filter>
<linearGradient id="paint0_linear_7773_25597" x1="12" y1="0" x2="12" y2="24" gradientUnits="userSpaceOnUse">
<stop stop-color="white"/>
<stop offset="0.50216" stop-color="#F8F8F8"/>
<stop offset="0.521505" stop-color="#F6F6F6"/>
<stop offset="1" stop-color="#EFEFEF"/>
</linearGradient>
</defs>
</svg>
