<svg width="24" height="24" viewBox="0 0 24 24" fill="none" xmlns="http://www.w3.org/2000/svg">
<g filter="url(#filter0_i_7773_25558)">
<path d="M0 2.66667C0 1.19391 1.19391 0 2.66667 0H21.3333C22.8061 0 24 1.19391 24 2.66667V21.3333C24 22.8061 22.8061 24 21.3333 24H2.66667C1.19391 24 0 22.8061 0 21.3333V2.66667Z" fill="url(#paint0_linear_7773_25558)"/>
<path d="M2.66699 0.133789H21.333C22.7321 0.133789 23.8662 1.26787 23.8662 2.66699V21.333C23.8662 22.7321 22.7321 23.8662 21.333 23.8662H2.66699C1.26787 23.8662 0.133789 22.7321 0.133789 21.333V2.66699C0.133789 1.26787 1.26787 0.133789 2.66699 0.133789Z" stroke="#C0C0C0" stroke-width="0.266667"/>
<path fill-rule="evenodd" clip-rule="evenodd" d="M1.86621 6.07611C4.10552 6.49102 5.82476 7.64787 6.27259 9.91258C6.49343 11.0293 5.86998 11.8675 6.17043 12.913C6.5333 14.1758 7.55426 14.8462 8.12492 15.6513C7.25809 15.8526 6.76792 15.7958 6.25711 15.6255C5.79274 15.4707 5.20969 15.192 4.57505 14.5417C3.61316 13.5562 3.13756 11.9356 3.46572 10.2067C3.5039 10.0065 3.79594 8.95063 3.63805 8.35508C3.34704 7.25482 2.45235 6.84712 1.86621 6.07611Z" fill="#CC0000"/>
<path d="M19.2959 4.26672C20.9666 5.34424 21.8661 7.11642 21.8672 9.87415C21.247 10.9237 20.6428 11.9104 19.3359 12.4064C17.8455 12.9718 16.67 12.5374 15.2852 11.8995C16.2119 12.7562 18.7752 13.9049 21.6143 11.6466C21.6143 12.237 21.5891 12.7336 21.4268 13.4064C21.2079 14.3133 20.7222 14.847 20.3477 15.4445C19.5978 15.2536 19.3788 15.0086 18.8291 14.6857C18.7737 14.9657 19.5491 15.6096 20.0391 15.9347C19.6212 16.3527 19.3613 16.9897 18.6309 17.3282C17.8773 17.5969 17.3987 17.2401 17.3926 17.2355C17.3926 17.2355 17.016 16.8793 16.8457 16.6935C16.9231 17.6068 17.2941 17.5919 17.9131 17.7931C17.8628 17.8605 17.2835 18.2458 16.7012 18.4894C15.9899 18.7869 15.0657 19.3256 14.7148 18.2306C14.5292 18.3761 14.5321 18.6059 14.6064 18.8351C14.6634 19.0105 14.797 19.0983 15.0547 19.1808C14.1571 19.4388 13.5083 19.6768 12.749 19.6769C12.3662 19.5778 12.3202 19.4238 11.9951 18.7374C11.9177 19.2948 12.0319 19.2433 12.2383 19.7335C11.1434 19.6664 8.42815 18.9365 7.43848 17.9777C7.60761 17.9777 7.74772 17.9863 7.94531 17.9777C9.19442 17.9233 9.76497 17.7181 10.7285 16.921C11.6169 16.186 12.2377 15.182 12.502 14.4327C11.959 15.4247 10.6005 17.1112 9.46387 17.2169C6.44461 17.3397 4.53457 16.6185 4.14746 14.1788C4.9642 15.2471 7.17078 16.8942 9.46387 14.9386C10.243 13.8146 9.79456 11.8529 10.4746 10.6339C10.8074 10.0384 12.9964 8.7645 13.6924 8.50403C13.6923 8.6734 13.61 9.01508 13.543 9.41223C12.8103 11.822 12.0312 12.7256 10.7285 13.9259C10.7735 13.9235 11.162 13.5439 11.2314 13.4943C14.6833 10.7075 13.5464 5.68082 18.3232 4.80969C18.812 5.10783 19.3698 6.11565 19.5879 6.58215C19.5879 6.24464 19.4951 5.88703 19.2959 5.44836C19.0343 4.87225 19.0726 4.96423 18.791 4.51965C19.2342 4.36093 18.9971 4.46773 19.2959 4.26672ZM17.0322 7.68372C16.6642 7.68375 16.3654 7.98174 16.3652 8.34973C16.3652 8.7179 16.6641 9.01669 17.0322 9.01672C17.4004 9.01672 17.6992 8.71792 17.6992 8.34973C17.699 7.98172 17.4003 7.68372 17.0322 7.68372Z" fill="#CC0000"/>
<path d="M8.70205 11.9006C8.15203 11.4403 7.10873 10.9552 6.52569 10.6042C6.40701 11.8263 5.92716 12.5189 6.665 13.6904C7.19157 14.5264 7.74338 14.9134 8.22839 15.5843C7.9704 14.5677 8.06638 12.5653 8.70205 11.9006Z" fill="#CC0000"/>
</g>
<defs>
<filter id="filter0_i_7773_25558" x="0" y="0" width="24" height="24" filterUnits="userSpaceOnUse" color-interpolation-filters="sRGB">
<feFlood flood-opacity="0" result="BackgroundImageFix"/>
<feBlend mode="normal" in="SourceGraphic" in2="BackgroundImageFix" result="shape"/>
<feColorMatrix in="SourceAlpha" type="matrix" values="0 0 0 0 0 0 0 0 0 0 0 0 0 0 0 0 0 0 127 0" result="hardAlpha"/>
<feOffset/>
<feGaussianBlur stdDeviation="0.533334"/>
<feComposite in2="hardAlpha" operator="arithmetic" k2="-1" k3="1"/>
<feColorMatrix type="matrix" values="0 0 0 0 1 0 0 0 0 1 0 0 0 0 1 0 0 0 0.5 0"/>
<feBlend mode="normal" in2="shape" result="effect1_innerShadow_7773_25558"/>
</filter>
<linearGradient id="paint0_linear_7773_25558" x1="12" y1="0" x2="12" y2="24" gradientUnits="userSpaceOnUse">
<stop stop-color="white"/>
<stop offset="0.50216" stop-color="#F8F8F8"/>
<stop offset="0.521505" stop-color="#F6F6F6"/>
<stop offset="1" stop-color="#EFEFEF"/>
</linearGradient>
</defs>
</svg>
