<svg width="24" height="24" viewBox="0 0 24 24" fill="none" xmlns="http://www.w3.org/2000/svg">
<g filter="url(#filter0_i_7773_25614)">
<path d="M0 2.66667C0 1.19391 1.19391 0 2.66667 0H21.3333C22.8061 0 24 1.19391 24 2.66667V21.3333C24 22.8061 22.8061 24 21.3333 24H2.66667C1.19391 24 0 22.8061 0 21.3333V2.66667Z" fill="url(#paint0_linear_7773_25614)"/>
<path d="M2.66699 0.133789H21.333C22.7321 0.133789 23.8662 1.26787 23.8662 2.66699V21.333C23.8662 22.7321 22.7321 23.8662 21.333 23.8662H2.66699C1.26787 23.8662 0.133789 22.7321 0.133789 21.333V2.66699C0.133789 1.26787 1.26787 0.133789 2.66699 0.133789Z" stroke="#C0C0C0" stroke-width="0.266667"/>
<path fill-rule="evenodd" clip-rule="evenodd" d="M5.67771 1.60034C5.98401 1.63047 6.29031 1.66227 6.59828 1.6924C6.65184 1.95351 6.67192 2.7134 6.78239 2.88914C7.65945 3.61556 8.4662 3.76285 8.99009 4.91272C9.44201 5.90527 9.15747 7.47191 10.0948 7.94894C10.8212 8.6017 14.0482 7.96902 15.3387 7.94894C15.6416 7.46522 16.4434 6.56975 16.4434 6.56975C16.4434 6.56975 17.0961 3.91349 18.3749 3.80971C18.6276 4.21811 18.6661 4.6717 18.7431 5.09684C18.7733 5.09684 18.8051 5.09684 18.8352 5.09684C18.8352 5.12697 18.8352 5.15877 18.8352 5.1889C19.0662 4.98637 19.0143 4.93448 19.4796 4.91272C19.5097 5.00478 19.5415 5.09684 19.5716 5.1889C19.7407 5.43494 19.6319 5.84334 19.5716 6.10947C19.9415 6.09775 20.0754 6.05925 20.216 6.29358C20.4052 6.59821 20.1859 7.21248 20.0319 7.49032C20.7483 8.48621 19.7907 9.43752 18.9775 10.2621C18.7859 10.4563 18.4753 10.6638 18.4418 10.7106C18.5004 10.6889 18.565 10.6742 18.6427 10.647C18.712 10.6228 18.7924 10.5745 18.8603 10.5466C19.032 10.476 18.9975 10.4512 19.2453 10.3709C19.2453 10.647 19.2902 10.9508 19.2051 11.263C19.1416 11.4957 19.0662 11.6171 18.9289 11.8153C18.622 12.2587 17.8845 12.5518 17.8242 12.6438C17.8242 13.0723 17.9201 13.4376 17.8242 13.931C17.7592 14.2658 17.6987 14.4582 17.5481 14.7595C17.2418 15.3704 16.6526 16.0483 16.1689 16.5069C15.6835 16.9655 14.552 17.1044 14.2373 17.7036C14.2373 17.7036 14.6943 19.3992 14.7897 19.5431C15.0056 19.8695 15.5897 19.9314 15.8023 20.2796C15.8709 20.3783 15.8576 20.3666 15.8944 20.5557C15.7939 20.6394 15.886 20.549 15.8023 20.6478C15.6048 20.5239 15.4726 20.3951 15.25 20.2796C15.3219 20.4871 15.3855 20.7214 15.25 20.924C15.1546 21.016 14.4097 21.6169 14.3294 21.6604C14.2156 21.4278 14.229 21.1767 14.1453 21.016C14.0465 20.9474 14.0583 20.9608 13.8691 20.924C13.4875 21.1918 12.4849 21.3776 12.0296 21.4763C12.0598 21.2922 12.0916 21.1081 12.1217 20.924C12.746 20.7449 12.7916 20.341 13.3184 20.1875C13.6997 20.0764 13.9913 20.0854 14.3311 20.0955C14.3311 20.0653 14.3311 20.0335 14.3311 20.0034C13.834 19.3255 13.8172 18.2543 13.3184 17.6116C13.0339 17.6668 12.7042 17.7036 12.3058 17.7036C11.7434 18.641 11.3903 19.5548 11.2011 20.924C11.4991 21.1884 11.7267 21.3792 11.7535 21.9366C11.6915 21.9366 11.6313 21.9366 11.5694 21.9366C11.4505 21.7023 11.4689 21.6721 11.2011 21.5684C11.171 21.9517 11.2179 21.9065 10.925 22.0287C10.7224 22.2144 9.7165 22.4304 9.63784 22.3969C9.56921 22.2981 9.5826 22.3098 9.54578 22.1207C9.72989 21.9918 9.73659 21.9969 9.82195 21.7525C9.39347 21.7525 8.96331 21.7525 8.53483 21.7525C8.24861 21.5232 8.00926 21.6069 7.61425 21.6604C7.61425 21.5382 7.61425 21.4144 7.61425 21.2922C7.64438 21.2922 7.67618 21.2922 7.70631 21.2922C7.70631 21.2621 7.70631 21.2303 7.70631 21.2001C8.339 21.1801 8.47118 20.8562 8.99344 20.8319C9.54214 20.8064 9.91401 21.016 10.3726 21.1081C10.5166 20.5139 10.704 19.8394 10.7408 19.0845C10.5266 19.0845 10.3107 19.0845 10.0964 19.0845C9.6914 18.092 9.49055 17.1145 8.71727 16.5086C8.33063 16.2056 7.76991 16.209 7.33808 15.9562C6.73051 15.598 5.46347 14.4398 5.12536 13.8356C3.83824 11.5308 5.52874 8.28704 5.58565 5.73956C5.52372 5.73956 5.46347 5.73956 5.40154 5.73956C5.27433 5.84166 5.13708 5.87681 4.94125 5.92368C4.84585 5.78308 4.65336 5.76635 4.57302 5.64751C4.17969 5.06002 4.51611 4.7102 3.46834 4.72694C3.45327 4.58801 3.5537 4.51772 3.5537 4.39553C3.7964 4.25159 3.84995 4.1361 3.92862 3.80637C3.74451 3.63062 3.72777 3.41805 3.92862 3.16197C4.02905 2.76194 4.41736 2.23135 4.84919 2.14934C4.92953 2.25813 4.92451 2.25311 5.03331 2.33345C5.04 2.07067 5.06846 1.94012 5.12536 1.78111C5.30948 1.81124 5.49359 1.84304 5.67771 1.87317C5.67771 1.78446 5.67771 1.6924 5.67771 1.60034Z" fill="#CC0000"/>
</g>
<defs>
<filter id="filter0_i_7773_25614" x="0" y="0" width="24" height="24" filterUnits="userSpaceOnUse" color-interpolation-filters="sRGB">
<feFlood flood-opacity="0" result="BackgroundImageFix"/>
<feBlend mode="normal" in="SourceGraphic" in2="BackgroundImageFix" result="shape"/>
<feColorMatrix in="SourceAlpha" type="matrix" values="0 0 0 0 0 0 0 0 0 0 0 0 0 0 0 0 0 0 127 0" result="hardAlpha"/>
<feOffset/>
<feGaussianBlur stdDeviation="0.533334"/>
<feComposite in2="hardAlpha" operator="arithmetic" k2="-1" k3="1"/>
<feColorMatrix type="matrix" values="0 0 0 0 1 0 0 0 0 1 0 0 0 0 1 0 0 0 0.5 0"/>
<feBlend mode="normal" in2="shape" result="effect1_innerShadow_7773_25614"/>
</filter>
<linearGradient id="paint0_linear_7773_25614" x1="12" y1="0" x2="12" y2="24" gradientUnits="userSpaceOnUse">
<stop stop-color="white"/>
<stop offset="0.50216" stop-color="#F8F8F8"/>
<stop offset="0.521505" stop-color="#F6F6F6"/>
<stop offset="1" stop-color="#EFEFEF"/>
</linearGradient>
</defs>
</svg>
