<svg width="126" height="172" viewBox="0 0 126 172" fill="none" xmlns="http://www.w3.org/2000/svg">
<rect x="1.65297" y="1.65297" width="122.319" height="168.602" rx="14.8767" fill="white" stroke="#8F8F8F" stroke-width="3.30593"/>
<path d="M119.014 155.373C119.014 160.851 114.573 165.291 109.096 165.291H16.5303C11.0528 165.291 6.6123 160.851 6.6123 155.373V106.359L119.014 41.3918V155.373Z" fill="#F2F2F2"/>
<path d="M19.1575 56.3059V51.1685C20.4719 50.0762 21.9807 48.8081 23.684 47.364C25.3872 45.9015 27.1182 44.3556 28.8769 42.7265C30.6357 41.0788 32.2556 39.4404 33.7366 37.8112C35.2177 36.1635 36.4118 34.6084 37.3189 33.1459C38.2446 31.6648 38.7074 30.3781 38.7074 29.2859C38.7074 28.0455 38.402 26.9162 37.791 25.898C37.1986 24.8612 36.3933 24.0374 35.3751 23.4264C34.3568 22.797 33.2275 22.4823 31.9871 22.4823C30.7467 22.4823 29.6082 22.797 28.5714 23.4264C27.5532 24.0374 26.7294 24.8612 26.0999 25.898C25.489 26.9162 25.1835 28.0455 25.1835 29.2859H19.4074C19.4074 26.9347 19.9813 24.8149 21.1291 22.9266C22.2955 21.0197 23.8228 19.5109 25.7112 18.4001C27.618 17.2708 29.71 16.7061 31.9871 16.7061C34.2828 16.7061 36.3748 17.2708 38.2631 18.4001C40.1515 19.5294 41.6603 21.0475 42.7896 22.9543C43.9189 24.8427 44.4836 26.9532 44.4836 29.2859C44.4836 30.5818 44.2151 31.9147 43.6782 33.2847C43.1413 34.6547 42.3916 36.0524 41.4289 37.478C40.4847 38.9035 39.3832 40.3475 38.1243 41.8101C36.8654 43.2726 35.5139 44.7351 34.0699 46.1977C32.6258 47.6602 31.154 49.1043 29.6545 50.5298H44.8168V56.3059H19.1575Z" fill="#FF0000"/>
<g clip-path="url(#clip0_7798_26377)">
<path d="M33.0594 59.5068L20.6621 79.3424L33.0594 99.178L45.4566 79.3424L33.0594 59.5068Z" fill="#FF0000"/>
</g>
<g clip-path="url(#clip1_7798_26377)">
<path d="M82.6484 85.9541L61.9863 119.013L82.6484 152.073L103.31 119.013L82.6484 85.9541Z" fill="#FF0000"/>
</g>
<defs>
<clipPath id="clip0_7798_26377">
<rect width="39.6712" height="39.6712" fill="white" transform="translate(13.2236 59.5068)"/>
</clipPath>
<clipPath id="clip1_7798_26377">
<rect width="66.1186" height="66.1186" fill="white" transform="translate(49.5889 85.9541)"/>
</clipPath>
</defs>
</svg>
