<svg width="126" height="172" viewBox="0 0 126 172" fill="none" xmlns="http://www.w3.org/2000/svg">
<rect x="1.65297" y="1.65297" width="122.319" height="168.602" rx="14.8767" fill="white" stroke="#8F8F8F" stroke-width="3.30593"/>
<path d="M119.014 155.373C119.014 160.851 114.573 165.291 109.096 165.291H16.5303C11.0528 165.291 6.6123 160.851 6.6123 155.373V106.359L119.014 41.3918V155.373Z" fill="#F2F2F2"/>
<path d="M45.6405 56.3059H38.1427L26.5627 40.2827L24.2022 43.143V56.3059H18.4261V17.4282H24.2022V34.1734L38.1982 17.4282H45.7516L30.3671 35.784L45.6405 56.3059Z" fill="#FF0000"/>
<g clip-path="url(#clip0_7798_26388)">
<path d="M33.0594 59.5068L20.6621 79.3424L33.0594 99.178L45.4566 79.3424L33.0594 59.5068Z" fill="#FF0000"/>
</g>
<path d="M61.7949 130.945C65.9498 128.33 71.4759 128.161 74.3362 128.471C74.4462 129.296 74.9302 131.192 75.9863 132.182C77.0424 133.172 79.9467 134.347 79.9467 134.347H98.7585C99.1986 134.141 100.501 134.017 101.399 133.419C102.95 132.386 103.379 130.636 103.709 129.399C104.919 130.017 107.105 131.091 108.66 132.801C110.417 134.734 110.962 136.216 111.63 138.677C112.488 141.838 112.818 143.963 111.63 147.028C110.714 149.39 109.636 150.577 107.669 152.286C105.886 153.835 103.269 155.276 102.389 155.379H54.8643V139.914C54.8643 139.914 57.964 133.356 61.7949 130.945Z" fill="#E34E45"/>
<path d="M66.7455 86.3596C65.8654 85.1225 65.0953 83.5762 64.1052 83.5761C62.7851 83.5759 62.345 84.9802 62.125 85.7889L66.0854 99.0882H94.7982L99.0886 84.5518C98.7586 84.1394 97.8345 83.3146 96.7784 83.3146C95.4583 83.3146 94.7982 85.7889 94.1381 87.0261C93.4781 88.2632 91.1506 89.7259 88.8576 89.5003C85.2273 89.1432 84.4031 82.6482 80.2768 82.6482C76.1504 82.6482 74.6662 89.5003 71.6959 89.5003C69.0557 89.5003 67.6255 87.3905 66.7455 86.3596Z" fill="#CE8419"/>
<path d="M61.4648 115.79C61.7289 114.801 63.555 110.429 64.4351 108.367H64.7652V118.574H61.7949C61.5748 118.058 61.2008 116.78 61.4648 115.79Z" fill="#FFC48C"/>
<path d="M93.1479 102.182H78.2965V127.234C78.6265 128.114 78.6265 128.685 79.6166 129.66C80.6775 130.706 81.9268 131.564 82.2569 131.564H96.7783C98.7585 130.588 100.409 127.805 100.409 126.306C100.409 124.953 99.7486 123.522 98.4284 122.595C97.3723 121.852 95.7882 121.46 95.1281 121.357V104.347C95.1281 104.14 94.9961 103.604 94.4681 103.109C93.94 102.615 93.368 102.285 93.1479 102.182Z" fill="#FFC48C"/>
<path d="M46.9434 129.66L49.2536 84.2429L51.5638 129.66H49.2536H46.9434Z" fill="white"/>
<path d="M52.5538 132.443C53.3459 131.206 52.1138 130.278 51.5637 130.278H49.2535H46.2832V132.182C46.2832 133.172 47.8234 134.244 48.5934 134.656L49.2535 143.316L50.2436 134.656C50.6836 134.141 51.7617 133.68 52.5538 132.443Z" fill="#EE9F03"/>
<ellipse cx="84.2367" cy="126.258" rx="4.29042" ry="4.02072" fill="#FFD3AA"/>
<defs>
<clipPath id="clip0_7798_26388">
<rect width="39.6712" height="39.6712" fill="white" transform="translate(13.2236 59.5068)"/>
</clipPath>
</defs>
</svg>
