<svg width="126" height="172" viewBox="0 0 126 172" fill="none" xmlns="http://www.w3.org/2000/svg">
<rect x="1.65297" y="1.65297" width="122.319" height="168.602" rx="14.8767" fill="white" stroke="#8F8F8F" stroke-width="3.30593"/>
<path d="M119.014 155.373C119.014 160.851 114.573 165.291 109.096 165.291H16.5303C11.0528 165.291 6.6123 160.851 6.6123 155.373V106.359L119.014 41.3918V155.373Z" fill="#F2F2F2"/>
<path d="M46.6713 57.3056L42.2281 52.8902C40.673 54.1491 38.9327 55.1303 37.0074 55.8338C35.082 56.5373 33.0455 56.8891 30.898 56.8891C28.2506 56.8891 25.7698 56.3707 23.4557 55.334C21.1415 54.2787 19.1051 52.8347 17.3463 51.0019C15.5876 49.1506 14.2083 47.003 13.2086 44.5593C12.2274 42.1155 11.7368 39.5052 11.7368 36.7282C11.7368 33.9512 12.2274 31.3501 13.2086 28.9249C14.2083 26.4811 15.5876 24.3336 17.3463 22.4823C19.1051 20.6309 21.1415 19.1869 23.4557 18.1502C25.7698 17.0949 28.2506 16.5673 30.898 16.5673C33.5454 16.5673 36.0169 17.0949 38.3125 18.1502C40.6267 19.1869 42.6631 20.6309 44.4219 22.4823C46.1807 24.3336 47.5506 26.4811 48.5318 28.9249C49.5316 31.3501 50.0314 33.9512 50.0314 36.7282C50.0314 38.9868 49.6889 41.1343 49.0039 43.1708C48.3374 45.1887 47.4118 47.04 46.2269 48.7247L50.7534 53.2235L46.6713 57.3056ZM30.898 51.113C32.1939 51.113 33.4528 50.9 34.6747 50.4742C35.9151 50.0484 37.0351 49.4468 38.0348 48.6692L33.7305 44.3927L37.8127 40.2827L41.9226 44.4204C42.7002 43.3096 43.2833 42.097 43.6721 40.7826C44.0609 39.4681 44.2553 38.1167 44.2553 36.7282C44.2553 34.7473 43.9035 32.8959 43.2 31.1742C42.515 29.434 41.5524 27.9066 40.312 26.5922C39.0901 25.2592 37.6738 24.2225 36.0632 23.482C34.4525 22.7229 32.7308 22.3434 30.898 22.3434C29.0467 22.3434 27.3157 22.7229 25.705 23.482C24.0944 24.241 22.6689 25.287 21.4285 26.62C20.2066 27.9344 19.2439 29.4617 18.5404 31.202C17.8554 32.9237 17.5129 34.7658 17.5129 36.7282C17.5129 38.7091 17.8554 40.5697 18.5404 42.3099C19.2439 44.0502 20.2159 45.5868 21.4563 46.9197C22.6966 48.2341 24.1222 49.2616 25.7328 50.0022C27.3435 50.7427 29.0652 51.113 30.898 51.113Z" fill="#FF0000"/>
<g clip-path="url(#clip0_7798_26387)">
<path d="M33.0594 59.5068L20.6621 79.3424L33.0594 99.178L45.4566 79.3424L33.0594 59.5068Z" fill="#FF0000"/>
</g>
<path d="M74.0607 130.717H104.915C105.85 131.025 108.311 131.713 109.901 133.183C111.184 134.369 112.291 136.163 112.395 136.883V147.98C112.499 149.008 111.408 151.357 109.901 152.913C108.616 154.239 106.265 155.173 105.85 155.379H62.5293V141.815C62.3215 141.404 63.8917 137.707 65.6459 135.649C68.1078 132.76 72.5024 130.717 74.0607 130.717Z" fill="#E34E45"/>
<path d="M77.4492 92.8003L104.564 111.913L110.173 104.515C110.693 104.104 111.784 103.878 112.043 102.974C112.285 102.13 112.164 101.291 111.42 100.816C110.807 100.424 110.183 100.455 109.55 100.816C108.935 101.167 108.927 101.692 108.615 102.357C108.2 102.665 106.599 103.407 105.187 103.59C104.342 103.699 103.005 103.693 103.005 103.59C102.59 103.282 101.1 102.572 100.512 101.432C99.7933 100.038 100.512 97.4248 100.512 97.4248C100.512 97.4248 102.375 97.0698 103.005 96.1918C103.78 95.1117 103.981 93.7069 103.005 92.8003C102.444 92.2792 101.447 91.9784 101.135 92.1843C101.135 92.1843 102.087 91.1522 102.382 90.3347C102.791 89.201 102.382 87.252 102.382 87.252C102.382 87.252 101.224 87.0913 100.512 87.252C99.1591 87.5575 97.707 89.67 97.707 89.67C97.0837 89.0534 95.8557 87.6762 94.5905 88.4369C93.203 89.271 93.0322 91.5674 93.0322 92.8003L88.3573 93.4173C88.1495 93.2117 87.072 92.6457 86.4873 92.1361C85.7125 91.4608 84.929 90.3347 84.929 90.3347V86.3272C85.2407 86.2244 86.2338 85.9875 86.4873 85.3542C86.8042 84.5628 86.7064 83.4415 85.864 82.9358C85.2397 82.561 84.6074 82.5438 83.9941 82.9358C83.2498 83.4114 83.2668 84.4771 83.3707 85.0937L77.4492 92.8003Z" fill="#CE8419"/>
<path d="M68.1396 119.619C68.1396 119.126 70.2174 114.276 71.2562 111.912V120.852H68.763C68.5552 120.647 68.1396 120.112 68.1396 119.619Z" fill="#FFD3AA"/>
<path d="M88.3576 119.619C84.2485 113.446 84.0342 100.815 84.0342 100.815V100.507L103.357 113.454V128.251C102.11 128.148 99.0224 128.287 96.5006 127.326C92.2434 125.704 90.8664 123.388 88.3576 119.619Z" fill="#FFD3AA"/>
<path d="M73.4371 96.4991C74.276 95.5784 75.5148 95.1633 76.242 94.9578C78.2158 96.1908 82.2258 98.7803 82.4752 99.2735C82.7245 99.7667 82.9946 104.822 83.0985 107.288C81.748 107.186 78.5483 106.795 76.5537 106.055C74.559 105.316 72.8137 104.309 72.1904 103.898V99.2735C72.1904 99.2735 72.6345 97.3798 73.4371 96.4991Z" fill="#FFC48C"/>
<path d="M55.6357 118.341C57.4926 118.284 58.7789 119.205 59.6874 120.808C60.1765 121.671 60.3105 123.263 60.3115 123.274C60.3514 123.278 62.9938 123.518 64.0107 124.46C65.5445 125.88 65.7131 127.917 64.6337 129.7C63.6849 131.267 61.8696 131.495 60.3115 131.597C60.3115 131.597 60.1139 134.753 58.7128 135.866C57.0048 137.223 54.8542 137.167 53.1025 135.866C51.6389 134.779 51.4802 132.728 51.2724 131.597C51.2305 131.595 48.521 131.462 47.4931 130.317C46.198 128.874 45.8674 127.04 46.87 125.384C47.79 123.866 51.2268 123.282 51.2724 123.274C51.2732 123.262 51.3799 121.674 51.8564 120.808C52.7021 119.272 53.8684 118.397 55.6357 118.341ZM55.6327 124.504C53.9116 124.504 52.5166 125.884 52.5165 127.587C52.5165 129.289 53.9115 130.669 55.6327 130.67C57.354 130.67 58.749 129.289 58.749 127.587C58.7489 125.884 57.3539 124.504 55.6327 124.504Z" fill="#E64F46"/>
<path d="M93.0319 136.835C95.0265 133.875 100.927 132.724 103.628 132.519C103.628 134.985 102.943 140.719 100.2 143.925C97.4575 147.131 91.7853 148.549 89.292 148.857C89.7075 146.083 91.0373 139.794 93.0319 136.835Z" fill="white"/>
<defs>
<clipPath id="clip0_7798_26387">
<rect width="39.6712" height="39.6712" fill="white" transform="translate(13.2236 59.5068)"/>
</clipPath>
</defs>
</svg>
