<svg width="126" height="172" viewBox="0 0 126 172" fill="none" xmlns="http://www.w3.org/2000/svg">
<rect x="1.65297" y="1.65297" width="122.319" height="168.602" rx="14.8767" fill="white" stroke="#8F8F8F" stroke-width="3.30593"/>
<path d="M119.014 155.373C119.014 160.851 114.573 165.291 109.096 165.291H16.5303C11.0528 165.291 6.6123 160.851 6.6123 155.373V106.359L119.014 41.392V155.373Z" fill="#F2F2F2"/>
<path d="M13.0975 56.3059V23.2043H8.45993L10.0428 17.4282H18.8736V56.3059H13.0975ZM40.0685 57.0279C37.7729 57.0279 35.6994 56.5096 33.8481 55.4728C32.0152 54.4176 30.4324 52.9643 29.0994 51.113C27.7665 49.2616 26.7482 47.1234 26.0447 44.6981C25.3412 42.2544 24.9895 39.644 24.9895 36.867C24.9895 34.09 25.3412 31.4797 26.0447 29.0359C26.7482 26.5922 27.7665 24.4539 29.0994 22.6211C30.4324 20.7698 32.0152 19.3258 33.8481 18.289C35.6994 17.2338 37.7729 16.7061 40.0685 16.7061C42.3271 16.7061 44.3821 17.2338 46.2334 18.289C48.0847 19.3258 49.6583 20.7698 50.9543 22.6211C52.2687 24.4539 53.2777 26.5922 53.9812 29.0359C54.6847 31.4797 55.0364 34.09 55.0364 36.867C55.0364 39.644 54.6847 42.2544 53.9812 44.6981C53.2777 47.1234 52.2687 49.2616 50.9543 51.113C49.6583 52.9643 48.0847 54.4176 46.2334 55.4728C44.3821 56.5096 42.3271 57.0279 40.0685 57.0279ZM40.0685 51.2518C42.1975 51.2518 43.9655 50.5853 45.3725 49.2524C46.7981 47.9009 47.8626 46.1329 48.5661 43.9483C49.2696 41.7638 49.6213 39.4033 49.6213 36.867C49.6213 34.2011 49.2511 31.7852 48.5105 29.6191C47.7885 27.4345 46.7147 25.7036 45.2892 24.4262C43.8822 23.1302 42.142 22.4823 40.0685 22.4823C38.4208 22.4823 36.986 22.871 35.7642 23.6486C34.5608 24.4262 33.5611 25.4907 32.765 26.8421C31.9875 28.1936 31.3951 29.7302 30.9878 31.4519C30.599 33.1736 30.4046 34.9787 30.4046 36.867C30.4046 39.4033 30.7656 41.7638 31.4876 43.9483C32.2096 46.1329 33.2834 47.9009 34.7089 49.2524C36.153 50.5853 37.9395 51.2518 40.0685 51.2518Z" fill="#FF0000"/>
<g clip-path="url(#clip0_7798_26371)">
<path d="M42.6818 61.9865C44.5339 61.9865 46.2447 62.4502 47.8092 63.375C49.3554 64.2828 50.6362 65.5806 51.5234 67.1388C52.4344 68.7147 52.9078 70.5055 52.8945 72.3257C52.8945 73.6721 52.6392 74.9812 52.1309 76.2507C51.6228 77.5179 50.8648 78.6698 49.9019 79.6376L33.0591 96.6986L16.2163 79.6401C14.2964 77.6899 13.2214 75.0624 13.2236 72.3257C13.2236 70.4513 13.6799 68.7207 14.5948 67.1363C15.4816 65.5794 16.7615 64.2824 18.3065 63.375C19.8585 62.4524 21.6334 61.9722 23.4389 61.9865C24.7826 61.9863 26.1129 62.2541 27.3518 62.7744C28.5907 63.2946 29.7134 64.0568 30.654 65.0164L33.0591 67.4537L35.4666 65.0164C36.4172 64.0455 37.5552 63.2779 38.8114 62.7601C40.0393 62.2485 41.3565 61.9855 42.6867 61.9865H42.6818V61.9865Z" fill="#FF0000"/>
</g>
<g clip-path="url(#clip1_7798_26371)">
<path d="M98.6857 90.0872C101.773 90.0872 104.624 90.8599 107.232 92.4013C109.809 93.9143 111.943 96.0774 113.422 98.6743C114.94 101.301 115.729 104.285 115.707 107.319C115.707 109.563 115.281 111.745 114.434 113.861C113.588 115.973 112.324 117.893 110.719 119.506L82.648 147.941L54.5767 119.51C51.3769 116.259 49.5851 111.88 49.5889 107.319C49.5889 104.195 50.3492 101.311 51.8741 98.6702C53.3522 96.0753 55.4853 93.9137 58.0603 92.4013C60.6469 90.8636 63.6052 90.0633 66.6143 90.0872C68.8538 90.0868 71.0709 90.5332 73.1358 91.4003C75.2007 92.2674 77.0718 93.5377 78.6395 95.137L82.648 99.1991L86.6605 95.137C88.2449 93.5189 90.1414 92.2395 92.2351 91.3765C94.2816 90.5238 96.477 90.0856 98.694 90.0872H98.6857V90.0872Z" fill="#FF0000"/>
</g>
<defs>
<clipPath id="clip0_7798_26371">
<rect width="39.6712" height="39.6712" fill="white" transform="translate(13.2236 59.5067)"/>
</clipPath>
<clipPath id="clip1_7798_26371">
<rect width="66.1186" height="66.1186" fill="white" transform="translate(49.5889 85.9542)"/>
</clipPath>
</defs>
</svg>
