<svg width="126" height="172" viewBox="0 0 126 172" fill="none" xmlns="http://www.w3.org/2000/svg">
<rect x="1.65297" y="1.65297" width="122.319" height="168.602" rx="14.8767" fill="white" stroke="#8F8F8F" stroke-width="3.30593"/>
<path d="M119.014 155.373C119.014 160.851 114.573 165.291 109.096 165.291H16.5303C11.0528 165.291 6.6123 160.851 6.6123 155.373V106.359L119.014 41.392V155.373Z" fill="#F2F2F2"/>
<path d="M19.1575 56.3059V51.1685C20.4719 50.0762 21.9807 48.8081 23.684 47.364C25.3872 45.9015 27.1182 44.3556 28.8769 42.7265C30.6357 41.0788 32.2556 39.4404 33.7366 37.8112C35.2177 36.1635 36.4118 34.6084 37.3189 33.1459C38.2446 31.6648 38.7074 30.3781 38.7074 29.2859C38.7074 28.0455 38.402 26.9162 37.791 25.898C37.1986 24.8612 36.3933 24.0374 35.3751 23.4264C34.3568 22.797 33.2275 22.4823 31.9871 22.4823C30.7467 22.4823 29.6082 22.797 28.5714 23.4264C27.5532 24.0374 26.7294 24.8612 26.0999 25.898C25.489 26.9162 25.1835 28.0455 25.1835 29.2859H19.4074C19.4074 26.9347 19.9813 24.8149 21.1291 22.9266C22.2955 21.0197 23.8228 19.5109 25.7112 18.4001C27.618 17.2708 29.71 16.7061 31.9871 16.7061C34.2828 16.7061 36.3748 17.2708 38.2631 18.4001C40.1515 19.5294 41.6603 21.0475 42.7896 22.9543C43.9189 24.8427 44.4836 26.9532 44.4836 29.2859C44.4836 30.5818 44.2151 31.9147 43.6782 33.2847C43.1413 34.6547 42.3916 36.0524 41.4289 37.478C40.4847 38.9035 39.3832 40.3475 38.1243 41.8101C36.8654 43.2726 35.5139 44.7351 34.0699 46.1977C32.6258 47.6602 31.154 49.1043 29.6545 50.5298H44.8168V56.3059H19.1575Z" fill="#FF0000"/>
<g clip-path="url(#clip0_7798_26363)">
<path d="M42.6818 61.9865C44.5339 61.9865 46.2447 62.4502 47.8092 63.375C49.3554 64.2828 50.6362 65.5806 51.5234 67.1388C52.4344 68.7147 52.9078 70.5055 52.8945 72.3257C52.8945 73.6721 52.6392 74.9812 52.1309 76.2507C51.6228 77.5179 50.8648 78.6698 49.9019 79.6376L33.0591 96.6986L16.2163 79.6401C14.2964 77.6899 13.2214 75.0624 13.2236 72.3257C13.2236 70.4513 13.6799 68.7207 14.5948 67.1363C15.4816 65.5794 16.7615 64.2824 18.3065 63.375C19.8585 62.4524 21.6334 61.9722 23.4389 61.9865C24.7826 61.9863 26.1129 62.2541 27.3518 62.7744C28.5907 63.2946 29.7134 64.0568 30.654 65.0164L33.0591 67.4537L35.4666 65.0164C36.4172 64.0455 37.5552 63.2779 38.8114 62.7601C40.0393 62.2485 41.3565 61.9855 42.6867 61.9865H42.6818V61.9865Z" fill="#FF0000"/>
</g>
<g clip-path="url(#clip1_7798_26363)">
<path d="M98.6857 90.0872C101.773 90.0872 104.624 90.8599 107.232 92.4013C109.809 93.9143 111.943 96.0774 113.422 98.6743C114.94 101.301 115.729 104.285 115.707 107.319C115.707 109.563 115.281 111.745 114.434 113.861C113.588 115.973 112.324 117.893 110.719 119.506L82.648 147.941L54.5767 119.51C51.3769 116.259 49.5851 111.88 49.5889 107.319C49.5889 104.195 50.3492 101.311 51.8741 98.6702C53.3522 96.0753 55.4853 93.9137 58.0603 92.4013C60.6469 90.8636 63.6052 90.0633 66.6143 90.0872C68.8538 90.0868 71.0709 90.5332 73.1358 91.4003C75.2007 92.2674 77.0718 93.5377 78.6395 95.137L82.648 99.1991L86.6605 95.137C88.2449 93.5189 90.1414 92.2395 92.2351 91.3765C94.2816 90.5238 96.477 90.0856 98.694 90.0872H98.6857V90.0872Z" fill="#FF0000"/>
</g>
<defs>
<clipPath id="clip0_7798_26363">
<rect width="39.6712" height="39.6712" fill="white" transform="translate(13.2236 59.5067)"/>
</clipPath>
<clipPath id="clip1_7798_26363">
<rect width="66.1186" height="66.1186" fill="white" transform="translate(49.5889 85.9542)"/>
</clipPath>
</defs>
</svg>
