<svg width="126" height="172" viewBox="0 0 126 172" fill="none" xmlns="http://www.w3.org/2000/svg">
<rect x="1.65297" y="1.65297" width="122.319" height="168.602" rx="14.8767" fill="white" stroke="#8F8F8F" stroke-width="3.30593"/>
<path d="M119.014 155.373C119.014 160.851 114.573 165.291 109.096 165.291H16.5303C11.0528 165.291 6.6123 160.851 6.6123 155.373V106.359L119.014 41.392V155.373Z" fill="#F2F2F2"/>
<path d="M32.6581 57.0279C30.3069 57.0279 28.1964 56.4818 26.3266 55.3895C24.4753 54.2972 23.0127 52.8347 21.939 51.0019C20.8652 49.1691 20.3283 47.1326 20.3283 44.8925H26.1044C26.1044 46.0588 26.3821 47.1234 26.9375 48.086C27.4929 49.0487 28.2612 49.817 29.2424 50.3909C30.2236 50.9648 31.3622 51.2518 32.6581 51.2518C33.8244 51.2518 34.9075 50.9648 35.9072 50.3909C36.9069 49.817 37.7122 49.0487 38.3231 48.086C38.9341 47.1234 39.2396 46.0588 39.2396 44.8925C39.2396 43.4115 38.8508 42.1711 38.0732 41.1714C37.2957 40.1716 36.2126 39.4311 34.8241 38.9498C33.4542 38.4499 31.8713 38.2 30.0755 38.2V33.6457C32.5193 33.6457 34.4724 33.1644 35.9349 32.2017C37.3975 31.239 38.1288 29.8042 38.1288 27.8974C38.1288 26.8977 37.8603 25.9905 37.3234 25.1759C36.8051 24.3428 36.1108 23.6856 35.2407 23.2043C34.3891 22.7044 33.4727 22.4545 32.4915 22.4545C31.4733 22.4545 30.4921 22.7044 29.5479 23.2043C28.6222 23.6856 27.8632 24.3428 27.2708 25.1759C26.6783 25.9905 26.3821 26.8977 26.3821 27.8974H20.606C20.606 26.3608 20.9207 24.9168 21.5502 23.5653C22.1981 22.1953 23.0683 21.0012 24.1605 19.983C25.2713 18.9462 26.5302 18.1409 27.9372 17.567C29.3628 16.9746 30.8531 16.6784 32.4082 16.6784C34.4446 16.6784 36.333 17.1875 38.0732 18.2057C39.832 19.2054 41.239 20.5569 42.2942 22.2601C43.368 23.9448 43.9049 25.8239 43.9049 27.8974C43.9049 29.5451 43.4976 31.1094 42.683 32.5905C41.8869 34.053 40.7761 35.0898 39.3506 35.7007C40.591 36.145 41.6278 36.8485 42.4609 37.8112C43.3125 38.7554 43.9512 39.8477 44.377 41.088C44.8028 42.3099 45.0157 43.5781 45.0157 44.8925C45.0157 47.1141 44.451 49.1506 43.3217 51.0019C42.1924 52.8347 40.6836 54.2972 38.7952 55.3895C36.9254 56.4818 34.8797 57.0279 32.6581 57.0279Z" fill="#FF0000"/>
<g clip-path="url(#clip0_7798_26364)">
<path d="M42.6818 61.9865C44.5339 61.9865 46.2447 62.4502 47.8092 63.375C49.3554 64.2828 50.6362 65.5806 51.5234 67.1388C52.4344 68.7147 52.9078 70.5055 52.8945 72.3257C52.8945 73.6721 52.6392 74.9812 52.1309 76.2507C51.6228 77.5179 50.8648 78.6698 49.9019 79.6376L33.0591 96.6986L16.2163 79.6401C14.2964 77.6899 13.2214 75.0624 13.2236 72.3257C13.2236 70.4513 13.6799 68.7207 14.5948 67.1363C15.4816 65.5794 16.7615 64.2824 18.3065 63.375C19.8585 62.4524 21.6334 61.9722 23.4389 61.9865C24.7826 61.9863 26.1129 62.2541 27.3518 62.7744C28.5907 63.2946 29.7134 64.0568 30.654 65.0164L33.0591 67.4537L35.4666 65.0164C36.4172 64.0455 37.5552 63.2779 38.8114 62.7601C40.0393 62.2485 41.3565 61.9855 42.6867 61.9865H42.6818V61.9865Z" fill="#FF0000"/>
</g>
<g clip-path="url(#clip1_7798_26364)">
<path d="M98.6857 90.0872C101.773 90.0872 104.624 90.8599 107.232 92.4013C109.809 93.9143 111.943 96.0774 113.422 98.6743C114.94 101.301 115.729 104.285 115.707 107.319C115.707 109.563 115.281 111.745 114.434 113.861C113.588 115.973 112.324 117.893 110.719 119.506L82.648 147.941L54.5767 119.51C51.3769 116.259 49.5851 111.88 49.5889 107.319C49.5889 104.195 50.3492 101.311 51.8741 98.6702C53.3522 96.0753 55.4853 93.9137 58.0603 92.4013C60.6469 90.8636 63.6052 90.0633 66.6143 90.0872C68.8538 90.0868 71.0709 90.5332 73.1358 91.4003C75.2007 92.2674 77.0718 93.5377 78.6395 95.137L82.648 99.1991L86.6605 95.137C88.2449 93.5189 90.1414 92.2395 92.2351 91.3765C94.2816 90.5238 96.477 90.0856 98.694 90.0872H98.6857V90.0872Z" fill="#FF0000"/>
</g>
<defs>
<clipPath id="clip0_7798_26364">
<rect width="39.6712" height="39.6712" fill="white" transform="translate(13.2236 59.5067)"/>
</clipPath>
<clipPath id="clip1_7798_26364">
<rect width="66.1186" height="66.1186" fill="white" transform="translate(49.5889 85.9542)"/>
</clipPath>
</defs>
</svg>
