<svg width="126" height="172" viewBox="0 0 126 172" fill="none" xmlns="http://www.w3.org/2000/svg">
<rect x="1.65297" y="1.65297" width="122.319" height="168.602" rx="14.8767" fill="white" stroke="#8F8F8F" stroke-width="3.30593"/>
<path d="M119.014 155.373C119.014 160.851 114.573 165.291 109.096 165.291H16.5303C11.0528 165.291 6.6123 160.851 6.6123 155.373V106.359L119.014 41.392V155.373Z" fill="#F2F2F2"/>
<path d="M30.1998 57.0279C27.7376 57.0279 25.5067 56.4355 23.5073 55.2507C21.5264 54.0473 19.9528 52.4552 18.7864 50.4742C17.6386 48.4748 17.0647 46.2903 17.0647 43.9206H22.8408C22.8408 45.272 23.1741 46.5032 23.8406 47.614C24.507 48.7247 25.3957 49.6134 26.5065 50.2799C27.6173 50.9278 28.8484 51.2518 30.1998 51.2518C31.5328 51.2518 32.7547 50.9278 33.8655 50.2799C34.9763 49.6134 35.8649 48.7247 36.5314 47.614C37.1978 46.5032 37.5311 45.272 37.5311 43.9206C37.5311 42.5691 37.2256 41.338 36.6147 40.2272C36.0037 39.0979 35.0873 38.2 33.8655 37.5335C32.6436 36.8485 31.0885 36.506 29.2001 36.506H19.3974L23.3407 17.4282H42.1409V23.2043H28.0338L26.5065 30.7299L29.8666 30.7854C32.514 30.841 34.8374 31.4519 36.8368 32.6182C38.8548 33.7661 40.4377 35.3212 41.5855 37.2836C42.7333 39.2275 43.3072 41.4398 43.3072 43.9206C43.3072 45.7163 42.9647 47.4103 42.2797 49.0024C41.5947 50.5761 40.6506 51.9646 39.4472 53.1679C38.2624 54.3713 36.8739 55.3155 35.2817 56.0004C33.7081 56.6854 32.0141 57.0279 30.1998 57.0279Z" fill="#FF0000"/>
<g clip-path="url(#clip0_7798_26366)">
<path d="M42.6818 61.9865C44.5339 61.9865 46.2447 62.4502 47.8092 63.375C49.3554 64.2828 50.6362 65.5806 51.5234 67.1388C52.4344 68.7147 52.9078 70.5055 52.8945 72.3257C52.8945 73.6721 52.6392 74.9812 52.1309 76.2507C51.6228 77.5179 50.8648 78.6698 49.9019 79.6376L33.0591 96.6986L16.2163 79.6401C14.2964 77.6899 13.2214 75.0624 13.2236 72.3257C13.2236 70.4513 13.6799 68.7207 14.5948 67.1363C15.4816 65.5794 16.7615 64.2824 18.3065 63.375C19.8585 62.4524 21.6334 61.9722 23.4389 61.9865C24.7826 61.9863 26.1129 62.2541 27.3518 62.7744C28.5907 63.2946 29.7134 64.0568 30.654 65.0164L33.0591 67.4537L35.4666 65.0164C36.4172 64.0455 37.5552 63.2779 38.8114 62.7601C40.0393 62.2485 41.3565 61.9855 42.6867 61.9865H42.6818V61.9865Z" fill="#FF0000"/>
</g>
<g clip-path="url(#clip1_7798_26366)">
<path d="M98.6857 90.0872C101.773 90.0872 104.624 90.8599 107.232 92.4013C109.809 93.9143 111.943 96.0774 113.422 98.6743C114.94 101.301 115.729 104.285 115.707 107.319C115.707 109.563 115.281 111.745 114.434 113.861C113.588 115.973 112.324 117.893 110.719 119.506L82.648 147.941L54.5767 119.51C51.3769 116.259 49.5851 111.88 49.5889 107.319C49.5889 104.195 50.3492 101.311 51.8741 98.6702C53.3522 96.0753 55.4853 93.9137 58.0603 92.4013C60.6469 90.8636 63.6052 90.0633 66.6143 90.0872C68.8538 90.0868 71.0709 90.5332 73.1358 91.4003C75.2007 92.2674 77.0718 93.5377 78.6395 95.137L82.648 99.1991L86.6605 95.137C88.2449 93.5189 90.1414 92.2395 92.2351 91.3765C94.2816 90.5238 96.477 90.0856 98.694 90.0872H98.6857V90.0872Z" fill="#FF0000"/>
</g>
<defs>
<clipPath id="clip0_7798_26366">
<rect width="39.6712" height="39.6712" fill="white" transform="translate(13.2236 59.5067)"/>
</clipPath>
<clipPath id="clip1_7798_26366">
<rect width="66.1186" height="66.1186" fill="white" transform="translate(49.5889 85.9542)"/>
</clipPath>
</defs>
</svg>
