<svg width="126" height="172" viewBox="0 0 126 172" fill="none" xmlns="http://www.w3.org/2000/svg">
<rect x="1.65297" y="1.65297" width="122.319" height="168.602" rx="14.8767" fill="white" stroke="#8F8F8F" stroke-width="3.30593"/>
<path d="M119.014 155.373C119.014 160.851 114.573 165.291 109.096 165.291H16.5303C11.0528 165.291 6.6123 160.851 6.6123 155.373V106.359L119.014 41.392V155.373Z" fill="#F2F2F2"/>
<path d="M31.1854 57.0279C28.7046 57.0279 26.4367 56.417 24.3818 55.1951C22.3268 53.9547 20.6791 52.3071 19.4387 50.2521C18.2169 48.1786 17.6059 45.8922 17.6059 43.3929C17.6059 42.06 17.7633 40.8566 18.078 39.7829C18.3928 38.7091 18.8741 37.5798 19.5221 36.3949L30.4634 17.4282H37.1837L29.6025 30.5355C31.1391 30.2393 32.6387 30.23 34.1012 30.5077C35.5823 30.7669 36.9708 31.276 38.2667 32.0351C39.5626 32.7756 40.7012 33.7198 41.6824 34.8676C42.6821 35.9969 43.4596 37.2836 44.015 38.7276C44.5704 40.1716 44.8481 41.7268 44.8481 43.3929C44.8481 45.2628 44.4871 47.0215 43.7651 48.6692C43.0616 50.3169 42.0804 51.7702 40.8215 53.0291C39.5811 54.2695 38.1278 55.2507 36.4617 55.9727C34.814 56.6762 33.0552 57.0279 31.1854 57.0279ZM31.1854 51.2518C32.7035 51.2518 34.0549 50.8815 35.2398 50.141C36.4246 49.4005 37.3595 48.4285 38.0445 47.2252C38.7295 46.0218 39.072 44.7444 39.072 43.3929C39.072 41.9674 38.7203 40.6622 38.0168 39.4774C37.3318 38.2925 36.3969 37.3484 35.212 36.6449C34.0272 35.9229 32.7035 35.5618 31.2409 35.5618C29.7228 35.5618 28.3714 35.9321 27.1865 36.6726C26.0017 37.4132 25.0668 38.3759 24.3818 39.5607C23.7153 40.7455 23.3821 42.023 23.3821 43.3929C23.3821 44.8925 23.7431 46.2347 24.4651 47.4196C25.2056 48.6044 26.1683 49.5393 27.3531 50.2243C28.538 50.9093 29.8154 51.2518 31.1854 51.2518Z" fill="#FF0000"/>
<g clip-path="url(#clip0_7798_26367)">
<path d="M42.6818 61.9865C44.5339 61.9865 46.2447 62.4502 47.8092 63.375C49.3554 64.2828 50.6362 65.5806 51.5234 67.1388C52.4344 68.7147 52.9078 70.5055 52.8945 72.3257C52.8945 73.6721 52.6392 74.9812 52.1309 76.2507C51.6228 77.5179 50.8648 78.6698 49.9019 79.6376L33.0591 96.6986L16.2163 79.6401C14.2964 77.6899 13.2214 75.0624 13.2236 72.3257C13.2236 70.4513 13.6799 68.7207 14.5948 67.1363C15.4816 65.5794 16.7615 64.2824 18.3065 63.375C19.8585 62.4524 21.6334 61.9722 23.4389 61.9865C24.7826 61.9863 26.1129 62.2541 27.3518 62.7744C28.5907 63.2946 29.7134 64.0568 30.654 65.0164L33.0591 67.4537L35.4666 65.0164C36.4172 64.0455 37.5552 63.2779 38.8114 62.7601C40.0393 62.2485 41.3565 61.9855 42.6867 61.9865H42.6818V61.9865Z" fill="#FF0000"/>
</g>
<g clip-path="url(#clip1_7798_26367)">
<path d="M98.6857 90.0872C101.773 90.0872 104.624 90.8599 107.232 92.4013C109.809 93.9143 111.943 96.0774 113.422 98.6743C114.94 101.301 115.729 104.285 115.707 107.319C115.707 109.563 115.281 111.745 114.434 113.861C113.588 115.973 112.324 117.893 110.719 119.506L82.648 147.941L54.5767 119.51C51.3769 116.259 49.5851 111.88 49.5889 107.319C49.5889 104.195 50.3492 101.311 51.8741 98.6702C53.3522 96.0753 55.4853 93.9137 58.0603 92.4013C60.6469 90.8636 63.6052 90.0633 66.6143 90.0872C68.8538 90.0868 71.0709 90.5332 73.1358 91.4003C75.2007 92.2674 77.0718 93.5377 78.6395 95.137L82.648 99.1991L86.6605 95.137C88.2449 93.5189 90.1414 92.2395 92.2351 91.3765C94.2816 90.5238 96.477 90.0856 98.694 90.0872H98.6857V90.0872Z" fill="#FF0000"/>
</g>
<defs>
<clipPath id="clip0_7798_26367">
<rect width="39.6712" height="39.6712" fill="white" transform="translate(13.2236 59.5067)"/>
</clipPath>
<clipPath id="clip1_7798_26367">
<rect width="66.1186" height="66.1186" fill="white" transform="translate(49.5889 85.9542)"/>
</clipPath>
</defs>
</svg>
