<svg width="126" height="172" viewBox="0 0 126 172" fill="none" xmlns="http://www.w3.org/2000/svg">
<rect x="1.65297" y="1.65297" width="122.319" height="168.602" rx="14.8767" fill="white" stroke="#8F8F8F" stroke-width="3.30593"/>
<path d="M119.014 155.373C119.014 160.851 114.573 165.291 109.096 165.291H16.5303C11.0528 165.291 6.6123 160.851 6.6123 155.373V106.359L119.014 41.392V155.373Z" fill="#F2F2F2"/>
<path d="M30.8746 57.0279C28.5234 57.0279 26.3851 56.491 24.4597 55.4173C22.5344 54.3435 20.9978 52.9087 19.8499 51.113C18.7206 49.2987 18.156 47.2807 18.156 45.0591C18.156 43.1893 18.6188 41.4491 19.5445 39.8384C20.4701 38.2278 21.7013 36.8948 23.2379 35.8395C21.9975 34.9139 20.9885 33.7476 20.211 32.3405C19.4334 30.9335 19.0446 29.4155 19.0446 27.7863C19.0446 25.7498 19.5722 23.8985 20.6275 22.2323C21.7013 20.5476 23.136 19.2054 24.9318 18.2057C26.7276 17.206 28.7085 16.7061 30.8746 16.7061C33.0406 16.7061 35.0215 17.206 36.8173 18.2057C38.6131 19.2054 40.0386 20.5476 41.0939 22.2323C42.1676 23.8985 42.7045 25.7498 42.7045 27.7863C42.7045 29.4155 42.3157 30.9335 41.5382 32.3405C40.7791 33.7476 39.7702 34.9139 38.5113 35.8395C40.0849 36.8948 41.3253 38.2278 42.2324 39.8384C43.1581 41.4491 43.6209 43.1893 43.6209 45.0591C43.6209 47.2622 43.047 49.2709 41.8992 51.0852C40.7514 52.8995 39.2148 54.3435 37.2894 55.4173C35.364 56.491 33.2257 57.0279 30.8746 57.0279ZM30.8746 51.2518C32.0964 51.2518 33.2072 50.9741 34.2069 50.4187C35.2067 49.8633 36.0027 49.1228 36.5952 48.1971C37.2061 47.2529 37.5116 46.2069 37.5116 45.0591C37.5116 43.9298 37.2061 42.9023 36.5952 41.9767C36.0027 41.0325 35.2067 40.2827 34.2069 39.7273C33.2072 39.1719 32.0964 38.8942 30.8746 38.8942C29.6712 38.8942 28.5604 39.1719 27.5422 39.7273C26.5425 40.2827 25.7371 41.0325 25.1262 41.9767C24.5338 42.9023 24.2376 43.9298 24.2376 45.0591C24.2376 46.2069 24.5338 47.2529 25.1262 48.1971C25.7371 49.1228 26.5425 49.8633 27.5422 50.4187C28.5604 50.9741 29.6712 51.2518 30.8746 51.2518ZM30.8746 33.1181C31.9298 33.1181 32.8833 32.8774 33.7349 32.3961C34.605 31.9147 35.2992 31.276 35.8176 30.48C36.336 29.6654 36.5952 28.7675 36.5952 27.7863C36.5952 26.8051 36.336 25.9165 35.8176 25.1204C35.2992 24.3243 34.605 23.6856 33.7349 23.2043C32.8833 22.7229 31.9298 22.4823 30.8746 22.4823C29.8193 22.4823 28.8566 22.7229 27.9865 23.2043C27.1349 23.6856 26.4499 24.3243 25.9315 25.1204C25.4132 25.9165 25.154 26.8051 25.154 27.7863C25.154 28.7675 25.4132 29.6654 25.9315 30.48C26.4499 31.276 27.1349 31.9147 27.9865 32.3961C28.8566 32.8774 29.8193 33.1181 30.8746 33.1181Z" fill="#FF0000"/>
<g clip-path="url(#clip0_7798_26369)">
<path d="M42.6818 61.9865C44.5339 61.9865 46.2447 62.4502 47.8092 63.375C49.3554 64.2828 50.6362 65.5806 51.5234 67.1388C52.4344 68.7147 52.9078 70.5055 52.8945 72.3257C52.8945 73.6721 52.6392 74.9812 52.1309 76.2507C51.6228 77.5179 50.8648 78.6698 49.9019 79.6376L33.0591 96.6986L16.2163 79.6401C14.2964 77.6899 13.2214 75.0624 13.2236 72.3257C13.2236 70.4513 13.6799 68.7207 14.5948 67.1363C15.4816 65.5794 16.7615 64.2824 18.3065 63.375C19.8585 62.4524 21.6334 61.9722 23.4389 61.9865C24.7826 61.9863 26.1129 62.2541 27.3518 62.7744C28.5907 63.2946 29.7134 64.0568 30.654 65.0164L33.0591 67.4537L35.4666 65.0164C36.4172 64.0455 37.5552 63.2779 38.8114 62.7601C40.0393 62.2485 41.3565 61.9855 42.6867 61.9865H42.6818V61.9865Z" fill="#FF0000"/>
</g>
<g clip-path="url(#clip1_7798_26369)">
<path d="M98.6857 90.0872C101.773 90.0872 104.624 90.8599 107.232 92.4013C109.809 93.9143 111.943 96.0774 113.422 98.6743C114.94 101.301 115.729 104.285 115.707 107.319C115.707 109.563 115.281 111.745 114.434 113.861C113.588 115.973 112.324 117.893 110.719 119.506L82.648 147.941L54.5767 119.51C51.3769 116.259 49.5851 111.88 49.5889 107.319C49.5889 104.195 50.3492 101.311 51.8741 98.6702C53.3522 96.0753 55.4853 93.9137 58.0603 92.4013C60.6469 90.8636 63.6052 90.0633 66.6143 90.0872C68.8538 90.0868 71.0709 90.5332 73.1358 91.4003C75.2007 92.2674 77.0718 93.5377 78.6395 95.137L82.648 99.1991L86.6605 95.137C88.2449 93.5189 90.1414 92.2395 92.2351 91.3765C94.2816 90.5238 96.477 90.0856 98.694 90.0872H98.6857V90.0872Z" fill="#FF0000"/>
</g>
<defs>
<clipPath id="clip0_7798_26369">
<rect width="39.6712" height="39.6712" fill="white" transform="translate(13.2236 59.5067)"/>
</clipPath>
<clipPath id="clip1_7798_26369">
<rect width="66.1186" height="66.1186" fill="white" transform="translate(49.5889 85.9542)"/>
</clipPath>
</defs>
</svg>
