<svg width="126" height="172" viewBox="0 0 126 172" fill="none" xmlns="http://www.w3.org/2000/svg">
<rect x="1.65297" y="1.65297" width="122.319" height="168.602" rx="14.8767" fill="white" stroke="#8F8F8F" stroke-width="3.30593"/>
<path d="M119.014 155.373C119.014 160.851 114.573 165.291 109.096 165.291H16.5303C11.0528 165.291 6.6123 160.851 6.6123 155.373V106.359L119.014 41.392V155.373Z" fill="#F2F2F2"/>
<path d="M24.5166 56.3059L32.3754 42.6987C30.5056 43.0504 28.6821 42.9764 26.9048 42.4765C25.146 41.9582 23.5631 41.1158 22.1561 39.9495C20.7491 38.7646 19.6291 37.3299 18.796 35.6452C17.9629 33.9605 17.5464 32.1091 17.5464 30.0912C17.5464 28.2584 17.8888 26.5367 18.5738 24.926C19.2773 23.2968 20.24 21.8713 21.4619 20.6495C22.6838 19.4091 24.1 18.4464 25.7107 17.7614C27.3398 17.0579 29.0801 16.7061 30.9314 16.7061C33.3566 16.7061 35.5782 17.3078 37.5962 18.5112C39.6141 19.7145 41.2248 21.3344 42.4281 23.3709C43.6315 25.3888 44.2332 27.6289 44.2332 30.0912C44.2332 31.3686 44.0758 32.5349 43.7611 33.5902C43.4649 34.6454 42.9928 35.7562 42.3448 36.9226L31.2091 56.3059H24.5166ZM30.8759 37.6724C32.3569 37.6724 33.6714 37.3206 34.8192 36.6171C35.967 35.8951 36.8649 34.9602 37.5129 33.8123C38.1793 32.646 38.5126 31.3964 38.5126 30.0634C38.5126 28.6194 38.1608 27.3235 37.4573 26.1756C36.7538 25.0278 35.8189 24.1207 34.6526 23.4542C33.5047 22.7877 32.2644 22.4545 30.9314 22.4545C29.4504 22.4545 28.1359 22.8155 26.9881 23.5375C25.8403 24.2595 24.9331 25.2037 24.2667 26.37C23.6002 27.5179 23.2669 28.749 23.2669 30.0634C23.2669 31.4519 23.6002 32.7293 24.2667 33.8957C24.9516 35.0435 25.868 35.9599 27.0159 36.6449C28.1637 37.3299 29.4504 37.6724 30.8759 37.6724Z" fill="#FF0000"/>
<g clip-path="url(#clip0_7798_26370)">
<path d="M42.6818 61.9865C44.5339 61.9865 46.2447 62.4502 47.8092 63.375C49.3554 64.2828 50.6362 65.5806 51.5234 67.1388C52.4344 68.7147 52.9078 70.5055 52.8945 72.3257C52.8945 73.6721 52.6392 74.9812 52.1309 76.2507C51.6228 77.5179 50.8648 78.6698 49.9019 79.6376L33.0591 96.6986L16.2163 79.6401C14.2964 77.6899 13.2214 75.0624 13.2236 72.3257C13.2236 70.4513 13.6799 68.7207 14.5948 67.1363C15.4816 65.5794 16.7615 64.2824 18.3065 63.375C19.8585 62.4524 21.6334 61.9722 23.4389 61.9865C24.7826 61.9863 26.1129 62.2541 27.3518 62.7744C28.5907 63.2946 29.7134 64.0568 30.654 65.0164L33.0591 67.4537L35.4666 65.0164C36.4172 64.0455 37.5552 63.2779 38.8114 62.7601C40.0393 62.2485 41.3565 61.9855 42.6867 61.9865H42.6818V61.9865Z" fill="#FF0000"/>
</g>
<g clip-path="url(#clip1_7798_26370)">
<path d="M98.6857 90.0872C101.773 90.0872 104.624 90.8599 107.232 92.4013C109.809 93.9143 111.943 96.0774 113.422 98.6743C114.94 101.301 115.729 104.285 115.707 107.319C115.707 109.563 115.281 111.745 114.434 113.861C113.588 115.973 112.324 117.893 110.719 119.506L82.648 147.941L54.5767 119.51C51.3769 116.259 49.5851 111.88 49.5889 107.319C49.5889 104.195 50.3492 101.311 51.8741 98.6702C53.3522 96.0753 55.4853 93.9137 58.0603 92.4013C60.6469 90.8636 63.6052 90.0633 66.6143 90.0872C68.8538 90.0868 71.0709 90.5332 73.1358 91.4003C75.2007 92.2674 77.0718 93.5377 78.6395 95.137L82.648 99.1991L86.6605 95.137C88.2449 93.5189 90.1414 92.2395 92.2351 91.3765C94.2816 90.5238 96.477 90.0856 98.694 90.0872H98.6857V90.0872Z" fill="#FF0000"/>
</g>
<defs>
<clipPath id="clip0_7798_26370">
<rect width="39.6712" height="39.6712" fill="white" transform="translate(13.2236 59.5067)"/>
</clipPath>
<clipPath id="clip1_7798_26370">
<rect width="66.1186" height="66.1186" fill="white" transform="translate(49.5889 85.9542)"/>
</clipPath>
</defs>
</svg>
