<svg width="126" height="172" viewBox="0 0 126 172" fill="none" xmlns="http://www.w3.org/2000/svg">
<rect x="1.65297" y="1.65297" width="122.319" height="168.602" rx="14.8767" fill="white" stroke="#8F8F8F" stroke-width="3.30593"/>
<path d="M119.014 155.373C119.014 160.851 114.573 165.291 109.096 165.291H16.5303C11.0528 165.291 6.6123 160.851 6.6123 155.373V106.359L119.014 41.392V155.373Z" fill="#F2F2F2"/>
<path d="M27.9145 57.0279C26.5445 57.0279 25.2023 56.7965 23.8878 56.3337C22.5919 55.8708 21.4163 55.1859 20.3611 54.2787L24.0545 49.8355C24.5173 50.2243 25.0727 50.5576 25.7206 50.8353C26.3686 51.113 27.0999 51.2518 27.9145 51.2518C29.0252 51.2518 30.0342 50.9648 30.9414 50.3909C31.867 49.7985 32.6076 49.0302 33.163 48.086C33.7184 47.1234 33.996 46.0959 33.996 45.0036V17.4282H39.7722V45.0036C39.7722 47.1696 39.2353 49.1691 38.1615 51.0019C37.0878 52.8162 35.653 54.2787 33.8572 55.3895C32.0799 56.4818 30.099 57.0279 27.9145 57.0279Z" fill="#FF0000"/>
<g clip-path="url(#clip0_7798_26372)">
<path d="M42.6818 61.9865C44.5339 61.9865 46.2447 62.4502 47.8092 63.375C49.3554 64.2828 50.6362 65.5806 51.5234 67.1388C52.4344 68.7147 52.9078 70.5055 52.8945 72.3257C52.8945 73.6721 52.6392 74.9812 52.1309 76.2507C51.6228 77.5179 50.8648 78.6698 49.9019 79.6376L33.0591 96.6986L16.2163 79.6401C14.2964 77.6899 13.2214 75.0624 13.2236 72.3257C13.2236 70.4513 13.6799 68.7207 14.5948 67.1363C15.4816 65.5794 16.7615 64.2824 18.3065 63.375C19.8585 62.4524 21.6334 61.9722 23.4389 61.9865C24.7826 61.9863 26.1129 62.2541 27.3518 62.7744C28.5907 63.2946 29.7134 64.0568 30.654 65.0164L33.0591 67.4537L35.4666 65.0164C36.4172 64.0455 37.5552 63.2779 38.8114 62.7601C40.0393 62.2485 41.3565 61.9855 42.6867 61.9865H42.6818V61.9865Z" fill="#FF0000"/>
</g>
<path d="M72.8746 131.466C76.4902 129.255 81.0196 129.399 83.511 129.694C83.7027 130.678 83.6993 132.314 84.6609 133.532C85.4257 134.501 86.5774 135.008 87.2482 135.304L103.922 135.599C104.497 135.304 105.808 134.507 106.796 133.532C107.719 132.621 108.521 131.367 108.809 130.875C109.575 131.269 111.054 132.323 112.258 133.532C113.928 135.21 114.941 137.37 115.708 138.551V147.113C115.42 148.293 114.341 150.988 112.546 152.722C111.045 154.172 108.713 155.182 107.946 155.379L66.2627 154.788V140.322C67.1251 138.21 69.2282 133.695 72.8746 131.466Z" fill="#E34E45"/>
<path d="M55.1291 91.269C55.3207 92.2531 55.5767 95.0416 57.1414 96.5831C58.2086 97.6345 60.5128 98.3544 60.5128 98.3544V101.897C60.5128 101.897 58.3929 102.625 57.3506 103.964C55.6641 106.13 55.1291 109.77 54.5541 111.344C53.2126 109.868 50.357 105.853 49.6671 101.602C48.9772 97.3507 53.0209 92.942 55.1291 91.269Z" fill="white"/>
<path d="M60.5128 90.4294C61.2027 89.0124 63.1 88.8549 63.9625 88.9533V135.599C63.4833 135.599 62.4101 135.54 61.9501 135.303C61.4902 135.067 60.8003 133.827 60.5128 133.237V102.238V98.1053C60.2253 96.1371 59.8229 91.8465 60.5128 90.4294Z" fill="#EE9F03"/>
<path d="M81.211 87.1359C83.6542 85.8814 85.0914 85.955 87.8229 85.955C90.1227 85.955 90.9764 86.01 92.7099 86.5455C94.9236 87.2292 96.8304 88.7104 97.8844 89.4977H78.0488C78.5279 89.1041 79.8453 87.8372 81.211 87.1359Z" fill="#CE8419"/>
<path d="M103.634 89.5438H73.449C73.2573 89.839 72.874 90.6657 72.874 91.6104C72.874 92.5551 75.9404 98.1053 77.4736 100.762H99.6089C101.046 98.0069 103.921 92.3189 103.921 91.6104C103.921 90.9019 103.729 89.9375 103.634 89.5438Z" fill="#EE9F03"/>
<path d="M72.0117 118.771C72.0117 118.062 73.9282 112.965 74.8864 110.505V120.542C74.8864 120.542 73.5371 120.975 72.8741 120.542C72.2388 120.127 72.0117 119.479 72.0117 118.771Z" fill="#FFC48C"/>
<path d="M100.184 104.6H86.6728V128.808C86.9603 129.648 87.2389 130.165 87.8227 130.875C88.5468 131.756 90.1225 132.646 90.1225 132.646H102.771C103.921 131.564 106.213 130.229 106.221 127.923C106.226 126.424 105.814 125.442 104.784 124.38C103.826 123.394 102.388 123.002 101.621 122.904V106.371C101.526 106.175 101.389 105.567 101.046 105.191C100.77 104.887 100.376 104.6 100.184 104.6Z" fill="#FFC48C"/>
<ellipse cx="91.8475" cy="127.581" rx="3.73714" ry="3.83791" fill="#FFD3AA"/>
<defs>
<clipPath id="clip0_7798_26372">
<rect width="39.6712" height="39.6712" fill="white" transform="translate(13.2236 59.5067)"/>
</clipPath>
</defs>
</svg>
