<svg width="126" height="172" viewBox="0 0 126 172" fill="none" xmlns="http://www.w3.org/2000/svg">
<rect x="1.65297" y="1.65297" width="122.319" height="168.602" rx="14.8767" fill="white" stroke="#8F8F8F" stroke-width="3.30593"/>
<path d="M119.014 155.373C119.014 160.851 114.573 165.291 109.096 165.291H16.5303C11.0528 165.291 6.6123 160.851 6.6123 155.373V106.359L119.014 41.392V155.373Z" fill="#F2F2F2"/>
<path d="M13.0975 56.3059V23.2043H8.45993L10.0428 17.4282H18.8736V56.3059H13.0975ZM40.0685 57.0279C37.7729 57.0279 35.6994 56.5096 33.8481 55.4728C32.0152 54.4176 30.4324 52.9643 29.0994 51.113C27.7665 49.2616 26.7482 47.1234 26.0447 44.6981C25.3412 42.2544 24.9895 39.644 24.9895 36.867C24.9895 34.09 25.3412 31.4797 26.0447 29.0359C26.7482 26.5922 27.7665 24.4539 29.0994 22.6211C30.4324 20.7698 32.0152 19.3258 33.8481 18.289C35.6994 17.2338 37.7729 16.7061 40.0685 16.7061C42.3271 16.7061 44.3821 17.2338 46.2334 18.289C48.0847 19.3258 49.6583 20.7698 50.9543 22.6211C52.2687 24.4539 53.2777 26.5922 53.9812 29.0359C54.6847 31.4797 55.0364 34.09 55.0364 36.867C55.0364 39.644 54.6847 42.2544 53.9812 44.6981C53.2777 47.1234 52.2687 49.2616 50.9543 51.113C49.6583 52.9643 48.0847 54.4176 46.2334 55.4728C44.3821 56.5096 42.3271 57.0279 40.0685 57.0279ZM40.0685 51.2518C42.1975 51.2518 43.9655 50.5853 45.3725 49.2524C46.7981 47.9009 47.8626 46.1329 48.5661 43.9483C49.2696 41.7638 49.6213 39.4033 49.6213 36.867C49.6213 34.2011 49.2511 31.7852 48.5105 29.6191C47.7885 27.4345 46.7147 25.7036 45.2892 24.4262C43.8822 23.1302 42.142 22.4823 40.0685 22.4823C38.4208 22.4823 36.986 22.871 35.7642 23.6486C34.5608 24.4262 33.5611 25.4907 32.765 26.8421C31.9875 28.1936 31.3951 29.7302 30.9878 31.4519C30.599 33.1736 30.4046 34.9787 30.4046 36.867C30.4046 39.4033 30.7656 41.7638 31.4876 43.9483C32.2096 46.1329 33.2834 47.9009 34.7089 49.2524C36.153 50.5853 37.9395 51.2518 40.0685 51.2518Z" fill="#1A1A1A"/>
<g clip-path="url(#clip0_7798_26343)">
<path d="M44.8968 72.9941C37.3985 67.4206 34.8123 62.9604 33.0593 59.5067C31.3037 62.9604 28.72 67.4206 21.2218 72.9941C8.43461 82.4972 20.4705 95.7589 31.0533 88.4599C30.364 92.9896 28.0108 96.292 25.6205 97.7151V99.1779H40.498V97.7151C38.1077 96.292 35.7546 92.9896 35.0652 88.4599C45.6481 95.7589 57.6839 82.4972 44.8968 72.9941Z" fill="#1A1A1A"/>
</g>
<g clip-path="url(#clip1_7798_26343)">
<path d="M102.378 108.433C89.8807 99.1441 85.5703 91.7103 82.6486 85.9542C79.7227 91.7103 75.4165 99.1441 62.9194 108.433C41.6075 124.272 61.6672 146.375 79.3053 134.21C78.1564 141.759 74.2346 147.263 70.2507 149.635V152.073H95.0464V149.635C91.0626 147.263 87.1407 141.759 85.9919 134.21C103.63 146.375 123.69 124.272 102.378 108.433Z" fill="#1A1A1A"/>
</g>
<defs>
<clipPath id="clip0_7798_26343">
<rect width="39.6712" height="39.6712" fill="white" transform="translate(13.2236 59.5067)"/>
</clipPath>
<clipPath id="clip1_7798_26343">
<rect width="66.1186" height="66.1186" fill="white" transform="translate(49.5889 85.9542)"/>
</clipPath>
</defs>
</svg>
