<svg width="126" height="172" viewBox="0 0 126 172" fill="none" xmlns="http://www.w3.org/2000/svg">
<rect x="1.65297" y="1.65297" width="122.319" height="168.602" rx="14.8767" fill="white" stroke="#8F8F8F" stroke-width="3.30593"/>
<path d="M119.014 155.373C119.014 160.851 114.573 165.291 109.096 165.291H16.5303C11.0528 165.291 6.6123 160.851 6.6123 155.373V106.359L119.014 41.392V155.373Z" fill="#F2F2F2"/>
<path d="M32.6581 57.0279C30.3069 57.0279 28.1964 56.4818 26.3266 55.3895C24.4753 54.2972 23.0127 52.8347 21.939 51.0019C20.8652 49.1691 20.3283 47.1326 20.3283 44.8925H26.1044C26.1044 46.0588 26.3821 47.1234 26.9375 48.086C27.4929 49.0487 28.2612 49.817 29.2424 50.3909C30.2236 50.9648 31.3622 51.2518 32.6581 51.2518C33.8244 51.2518 34.9075 50.9648 35.9072 50.3909C36.9069 49.817 37.7122 49.0487 38.3231 48.086C38.9341 47.1234 39.2396 46.0588 39.2396 44.8925C39.2396 43.4115 38.8508 42.1711 38.0732 41.1714C37.2957 40.1716 36.2126 39.4311 34.8241 38.9498C33.4542 38.4499 31.8713 38.2 30.0755 38.2V33.6457C32.5193 33.6457 34.4724 33.1644 35.9349 32.2017C37.3975 31.239 38.1288 29.8042 38.1288 27.8974C38.1288 26.8977 37.8603 25.9905 37.3234 25.1759C36.8051 24.3428 36.1108 23.6856 35.2407 23.2043C34.3891 22.7044 33.4727 22.4545 32.4915 22.4545C31.4733 22.4545 30.4921 22.7044 29.5479 23.2043C28.6222 23.6856 27.8632 24.3428 27.2708 25.1759C26.6783 25.9905 26.3821 26.8977 26.3821 27.8974H20.606C20.606 26.3608 20.9207 24.9168 21.5502 23.5653C22.1981 22.1953 23.0683 21.0012 24.1605 19.983C25.2713 18.9462 26.5302 18.1409 27.9372 17.567C29.3628 16.9746 30.8531 16.6784 32.4082 16.6784C34.4446 16.6784 36.333 17.1875 38.0732 18.2057C39.832 19.2054 41.239 20.5569 42.2942 22.2601C43.368 23.9448 43.9049 25.8239 43.9049 27.8974C43.9049 29.5451 43.4976 31.1094 42.683 32.5905C41.8869 34.053 40.7761 35.0898 39.3506 35.7007C40.591 36.145 41.6278 36.8485 42.4609 37.8112C43.3125 38.7554 43.9512 39.8477 44.377 41.088C44.8028 42.3099 45.0157 43.5781 45.0157 44.8925C45.0157 47.1141 44.451 49.1506 43.3217 51.0019C42.1924 52.8347 40.6836 54.2972 38.7952 55.3895C36.9254 56.4818 34.8797 57.0279 32.6581 57.0279Z" fill="#1A1A1A"/>
<g clip-path="url(#clip0_7798_26336)">
<path d="M44.8968 72.9941C37.3985 67.4206 34.8123 62.9604 33.0593 59.5067C31.3037 62.9604 28.72 67.4206 21.2218 72.9941C8.43461 82.4972 20.4705 95.7589 31.0533 88.4599C30.364 92.9896 28.0108 96.292 25.6205 97.7151V99.1779H40.498V97.7151C38.1077 96.292 35.7546 92.9896 35.0652 88.4599C45.6481 95.7589 57.6839 82.4972 44.8968 72.9941Z" fill="#1A1A1A"/>
</g>
<g clip-path="url(#clip1_7798_26336)">
<path d="M102.378 108.433C89.8807 99.1441 85.5703 91.7103 82.6486 85.9542C79.7227 91.7103 75.4165 99.1441 62.9194 108.433C41.6075 124.272 61.6672 146.375 79.3053 134.21C78.1564 141.759 74.2346 147.263 70.2507 149.635V152.073H95.0464V149.635C91.0626 147.263 87.1407 141.759 85.9919 134.21C103.63 146.375 123.69 124.272 102.378 108.433Z" fill="#1A1A1A"/>
</g>
<defs>
<clipPath id="clip0_7798_26336">
<rect width="39.6712" height="39.6712" fill="white" transform="translate(13.2236 59.5067)"/>
</clipPath>
<clipPath id="clip1_7798_26336">
<rect width="66.1186" height="66.1186" fill="white" transform="translate(49.5889 85.9542)"/>
</clipPath>
</defs>
</svg>
