<svg width="126" height="172" viewBox="0 0 126 172" fill="none" xmlns="http://www.w3.org/2000/svg">
<rect x="1.65297" y="1.65297" width="122.319" height="168.602" rx="14.8767" fill="white" stroke="#8F8F8F" stroke-width="3.30593"/>
<path d="M119.014 155.373C119.014 160.851 114.573 165.291 109.096 165.291H16.5303C11.0528 165.291 6.6123 160.851 6.6123 155.373V106.359L119.014 41.392V155.373Z" fill="#F2F2F2"/>
<path d="M30.1998 57.0279C27.7376 57.0279 25.5067 56.4355 23.5073 55.2507C21.5264 54.0473 19.9528 52.4552 18.7864 50.4742C17.6386 48.4748 17.0647 46.2903 17.0647 43.9206H22.8408C22.8408 45.272 23.1741 46.5032 23.8406 47.614C24.507 48.7247 25.3957 49.6134 26.5065 50.2799C27.6173 50.9278 28.8484 51.2518 30.1998 51.2518C31.5328 51.2518 32.7547 50.9278 33.8655 50.2799C34.9763 49.6134 35.8649 48.7247 36.5314 47.614C37.1978 46.5032 37.5311 45.272 37.5311 43.9206C37.5311 42.5691 37.2256 41.338 36.6147 40.2272C36.0037 39.0979 35.0873 38.2 33.8655 37.5335C32.6436 36.8485 31.0885 36.506 29.2001 36.506H19.3974L23.3407 17.4282H42.1409V23.2043H28.0338L26.5065 30.7299L29.8666 30.7854C32.514 30.841 34.8374 31.4519 36.8368 32.6182C38.8548 33.7661 40.4377 35.3212 41.5855 37.2836C42.7333 39.2275 43.3072 41.4398 43.3072 43.9206C43.3072 45.7163 42.9647 47.4103 42.2797 49.0024C41.5947 50.5761 40.6506 51.9646 39.4472 53.1679C38.2624 54.3713 36.8739 55.3155 35.2817 56.0004C33.7081 56.6854 32.0141 57.0279 30.1998 57.0279Z" fill="#1A1A1A"/>
<g clip-path="url(#clip0_7798_26338)">
<path d="M44.8968 72.9941C37.3985 67.4206 34.8123 62.9604 33.0593 59.5067C31.3037 62.9604 28.72 67.4206 21.2218 72.9941C8.43461 82.4972 20.4705 95.7589 31.0533 88.4599C30.364 92.9896 28.0108 96.292 25.6205 97.7151V99.1779H40.498V97.7151C38.1077 96.292 35.7546 92.9896 35.0652 88.4599C45.6481 95.7589 57.6839 82.4972 44.8968 72.9941Z" fill="#1A1A1A"/>
</g>
<g clip-path="url(#clip1_7798_26338)">
<path d="M102.378 108.433C89.8807 99.1441 85.5703 91.7103 82.6486 85.9542C79.7227 91.7103 75.4165 99.1441 62.9194 108.433C41.6075 124.272 61.6672 146.375 79.3053 134.21C78.1564 141.759 74.2346 147.263 70.2507 149.635V152.073H95.0464V149.635C91.0626 147.263 87.1407 141.759 85.9919 134.21C103.63 146.375 123.69 124.272 102.378 108.433Z" fill="#1A1A1A"/>
</g>
<defs>
<clipPath id="clip0_7798_26338">
<rect width="39.6712" height="39.6712" fill="white" transform="translate(13.2236 59.5067)"/>
</clipPath>
<clipPath id="clip1_7798_26338">
<rect width="66.1186" height="66.1186" fill="white" transform="translate(49.5889 85.9542)"/>
</clipPath>
</defs>
</svg>
