<svg width="126" height="172" viewBox="0 0 126 172" fill="none" xmlns="http://www.w3.org/2000/svg">
<rect x="1.65297" y="1.65297" width="122.319" height="168.602" rx="14.8767" fill="white" stroke="#8F8F8F" stroke-width="3.30593"/>
<path d="M119.014 155.373C119.014 160.851 114.573 165.291 109.096 165.291H16.5303C11.0528 165.291 6.6123 160.851 6.6123 155.373V106.359L119.014 41.392V155.373Z" fill="#F2F2F2"/>
<path d="M31.1854 57.0279C28.7046 57.0279 26.4367 56.417 24.3818 55.1951C22.3268 53.9547 20.6791 52.3071 19.4387 50.2521C18.2169 48.1786 17.6059 45.8922 17.6059 43.3929C17.6059 42.06 17.7633 40.8566 18.078 39.7829C18.3928 38.7091 18.8741 37.5798 19.5221 36.3949L30.4634 17.4282H37.1837L29.6025 30.5355C31.1391 30.2393 32.6387 30.23 34.1012 30.5077C35.5823 30.7669 36.9708 31.276 38.2667 32.0351C39.5626 32.7756 40.7012 33.7198 41.6824 34.8676C42.6821 35.9969 43.4596 37.2836 44.015 38.7276C44.5704 40.1716 44.8481 41.7268 44.8481 43.3929C44.8481 45.2628 44.4871 47.0215 43.7651 48.6692C43.0616 50.3169 42.0804 51.7702 40.8215 53.0291C39.5811 54.2695 38.1278 55.2507 36.4617 55.9727C34.814 56.6762 33.0552 57.0279 31.1854 57.0279ZM31.1854 51.2518C32.7035 51.2518 34.0549 50.8815 35.2398 50.141C36.4246 49.4005 37.3595 48.4285 38.0445 47.2252C38.7295 46.0218 39.072 44.7444 39.072 43.3929C39.072 41.9674 38.7203 40.6622 38.0168 39.4774C37.3318 38.2925 36.3969 37.3484 35.212 36.6449C34.0272 35.9229 32.7035 35.5618 31.2409 35.5618C29.7228 35.5618 28.3714 35.9321 27.1865 36.6726C26.0017 37.4132 25.0668 38.3759 24.3818 39.5607C23.7153 40.7455 23.3821 42.023 23.3821 43.3929C23.3821 44.8925 23.7431 46.2347 24.4651 47.4196C25.2056 48.6044 26.1683 49.5393 27.3531 50.2243C28.538 50.9093 29.8154 51.2518 31.1854 51.2518Z" fill="#1A1A1A"/>
<g clip-path="url(#clip0_7798_26339)">
<path d="M44.8968 72.9941C37.3985 67.4206 34.8123 62.9604 33.0593 59.5067C31.3037 62.9604 28.72 67.4206 21.2218 72.9941C8.43461 82.4972 20.4705 95.7589 31.0533 88.4599C30.364 92.9896 28.0108 96.292 25.6205 97.7151V99.1779H40.498V97.7151C38.1077 96.292 35.7546 92.9896 35.0652 88.4599C45.6481 95.7589 57.6839 82.4972 44.8968 72.9941Z" fill="#1A1A1A"/>
</g>
<g clip-path="url(#clip1_7798_26339)">
<path d="M102.378 108.433C89.8807 99.1441 85.5703 91.7103 82.6486 85.9542C79.7227 91.7103 75.4165 99.1441 62.9194 108.433C41.6075 124.272 61.6672 146.375 79.3053 134.21C78.1564 141.759 74.2346 147.263 70.2507 149.635V152.073H95.0464V149.635C91.0626 147.263 87.1407 141.759 85.9919 134.21C103.63 146.375 123.69 124.272 102.378 108.433Z" fill="#1A1A1A"/>
</g>
<defs>
<clipPath id="clip0_7798_26339">
<rect width="39.6712" height="39.6712" fill="white" transform="translate(13.2236 59.5067)"/>
</clipPath>
<clipPath id="clip1_7798_26339">
<rect width="66.1186" height="66.1186" fill="white" transform="translate(49.5889 85.9542)"/>
</clipPath>
</defs>
</svg>
