<svg width="126" height="172" viewBox="0 0 126 172" fill="none" xmlns="http://www.w3.org/2000/svg">
<rect x="1.65297" y="1.65297" width="122.319" height="168.602" rx="14.8767" fill="white" stroke="#8F8F8F" stroke-width="3.30593"/>
<path d="M119.014 155.373C119.014 160.851 114.573 165.291 109.096 165.291H16.5303C11.0528 165.291 6.6123 160.851 6.6123 155.373V106.359L119.014 41.392V155.373Z" fill="#F2F2F2"/>
<path d="M30.8746 57.0279C28.5234 57.0279 26.3851 56.491 24.4597 55.4173C22.5344 54.3435 20.9978 52.9087 19.8499 51.113C18.7206 49.2987 18.156 47.2807 18.156 45.0591C18.156 43.1893 18.6188 41.4491 19.5445 39.8384C20.4701 38.2278 21.7013 36.8948 23.2379 35.8395C21.9975 34.9139 20.9885 33.7476 20.211 32.3405C19.4334 30.9335 19.0446 29.4155 19.0446 27.7863C19.0446 25.7498 19.5722 23.8985 20.6275 22.2323C21.7013 20.5476 23.136 19.2054 24.9318 18.2057C26.7276 17.206 28.7085 16.7061 30.8746 16.7061C33.0406 16.7061 35.0215 17.206 36.8173 18.2057C38.6131 19.2054 40.0386 20.5476 41.0939 22.2323C42.1676 23.8985 42.7045 25.7498 42.7045 27.7863C42.7045 29.4155 42.3157 30.9335 41.5382 32.3405C40.7791 33.7476 39.7702 34.9139 38.5113 35.8395C40.0849 36.8948 41.3253 38.2278 42.2324 39.8384C43.1581 41.4491 43.6209 43.1893 43.6209 45.0591C43.6209 47.2622 43.047 49.2709 41.8992 51.0852C40.7514 52.8995 39.2148 54.3435 37.2894 55.4173C35.364 56.491 33.2257 57.0279 30.8746 57.0279ZM30.8746 51.2518C32.0964 51.2518 33.2072 50.9741 34.2069 50.4187C35.2067 49.8633 36.0027 49.1228 36.5952 48.1971C37.2061 47.2529 37.5116 46.2069 37.5116 45.0591C37.5116 43.9298 37.2061 42.9023 36.5952 41.9767C36.0027 41.0325 35.2067 40.2827 34.2069 39.7273C33.2072 39.1719 32.0964 38.8942 30.8746 38.8942C29.6712 38.8942 28.5604 39.1719 27.5422 39.7273C26.5425 40.2827 25.7371 41.0325 25.1262 41.9767C24.5338 42.9023 24.2376 43.9298 24.2376 45.0591C24.2376 46.2069 24.5338 47.2529 25.1262 48.1971C25.7371 49.1228 26.5425 49.8633 27.5422 50.4187C28.5604 50.9741 29.6712 51.2518 30.8746 51.2518ZM30.8746 33.1181C31.9298 33.1181 32.8833 32.8774 33.7349 32.3961C34.605 31.9147 35.2992 31.276 35.8176 30.48C36.336 29.6654 36.5952 28.7675 36.5952 27.7863C36.5952 26.8051 36.336 25.9165 35.8176 25.1204C35.2992 24.3243 34.605 23.6856 33.7349 23.2043C32.8833 22.7229 31.9298 22.4823 30.8746 22.4823C29.8193 22.4823 28.8566 22.7229 27.9865 23.2043C27.1349 23.6856 26.4499 24.3243 25.9315 25.1204C25.4132 25.9165 25.154 26.8051 25.154 27.7863C25.154 28.7675 25.4132 29.6654 25.9315 30.48C26.4499 31.276 27.1349 31.9147 27.9865 32.3961C28.8566 32.8774 29.8193 33.1181 30.8746 33.1181Z" fill="#1A1A1A"/>
<g clip-path="url(#clip0_7798_26341)">
<path d="M44.8968 72.9941C37.3985 67.4206 34.8123 62.9604 33.0593 59.5067C31.3037 62.9604 28.72 67.4206 21.2218 72.9941C8.43461 82.4972 20.4705 95.7589 31.0533 88.4599C30.364 92.9896 28.0108 96.292 25.6205 97.7151V99.1779H40.498V97.7151C38.1077 96.292 35.7546 92.9896 35.0652 88.4599C45.6481 95.7589 57.6839 82.4972 44.8968 72.9941Z" fill="#1A1A1A"/>
</g>
<g clip-path="url(#clip1_7798_26341)">
<path d="M102.378 108.433C89.8807 99.1441 85.5703 91.7103 82.6486 85.9542C79.7227 91.7103 75.4165 99.1441 62.9194 108.433C41.6075 124.272 61.6672 146.375 79.3053 134.21C78.1564 141.759 74.2346 147.263 70.2507 149.635V152.073H95.0464V149.635C91.0626 147.263 87.1407 141.759 85.9919 134.21C103.63 146.375 123.69 124.272 102.378 108.433Z" fill="#1A1A1A"/>
</g>
<defs>
<clipPath id="clip0_7798_26341">
<rect width="39.6712" height="39.6712" fill="white" transform="translate(13.2236 59.5067)"/>
</clipPath>
<clipPath id="clip1_7798_26341">
<rect width="66.1186" height="66.1186" fill="white" transform="translate(49.5889 85.9542)"/>
</clipPath>
</defs>
</svg>
