<svg width="126" height="172" viewBox="0 0 126 172" fill="none" xmlns="http://www.w3.org/2000/svg">
<rect x="1.65297" y="1.65297" width="122.319" height="168.602" rx="14.8767" fill="white" stroke="#8F8F8F" stroke-width="3.30593"/>
<path d="M119.014 155.373C119.014 160.851 114.573 165.291 109.096 165.291H16.5303C11.0528 165.291 6.6123 160.851 6.6123 155.373V106.359L119.014 41.392V155.373Z" fill="#F2F2F2"/>
<path d="M24.5166 56.3059L32.3754 42.6987C30.5056 43.0504 28.6821 42.9764 26.9048 42.4765C25.146 41.9582 23.5631 41.1158 22.1561 39.9495C20.7491 38.7646 19.6291 37.3299 18.796 35.6452C17.9629 33.9605 17.5464 32.1091 17.5464 30.0912C17.5464 28.2584 17.8888 26.5367 18.5738 24.926C19.2773 23.2968 20.24 21.8713 21.4619 20.6495C22.6838 19.4091 24.1 18.4464 25.7107 17.7614C27.3398 17.0579 29.0801 16.7061 30.9314 16.7061C33.3566 16.7061 35.5782 17.3078 37.5962 18.5112C39.6141 19.7145 41.2248 21.3344 42.4281 23.3709C43.6315 25.3888 44.2332 27.6289 44.2332 30.0912C44.2332 31.3686 44.0758 32.5349 43.7611 33.5902C43.4649 34.6454 42.9928 35.7562 42.3448 36.9226L31.2091 56.3059H24.5166ZM30.8759 37.6724C32.3569 37.6724 33.6714 37.3206 34.8192 36.6171C35.967 35.8951 36.8649 34.9602 37.5129 33.8123C38.1793 32.646 38.5126 31.3964 38.5126 30.0634C38.5126 28.6194 38.1608 27.3235 37.4573 26.1756C36.7538 25.0278 35.8189 24.1207 34.6526 23.4542C33.5047 22.7877 32.2644 22.4545 30.9314 22.4545C29.4504 22.4545 28.1359 22.8155 26.9881 23.5375C25.8403 24.2595 24.9331 25.2037 24.2667 26.37C23.6002 27.5179 23.2669 28.749 23.2669 30.0634C23.2669 31.4519 23.6002 32.7293 24.2667 33.8957C24.9516 35.0435 25.868 35.9599 27.0159 36.6449C28.1637 37.3299 29.4504 37.6724 30.8759 37.6724Z" fill="#1A1A1A"/>
<g clip-path="url(#clip0_7798_26342)">
<path d="M44.8968 72.9941C37.3985 67.4206 34.8123 62.9604 33.0593 59.5067C31.3037 62.9604 28.72 67.4206 21.2218 72.9941C8.43461 82.4972 20.4705 95.7589 31.0533 88.4599C30.364 92.9896 28.0108 96.292 25.6205 97.7151V99.1779H40.498V97.7151C38.1077 96.292 35.7546 92.9896 35.0652 88.4599C45.6481 95.7589 57.6839 82.4972 44.8968 72.9941Z" fill="#1A1A1A"/>
</g>
<g clip-path="url(#clip1_7798_26342)">
<path d="M102.378 108.433C89.8807 99.1441 85.5703 91.7103 82.6486 85.9542C79.7227 91.7103 75.4165 99.1441 62.9194 108.433C41.6075 124.272 61.6672 146.375 79.3053 134.21C78.1564 141.759 74.2346 147.263 70.2507 149.635V152.073H95.0464V149.635C91.0626 147.263 87.1407 141.759 85.9919 134.21C103.63 146.375 123.69 124.272 102.378 108.433Z" fill="#1A1A1A"/>
</g>
<defs>
<clipPath id="clip0_7798_26342">
<rect width="39.6712" height="39.6712" fill="white" transform="translate(13.2236 59.5067)"/>
</clipPath>
<clipPath id="clip1_7798_26342">
<rect width="66.1186" height="66.1186" fill="white" transform="translate(49.5889 85.9542)"/>
</clipPath>
</defs>
</svg>
